SplineFontDB: 3.0
FontName: aghtex_mathbb_xlight
FullName: aghtex_mathbb_xlight
FamilyName: aghtex_mathbb
Weight: Light
Copyright: Copyright (C) 2012-2015, Koichi Murase, 1997, 2009, American Mathematical Society <http://www.ams.org>, with Reserved Font Name MSBM10, CMSY10.
Version: 1.1.24/2015-11-03
ItalicAngle: 0
UnderlinePosition: -136
UnderlineWidth: 20
Ascent: 819
Descent: 205
LayerCount: 2
Layer: 0 1 "+gMyXYgAA"  1
Layer: 1 1 "+Uk2XYgAA"  0
NeedsXUIDChange: 1
UniqueID: 4702302
FSType: 0
OS2Version: 1
OS2_WeightWidthSlopeOnly: 0
OS2_UseTypoMetrics: 0
CreationTime: 878738956
ModificationTime: 1446585902
PfmFamily: 17
TTFWeight: 200
TTFWidth: 5
LineGap: 92
VLineGap: 0
OS2TypoAscent: 0
OS2TypoAOffset: 1
OS2TypoDescent: 0
OS2TypoDOffset: 1
OS2TypoLinegap: 92
OS2WinAscent: 0
OS2WinAOffset: 1
OS2WinDescent: 0
OS2WinDOffset: 1
HheadAscent: 0
HheadAOffset: 1
HheadDescent: 0
HheadDOffset: 1
OS2Vendor: 'PfEd'
MarkAttachClasses: 1
DEI: 91125
ShortTable: maxp 16
  0
  0
  0
  0
  0
  0
  0
  2
  1
  2
  22
  0
  256
  0
  0
  0
EndShort
TtTable: prep
PUSHW_1
 511
SCANCTRL
PUSHB_1
 1
SCANTYPE
SVTCA[y-axis]
MPPEM
PUSHB_1
 8
LT
IF
PUSHB_2
 1
 1
INSTCTRL
EIF
PUSHB_2
 70
 6
CALL
IF
POP
PUSHB_1
 16
EIF
MPPEM
PUSHB_1
 20
GT
IF
POP
PUSHB_1
 128
EIF
SCVTCI
PUSHB_1
 6
CALL
NOT
IF
SVTCA[y-axis]
PUSHB_1
 6
DUP
RCVT
PUSHB_1
 3
CALL
WCVTP
PUSHB_1
 7
DUP
RCVT
PUSHB_3
 6
 58
 2
CALL
PUSHB_1
 3
CALL
WCVTP
PUSHB_1
 8
DUP
RCVT
PUSHB_3
 6
 34
 2
CALL
PUSHB_1
 3
CALL
WCVTP
SVTCA[x-axis]
PUSHB_1
 9
DUP
RCVT
PUSHB_1
 3
CALL
WCVTP
PUSHB_1
 10
DUP
RCVT
PUSHB_3
 9
 58
 2
CALL
PUSHB_2
 3
 70
SROUND
CALL
WCVTP
PUSHB_1
 11
DUP
RCVT
PUSHB_3
 9
 24
 2
CALL
PUSHB_2
 3
 70
SROUND
CALL
WCVTP
EIF
PUSHB_1
 20
CALL
EndTTInstrs
TtTable: fpgm
PUSHB_1
 0
FDEF
PUSHB_1
 0
SZP0
MPPEM
PUSHB_1
 71
LT
IF
PUSHB_1
 74
SROUND
EIF
PUSHB_1
 0
SWAP
MIAP[rnd]
RTG
PUSHB_1
 6
CALL
IF
RTDG
EIF
MPPEM
PUSHB_1
 71
LT
IF
RDTG
EIF
DUP
MDRP[rp0,rnd,grey]
PUSHB_1
 1
SZP0
MDAP[no-rnd]
RTG
ENDF
PUSHB_1
 1
FDEF
DUP
MDRP[rp0,min,white]

StartChar: followsorequal
Encoding: -1 8829 1
Width: 799
VWidth: 1000
Flags: MW
HStem: -246 60<502 612.5 502 624.5> -63 60<186 296> 429 43<599.5 693 599.5 693>
VStem: 57 30<-220 -212 -212 -180 -220 -163> 711 30<-69 -37 -37 -29>
LayerCount: 2
Fore
SplineSet
72 -246 m 128,-1,1
 60 -246 60 -246 57 -220 c 1,2,-1
 57 -212 l 2,3,4
 57 -132 57 -132 104.5 -67.5 c 128,-1,5
 152 -3 152 -3 228 -3 c 0,6,7
 267 -3 267 -3 304.5 -22 c 128,-1,8
 342 -41 342 -41 372 -67.5 c 128,-1,9
 402 -94 402 -94 431.5 -121 c 128,-1,10
 461 -148 461 -148 497 -167 c 128,-1,11
 533 -186 533 -186 570 -186 c 0,12,13
 632 -186 632 -186 671.5 -139 c 128,-1,14
 711 -92 711 -92 711 -29 c 1,15,16
 714 -3 714 -3 726 -3 c 128,-1,17
 738 -3 738 -3 741 -29 c 1,18,-1
 741 -37 l 2,19,20
 741 -117 741 -117 694 -181.5 c 128,-1,21
 647 -246 647 -246 570 -246 c 0,22,23
 531 -246 531 -246 493.5 -227 c 128,-1,24
 456 -208 456 -208 426 -181 c 128,-1,25
 396 -154 396 -154 366.5 -127.5 c 128,-1,26
 337 -101 337 -101 301 -82 c 128,-1,27
 265 -63 265 -63 228 -63 c 0,28,29
 167 -63 167 -63 127 -110.5 c 128,-1,30
 87 -158 87 -158 87 -220 c 1,31,0
 84 -246 84 -246 72 -246 c 128,-1,1
108 149 m 0,32,33
 86 149 86 149 86 173 c 1,34,35
 108 391 108 391 417 451 c 1,36,37
 108 509 108 509 86 729 c 0,38,39
 86 738 86 738 92 745 c 128,-1,40
 98 752 98 752 108 752 c 0,41,42
 125 752 125 752 129 733 c 1,43,44
 134 682 134 682 159 641 c 128,-1,45
 184 600 184 600 218.5 573.5 c 128,-1,46
 253 547 253 547 303.5 527 c 128,-1,47
 354 507 354 507 400 497 c 128,-1,48
 446 487 446 487 504.5 481 c 128,-1,49
 563 475 563 475 603.5 473.5 c 128,-1,50
 644 472 644 472 693 472 c 1,51,52
 712 468 712 468 712 451 c 0,53,54
 712 433 712 433 693 429 c 1,55,56
 644 429 644 429 603.5 427.5 c 128,-1,57
 563 426 563 426 504 420 c 128,-1,58
 445 414 445 414 399 404 c 128,-1,59
 353 394 353 394 303 374 c 128,-1,60
 253 354 253 354 218.5 327.5 c 128,-1,61
 184 301 184 301 159 260.5 c 128,-1,62
 134 220 134 220 129 169 c 1,63,64
 125 149 125 149 108 149 c 0,32,33
EndSplineSet
Validated: 1
EndChar

StartChar: nleqq
Encoding: 8816 8816 2
Width: 799
VWidth: 1000
Flags: W
HStem: -191 43<86.0049 227 287 711.981> 12 43<86.0049 296 356 711.981> 172 40<702 711.975> 733 42<699 711.971>
VStem: 150 41<-445.986 -433> 607 41<933 945.986>
LayerCount: 2
Fore
SplineSet
150 -425 m 0,0,1
 150 -419 150 -419 151 -417 c 2,2,-1
 227 -191 l 1,3,-1
 106 -191 l 1,4,5
 86 -187 86 -187 86 -170 c 0,6,7
 86 -152 86 -152 106 -148 c 1,8,-1
 242 -148 l 1,9,-1
 296 12 l 1,10,-1
 106 12 l 1,11,12
 86 16 86 16 86 33 c 0,13,14
 86 51 86 51 106 55 c 1,15,-1
 310 55 l 1,16,-1
 397 310 l 1,17,-1
 97 455 l 2,18,19
 86 460 86 460 86 473 c 128,-1,20
 86 486 86 486 100 493 c 2,21,-1
 528 699 l 1,22,-1
 607 933 l 1,23,24
 610 946 610 946 627 946 c 0,25,26
 635 946 635 946 641.5 939.5 c 128,-1,27
 648 933 648 933 648 925 c 0,28,29
 648 919 648 919 647 917 c 2,30,-1
 582 725 l 1,31,-1
 683 773 l 2,32,33
 687 775 687 775 691 775 c 0,34,35
 699 775 699 775 705.5 768.5 c 128,-1,36
 712 762 712 762 712 753 c 0,37,38
 712 740 712 740 699 733 c 2,39,-1
 563 668 l 1,40,-1
 450 333 l 1,41,-1
 702 212 l 2,42,43
 712 207 712 207 712 193 c 0,44,45
 712 184 712 184 705.5 178 c 128,-1,46
 699 172 699 172 691 172 c 0,47,48
 685 172 685 172 683 173 c 2,49,-1
 436 292 l 1,50,-1
 356 55 l 1,51,-1
 693 55 l 1,52,53
 712 49 712 49 712 33 c 0,54,55
 712 16 712 16 693 12 c 1,56,-1
 341 12 l 1,57,-1
 287 -148 l 1,58,-1
 693 -148 l 1,59,60
 712 -154 712 -154 712 -170 c 0,61,62
 712 -187 712 -187 693 -191 c 1,63,-1
 273 -191 l 1,64,-1
 191 -433 l 1,65,66
 188 -446 188 -446 171 -446 c 0,67,68
 163 -446 163 -446 156.5 -439.5 c 128,-1,69
 150 -433 150 -433 150 -425 c 0,0,1
157 473 m 1,70,-1
 411 351 l 1,71,-1
 509 642 l 1,72,-1
 157 473 l 1,70,-1
EndSplineSet
Validated: 1
EndChar

StartChar: NameMe.8817
Encoding: 8817 8817 3
Width: 799
VWidth: 1000
Flags: W
HStem: -191 43<86.0049 227 287 711.981> 12 43<86.0049 296 356 711.981>
VStem: 150 41<-445.986 -433> 607 41<933 945.986>
LayerCount: 2
Fore
SplineSet
150 -425 m 0,0,1
 150 -419 150 -419 151 -417 c 2,2,-1
 227 -191 l 1,3,-1
 106 -191 l 1,4,5
 86 -187 86 -187 86 -170 c 0,6,7
 86 -152 86 -152 106 -148 c 1,8,-1
 242 -148 l 1,9,-1
 296 12 l 1,10,-1
 106 12 l 1,11,12
 86 16 86 16 86 33 c 0,13,14
 86 51 86 51 106 55 c 1,15,-1
 310 55 l 1,16,-1
 396 308 l 1,17,-1
 116 173 l 2,18,19
 113 172 113 172 108 172 c 0,20,21
 99 172 99 172 92.5 178 c 128,-1,22
 86 184 86 184 86 193 c 0,23,24
 86 206 86 206 100 213 c 2,25,-1
 415 365 l 1,26,-1
 478 551 l 1,27,-1
 97 735 l 2,28,29
 86 740 86 740 86 753 c 0,30,31
 86 762 86 762 92.5 768.5 c 128,-1,32
 99 775 99 775 108 775 c 0,33,34
 110 775 110 775 116 773 c 2,35,-1
 492 592 l 1,36,-1
 607 933 l 1,37,38
 610 946 610 946 627 946 c 0,39,40
 635 946 635 946 641.5 939.5 c 128,-1,41
 648 933 648 933 648 925 c 0,42,43
 648 919 648 919 647 917 c 2,44,-1
 531 574 l 1,45,-1
 702 492 l 2,46,47
 712 487 712 487 712 473 c 0,48,49
 712 460 712 460 699 453 c 2,50,-1
 450 334 l 1,51,-1
 356 55 l 1,52,-1
 693 55 l 1,53,54
 712 49 712 49 712 33 c 0,55,56
 712 16 712 16 693 12 c 1,57,-1
 341 12 l 1,58,-1
 287 -148 l 1,59,-1
 693 -148 l 1,60,61
 712 -154 712 -154 712 -170 c 0,62,63
 712 -187 712 -187 693 -191 c 1,64,-1
 273 -191 l 1,65,-1
 191 -433 l 1,66,67
 188 -446 188 -446 171 -446 c 0,68,69
 163 -446 163 -446 156.5 -439.5 c 128,-1,70
 150 -433 150 -433 150 -425 c 0,0,1
469 391 m 1,71,-1
 641 473 l 1,72,-1
 517 533 l 1,73,-1
 469 391 l 1,71,-1
EndSplineSet
Validated: 1
EndChar

StartChar: nlslant
Encoding: 8820 8820 4
Width: 799
VWidth: 1000
Flags: W
HStem: -154 40<702 711.975> 49 40<702 711.975> 610 42<699 711.971>
VStem: 150 41<-322.986 -310> 607 41<810 822.986>
LayerCount: 2
Fore
SplineSet
150 -302 m 0,0,1
 150 -296 150 -296 151 -294 c 2,2,-1
 288 37 l 1,3,-1
 97 129 l 2,4,5
 86 134 86 134 86 147 c 0,6,7
 86 156 86 156 92.5 162.5 c 128,-1,8
 99 169 99 169 108 169 c 0,9,10
 110 169 110 169 116 167 c 2,11,-1
 304 77 l 1,12,-1
 358 206 l 1,13,-1
 97 332 l 2,14,15
 86 337 86 337 86 350 c 128,-1,16
 86 363 86 363 100 370 c 2,17,-1
 506 565 l 1,18,-1
 607 810 l 2,19,20
 612 823 612 823 627 823 c 0,21,22
 635 823 635 823 641.5 816.5 c 128,-1,23
 648 810 648 810 648 802 c 0,24,25
 648 796 648 796 647 794 c 2,26,-1
 564 593 l 1,27,-1
 683 650 l 2,28,29
 687 652 687 652 691 652 c 0,30,31
 699 652 699 652 705.5 645.5 c 128,-1,32
 712 639 712 639 712 630 c 0,33,34
 712 617 712 617 699 610 c 2,35,-1
 540 534 l 1,36,-1
 413 227 l 1,37,-1
 702 89 l 2,38,39
 712 84 712 84 712 70 c 0,40,41
 712 61 712 61 705.5 55 c 128,-1,42
 699 49 699 49 691 49 c 0,43,44
 685 49 685 49 683 50 c 2,45,-1
 397 188 l 1,46,-1
 343 58 l 1,47,-1
 702 -114 l 2,48,49
 712 -119 712 -119 712 -133 c 0,50,51
 712 -142 712 -142 705.5 -148 c 128,-1,52
 699 -154 699 -154 691 -154 c 0,53,54
 685 -154 685 -154 683 -153 c 2,55,-1
 327 18 l 1,56,-1
 191 -310 l 2,57,58
 186 -323 186 -323 171 -323 c 0,59,60
 163 -323 163 -323 156.5 -316.5 c 128,-1,61
 150 -310 150 -310 150 -302 c 0,0,1
157 350 m 1,62,-1
 374 246 l 1,63,-1
 481 506 l 1,64,-1
 157 350 l 1,62,-1
EndSplineSet
Validated: 1
EndChar

StartChar: ngslant
Encoding: 8821 8821 5
Width: 799
VWidth: 1000
Flags: W
HStem: 129 40<702 711.898>
VStem: 150 41<-322.986 -310> 607 41<810 822.986>
LayerCount: 2
Fore
SplineSet
150 -302 m 0,0,1
 150 -296 150 -296 151 -294 c 2,2,-1
 233 -97 l 1,3,-1
 116 -153 l 2,4,5
 113 -154 113 -154 108 -154 c 0,6,7
 99 -154 99 -154 92.5 -148 c 128,-1,8
 86 -142 86 -142 86 -133 c 0,9,10
 86 -119 86 -119 97 -114 c 2,11,-1
 257 -37 l 1,12,-1
 337 157 l 1,13,-1
 116 50 l 2,14,15
 113 49 113 49 108 49 c 0,16,17
 99 49 99 49 92.5 55 c 128,-1,18
 86 61 86 61 86 70 c 0,19,20
 86 84 86 84 97 89 c 2,21,-1
 362 216 l 1,22,-1
 454 440 l 1,23,-1
 100 610 l 2,24,25
 86 617 86 617 86 630 c 0,26,27
 86 639 86 639 92.5 645.5 c 128,-1,28
 99 652 99 652 108 652 c 0,29,30
 110 652 110 652 116 650 c 2,31,-1
 471 480 l 1,32,-1
 607 810 l 2,33,34
 612 823 612 823 627 823 c 0,35,36
 635 823 635 823 641.5 816.5 c 128,-1,37
 648 810 648 810 648 802 c 0,38,39
 648 796 648 796 647 794 c 2,40,-1
 509 461 l 1,41,-1
 699 370 l 2,42,43
 712 363 712 363 712 350 c 128,-1,44
 712 337 712 337 702 332 c 2,45,-1
 395 185 l 1,46,-1
 315 -9 l 1,47,-1
 683 167 l 2,48,49
 687 169 687 169 691 169 c 0,50,51
 699 169 699 169 705.5 162.5 c 128,-1,52
 712 156 712 156 712 147 c 0,53,54
 712 134 712 134 702 129 c 2,55,-1
 291 -69 l 1,56,-1
 191 -310 l 2,57,58
 186 -323 186 -323 171 -323 c 0,59,60
 163 -323 163 -323 156.5 -316.5 c 128,-1,61
 150 -310 150 -310 150 -302 c 0,0,1
420 244 m 1,62,-1
 641 350 l 1,63,-1
 493 421 l 1,64,-1
 420 244 l 1,62,-1
EndSplineSet
Validated: 1
EndChar

StartChar: npreceq
Encoding: 8929 8928 6
Width: 799
VWidth: 1000
Flags: W
HStem: -154 43<86.0049 209 273 711.995> 292 40<456 495.769> 303 47<382.914 397.93> 329 43<86.0049 318.352>
VStem: 150 41<-322.986 -310> 607 41<810 822.986> 669 43<49.0068 142.617 558.374 644.781>
LayerCount: 2
Fore
SplineSet
150 -302 m 0,0,1
 150 -296 150 -296 151 -294 c 2,2,-1
 209 -154 l 1,3,-1
 106 -154 l 1,4,5
 86 -150 86 -150 86 -133 c 0,6,7
 86 -115 86 -115 106 -111 c 1,8,-1
 227 -111 l 1,9,-1
 398 303 l 1,10,11
 279 329 279 329 106 329 c 1,12,13
 86 333 86 333 86 351 c 0,14,15
 86 368 86 368 106 372 c 1,16,17
 312 372 312 372 441 409 c 1,18,-1
 607 810 l 2,19,20
 612 823 612 823 627 823 c 0,21,22
 635 823 635 823 641.5 816.5 c 128,-1,23
 648 810 648 810 648 802 c 0,24,25
 648 796 648 796 647 794 c 2,26,-1
 495 427 l 1,27,28
 654 490 654 490 669 632 c 1,29,30
 673 652 673 652 691 652 c 0,31,32
 700 652 700 652 706 645 c 128,-1,33
 712 638 712 638 712 628 c 1,34,35
 693 443 693 443 473 374 c 1,36,-1
 456 332 l 1,37,38
 562 302 562 302 631.5 237.5 c 128,-1,39
 701 173 701 173 712 72 c 0,40,41
 712 63 712 63 706 56 c 128,-1,42
 700 49 700 49 691 49 c 0,43,44
 672 49 672 49 669 68 c 1,45,46
 652 232 652 232 440 292 c 1,47,-1
 273 -111 l 1,48,-1
 693 -111 l 1,49,50
 712 -115 712 -115 712 -133 c 0,51,52
 712 -150 712 -150 693 -154 c 1,53,-1
 256 -154 l 1,54,-1
 191 -310 l 2,55,56
 186 -323 186 -323 171 -323 c 0,57,58
 163 -323 163 -323 156.5 -316.5 c 128,-1,59
 150 -310 150 -310 150 -302 c 0,0,1
380 350 m 1,60,61
 401 346 401 346 414 343 c 1,62,-1
 421 359 l 1,63,64
 414 358 414 358 400.5 355 c 128,-1,65
 387 352 387 352 380 350 c 1,60,61
EndSplineSet
Validated: 1
EndChar

StartChar: nsucceq
Encoding: 8930 8929 7
Width: 799
VWidth: 1000
Flags: W
HStem: -154 43<86.0049 209 273 711.995> 329 43<480.883 711.995>
VStem: 86 43<56.2192 140.037 555.185 651.994> 150 41<-322.986 -310> 607 41<810 822.986>
LayerCount: 2
Fore
SplineSet
150 -302 m 0,0,1
 150 -296 150 -296 151 -294 c 2,2,-1
 209 -154 l 1,3,-1
 106 -154 l 1,4,5
 86 -150 86 -150 86 -133 c 0,6,7
 86 -115 86 -115 106 -111 c 1,8,-1
 227 -111 l 1,9,-1
 397 302 l 1,10,11
 148 246 148 246 129 68 c 0,12,13
 126 49 126 49 108 49 c 0,14,15
 98 49 98 49 92 56 c 128,-1,16
 86 63 86 63 86 72 c 0,17,18
 92 135 92 135 122.5 185 c 128,-1,19
 153 235 153 235 201.5 267 c 128,-1,20
 250 299 250 299 302.5 319 c 128,-1,21
 355 339 355 339 418 350 c 1,22,23
 352 364 352 364 301.5 383 c 128,-1,24
 251 402 251 402 201.5 433 c 128,-1,25
 152 464 152 464 122.5 513.5 c 128,-1,26
 93 563 93 563 86 628 c 1,27,28
 86 652 86 652 108 652 c 0,29,30
 125 652 125 652 129 632 c 1,31,32
 148 441 148 441 434 391 c 1,33,-1
 607 810 l 2,34,35
 612 823 612 823 627 823 c 0,36,37
 635 823 635 823 641.5 816.5 c 128,-1,38
 648 810 648 810 648 802 c 0,39,40
 648 796 648 796 647 794 c 2,41,-1
 478 384 l 1,42,43
 570 372 570 372 693 372 c 1,44,45
 712 368 712 368 712 351 c 0,46,47
 712 333 712 333 693 329 c 1,48,49
 550 329 550 329 448 312 c 1,50,-1
 273 -111 l 1,51,-1
 693 -111 l 1,52,53
 712 -115 712 -115 712 -133 c 0,54,55
 712 -150 712 -150 693 -154 c 1,56,-1
 256 -154 l 1,57,-1
 191 -310 l 2,58,59
 186 -323 186 -323 171 -323 c 0,60,61
 163 -323 163 -323 156.5 -316.5 c 128,-1,62
 150 -310 150 -310 150 -302 c 0,0,1
EndSplineSet
Validated: 1
EndChar

StartChar: lnvert
Encoding: 8808 8808 8
Width: 799
VWidth: 1000
Flags: W
HStem: -192 43<86.0049 378 421 711.995> 11 43<86.0049 378 421 711.995> 171 40<702 711.898> 733 41<699 711.986>
VStem: 378 43<-298.995 -192 -149 11 54 160.995>
LayerCount: 2
Fore
SplineSet
106 -192 m 1,0,1
 86 -188 86 -188 86 -171 c 0,2,3
 86 -153 86 -153 106 -149 c 1,4,-1
 378 -149 l 1,5,-1
 378 11 l 1,6,-1
 106 11 l 1,7,8
 86 15 86 15 86 33 c 0,9,10
 86 50 86 50 106 54 c 1,11,-1
 378 54 l 1,12,-1
 378 141 l 1,13,14
 382 161 382 161 399 161 c 128,-1,15
 416 161 416 161 421 141 c 1,16,-1
 421 54 l 1,17,-1
 693 54 l 1,18,19
 712 50 712 50 712 33 c 0,20,21
 712 15 712 15 693 11 c 1,22,-1
 421 11 l 1,23,-1
 421 -149 l 1,24,-1
 693 -149 l 1,25,26
 712 -153 712 -153 712 -171 c 0,27,28
 712 -188 712 -188 693 -192 c 1,29,-1
 421 -192 l 1,30,-1
 421 -279 l 1,31,32
 416 -299 416 -299 399 -299 c 128,-1,33
 382 -299 382 -299 378 -279 c 1,34,-1
 378 -192 l 1,35,-1
 106 -192 l 1,0,1
97 454 m 2,36,37
 86 459 86 459 86 473 c 0,38,39
 86 486 86 486 100 493 c 2,40,-1
 683 773 l 2,41,42
 685 774 685 774 691 774 c 0,43,44
 699 774 699 774 705.5 767.5 c 128,-1,45
 712 761 712 761 712 753 c 0,46,47
 712 739 712 739 699 733 c 2,48,-1
 157 473 l 1,49,-1
 702 211 l 2,50,51
 712 206 712 206 712 193 c 0,52,53
 712 184 712 184 705.5 177.5 c 128,-1,54
 699 171 699 171 691 171 c 0,55,56
 685 171 685 171 683 173 c 2,57,-1
 97 454 l 2,36,37
EndSplineSet
Validated: 1
EndChar

StartChar: gnvert
Encoding: 8809 8809 9
Width: 799
VWidth: 1000
Flags: W
HStem: -192 43<86.0049 378 421 711.995> 11 43<86.0049 378 421 711.995> 734 40<86.043 97>
VStem: 378 43<-298.995 -192 -149 11 54 160.995>
LayerCount: 2
Fore
SplineSet
106 -192 m 1,0,1
 86 -188 86 -188 86 -171 c 0,2,3
 86 -153 86 -153 106 -149 c 1,4,-1
 378 -149 l 1,5,-1
 378 11 l 1,6,-1
 106 11 l 1,7,8
 86 15 86 15 86 33 c 0,9,10
 86 50 86 50 106 54 c 1,11,-1
 378 54 l 1,12,-1
 378 141 l 1,13,14
 382 161 382 161 399 161 c 128,-1,15
 416 161 416 161 421 141 c 1,16,-1
 421 54 l 1,17,-1
 693 54 l 1,18,19
 712 50 712 50 712 33 c 0,20,21
 712 15 712 15 693 11 c 1,22,-1
 421 11 l 1,23,-1
 421 -149 l 1,24,-1
 693 -149 l 1,25,26
 712 -153 712 -153 712 -171 c 0,27,28
 712 -188 712 -188 693 -192 c 1,29,-1
 421 -192 l 1,30,-1
 421 -279 l 1,31,32
 416 -299 416 -299 399 -299 c 128,-1,33
 382 -299 382 -299 378 -279 c 1,34,-1
 378 -192 l 1,35,-1
 106 -192 l 1,0,1
86 193 m 0,36,37
 86 206 86 206 100 213 c 2,38,-1
 641 473 l 1,39,-1
 97 734 l 2,40,41
 86 739 86 739 86 753 c 0,42,43
 86 761 86 761 92.5 767.5 c 128,-1,44
 99 774 99 774 108 774 c 0,45,46
 113 774 113 774 116 773 c 2,47,-1
 702 491 l 2,48,49
 712 486 712 486 712 473 c 0,50,51
 712 459 712 459 699 453 c 2,52,-1
 116 173 l 2,53,54
 113 171 113 171 108 171 c 0,55,56
 99 171 99 171 92.5 177.5 c 128,-1,57
 86 184 86 184 86 193 c 0,36,37
EndSplineSet
Validated: 1
EndChar

StartChar: varsubsetneqq
Encoding: 10952 10952 10
Width: 799
VWidth: 1000
Flags: W
HStem: -235 43<86.0049 287 365 711.995> -32 43<86.0049 415 493 711.995> 171 43<292.574 544 622 711.995> 308 20G<648.5 659.5> 731 43<292.574 711.995>
VStem: 86 43<369.512 575.763>
LayerCount: 2
Fore
SplineSet
106 -235 m 1,0,1
 86 -231 86 -231 86 -214 c 0,2,3
 86 -196 86 -196 106 -192 c 1,4,-1
 314 -192 l 1,5,-1
 415 -32 l 1,6,-1
 106 -32 l 1,7,8
 86 -28 86 -28 86 -11 c 0,9,10
 86 7 86 7 106 11 c 1,11,-1
 442 11 l 1,12,-1
 544 171 l 1,13,-1
 397 171 l 2,14,15
 270 171 270 171 178 259 c 128,-1,16
 86 347 86 347 86 473 c 0,17,18
 86 598 86 598 178 686 c 128,-1,19
 270 774 270 774 397 774 c 2,20,-1
 693 774 l 1,21,22
 712 770 712 770 712 753 c 0,23,24
 712 735 712 735 693 731 c 1,25,-1
 401 731 l 2,26,27
 290 731 290 731 209.5 656.5 c 128,-1,28
 129 582 129 582 129 473 c 0,29,30
 129 363 129 363 209.5 288.5 c 128,-1,31
 290 214 290 214 401 214 c 2,32,-1
 571 214 l 1,33,-1
 638 319 l 1,34,35
 642 328 642 328 655 328 c 0,36,37
 664 328 664 328 670.5 321.5 c 128,-1,38
 677 315 677 315 677 307 c 0,39,40
 677 300 677 300 674 296 c 2,41,-1
 622 214 l 1,42,-1
 693 214 l 1,43,44
 712 210 712 210 712 193 c 0,45,46
 712 175 712 175 693 171 c 1,47,-1
 595 171 l 1,48,-1
 493 11 l 1,49,-1
 693 11 l 1,50,51
 712 7 712 7 712 -11 c 0,52,53
 712 -28 712 -28 693 -32 c 1,54,-1
 466 -32 l 1,55,-1
 365 -192 l 1,56,-1
 693 -192 l 1,57,58
 712 -196 712 -196 712 -214 c 0,59,60
 712 -231 712 -231 693 -235 c 1,61,-1
 337 -235 l 1,62,-1
 271 -340 l 2,63,64
 265 -349 265 -349 253 -349 c 0,65,66
 244 -349 244 -349 238 -342.5 c 128,-1,67
 232 -336 232 -336 232 -328 c 0,68,69
 232 -322 232 -322 235 -317 c 2,70,-1
 287 -235 l 1,71,-1
 106 -235 l 1,0,1
EndSplineSet
Validated: 1
EndChar

StartChar: varsupsetneqq
Encoding: 10953 10953 11
Width: 799
VWidth: 1000
Flags: W
HStem: -235 43<86.0049 157 221 711.995> -32 43<86.0049 239 303 711.995> 171 43<86.0049 321 385 505.426> 308 20G<391.5 403.5> 731 43<86.0049 505.426>
VStem: 121 42<-348.971 -336> 379 42<315 327.971> 669 43<369.512 575.763>
LayerCount: 2
Fore
SplineSet
121 -328 m 0,0,1
 121 -324 121 -324 123 -320 c 2,2,-1
 157 -235 l 1,3,-1
 106 -235 l 1,4,5
 86 -231 86 -231 86 -214 c 0,6,7
 86 -196 86 -196 106 -192 c 1,8,-1
 174 -192 l 1,9,-1
 239 -32 l 1,10,-1
 106 -32 l 1,11,12
 86 -28 86 -28 86 -11 c 0,13,14
 86 7 86 7 106 11 c 1,15,-1
 256 11 l 1,16,-1
 321 171 l 1,17,-1
 106 171 l 1,18,19
 86 175 86 175 86 193 c 0,20,21
 86 210 86 210 106 214 c 1,22,-1
 338 214 l 1,23,-1
 379 315 l 2,24,25
 384 328 384 328 399 328 c 0,26,27
 408 328 408 328 414.5 321.5 c 128,-1,28
 421 315 421 315 421 307 c 0,29,30
 421 303 421 303 419 299 c 2,31,-1
 385 214 l 1,32,-1
 397 214 l 2,33,34
 508 214 508 214 588.5 288.5 c 128,-1,35
 669 363 669 363 669 473 c 0,36,37
 669 582 669 582 588.5 656.5 c 128,-1,38
 508 731 508 731 397 731 c 2,39,-1
 106 731 l 1,40,41
 86 735 86 735 86 753 c 0,42,43
 86 770 86 770 106 774 c 1,44,-1
 401 774 l 2,45,46
 528 774 528 774 620 686 c 128,-1,47
 712 598 712 598 712 473 c 0,48,49
 712 347 712 347 620 259 c 128,-1,50
 528 171 528 171 401 171 c 2,51,-1
 367 171 l 1,52,-1
 303 11 l 1,53,-1
 693 11 l 1,54,55
 712 7 712 7 712 -11 c 0,56,57
 712 -28 712 -28 693 -32 c 1,58,-1
 285 -32 l 1,59,-1
 221 -192 l 1,60,-1
 693 -192 l 1,61,62
 712 -196 712 -196 712 -214 c 0,63,64
 712 -231 712 -231 693 -235 c 1,65,-1
 203 -235 l 1,66,-1
 163 -336 l 1,67,68
 156 -349 156 -349 143 -349 c 0,69,70
 134 -349 134 -349 127.5 -342.5 c 128,-1,71
 121 -336 121 -336 121 -328 c 0,0,1
EndSplineSet
Validated: 1
EndChar

StartChar: varsubsetneq
Encoding: 8842 8842 12
Width: 799
VWidth: 1000
Flags: W
HStem: -154 43<108.005 270 361 711.995> 49 43<292.574 437 528 711.995> 609 43<292.574 711.995>
VStem: 86 43<247.512 453.763>
LayerCount: 2
Fore
SplineSet
200 -247 m 0,0,1
 200 -240 200 -240 206 -232 c 2,2,-1
 270 -154 l 1,3,-1
 127 -154 l 1,4,5
 108 -151 108 -151 108 -133 c 0,6,7
 108 -114 108 -114 127 -111 c 1,8,-1
 305 -111 l 1,9,-1
 437 49 l 1,10,-1
 397 49 l 2,11,12
 270 49 270 49 178 137 c 128,-1,13
 86 225 86 225 86 351 c 0,14,15
 86 476 86 476 178 564 c 128,-1,16
 270 652 270 652 397 652 c 2,17,-1
 693 652 l 1,18,19
 712 648 712 648 712 631 c 0,20,21
 712 613 712 613 693 609 c 1,22,-1
 401 609 l 2,23,24
 290 609 290 609 209.5 534.5 c 128,-1,25
 129 460 129 460 129 351 c 0,26,27
 129 241 129 241 209.5 166.5 c 128,-1,28
 290 92 290 92 401 92 c 2,29,-1
 472 92 l 1,30,-1
 561 200 l 2,31,32
 567 206 567 206 576 206 c 128,-1,33
 585 206 585 206 591.5 199.5 c 128,-1,34
 598 193 598 193 598 185 c 0,35,36
 598 178 598 178 592 170 c 2,37,-1
 528 92 l 1,38,-1
 693 92 l 1,39,40
 712 88 712 88 712 71 c 0,41,42
 712 53 712 53 693 49 c 1,43,-1
 493 49 l 1,44,-1
 361 -111 l 1,45,-1
 693 -111 l 1,46,47
 712 -115 712 -115 712 -133 c 0,48,49
 712 -150 712 -150 693 -154 c 1,50,-1
 326 -154 l 1,51,-1
 237 -262 l 2,52,53
 231 -268 231 -268 222 -268 c 128,-1,54
 213 -268 213 -268 206.5 -261.5 c 128,-1,55
 200 -255 200 -255 200 -247 c 0,0,1
EndSplineSet
Validated: 1
EndChar

StartChar: varsupsetneq
Encoding: 8843 8843 13
Width: 799
VWidth: 1000
Flags: W
HStem: -154 43<86.0049 143 223 690.995> 49 43<86.0049 277 357 505.426> 609 43<86.0049 505.426>
VStem: 669 43<247.512 453.763>
LayerCount: 2
Fore
SplineSet
86 -247 m 0,0,1
 86 -240 86 -240 89 -236 c 2,2,-1
 143 -154 l 1,3,-1
 106 -154 l 1,4,5
 86 -150 86 -150 86 -133 c 0,6,7
 86 -115 86 -115 106 -111 c 1,8,-1
 172 -111 l 1,9,-1
 277 49 l 1,10,-1
 106 49 l 1,11,12
 86 53 86 53 86 71 c 0,13,14
 86 88 86 88 106 92 c 1,15,-1
 306 92 l 1,16,-1
 375 197 l 2,17,18
 381 206 381 206 393 206 c 0,19,20
 402 206 402 206 408 199.5 c 128,-1,21
 414 193 414 193 414 185 c 128,-1,22
 414 177 414 177 411 174 c 2,23,-1
 357 92 l 1,24,-1
 397 92 l 2,25,26
 508 92 508 92 588.5 166.5 c 128,-1,27
 669 241 669 241 669 351 c 0,28,29
 669 460 669 460 588.5 534.5 c 128,-1,30
 508 609 508 609 397 609 c 2,31,-1
 106 609 l 1,32,33
 86 613 86 613 86 631 c 0,34,35
 86 648 86 648 106 652 c 1,36,-1
 401 652 l 2,37,38
 528 652 528 652 620 564 c 128,-1,39
 712 476 712 476 712 351 c 0,40,41
 712 225 712 225 620 137 c 128,-1,42
 528 49 528 49 401 49 c 2,43,-1
 329 49 l 1,44,-1
 223 -111 l 1,45,-1
 671 -111 l 1,46,47
 691 -115 691 -115 691 -133 c 0,48,49
 691 -150 691 -150 671 -154 c 1,50,-1
 195 -154 l 1,51,-1
 125 -259 l 2,52,53
 119 -268 119 -268 108 -268 c 0,54,55
 99 -268 99 -268 92.5 -261.5 c 128,-1,56
 86 -255 86 -255 86 -247 c 0,0,1
EndSplineSet
Validated: 1
EndChar

StartChar: nsubseteqq
Encoding: 8840 8840 14
Width: 799
VWidth: 1000
Flags: W
HStem: -235 43<86.0049 162 228 711.995> -32 43<86.0049 251 317 711.995> 171 43<293.443 343 407 711.995> 731 43<292.574 588 654 711.995>
VStem: 86 43<371.428 575.763>
LayerCount: 2
Fore
SplineSet
121 -331 m 0,0,1
 121 -329 121 -329 123 -323 c 2,2,-1
 162 -235 l 1,3,-1
 106 -235 l 1,4,5
 86 -231 86 -231 86 -214 c 0,6,7
 86 -196 86 -196 106 -192 c 1,8,-1
 181 -192 l 1,9,-1
 251 -32 l 1,10,-1
 106 -32 l 1,11,12
 86 -28 86 -28 86 -11 c 0,13,14
 86 7 86 7 106 11 c 1,15,-1
 270 11 l 1,16,-1
 343 176 l 1,17,18
 233 196 233 196 159.5 279 c 128,-1,19
 86 362 86 362 86 473 c 0,20,21
 86 598 86 598 178 686 c 128,-1,22
 270 774 270 774 397 774 c 2,23,-1
 607 774 l 1,24,-1
 635 839 l 2,25,26
 642 853 642 853 655 853 c 0,27,28
 664 853 664 853 670.5 846.5 c 128,-1,29
 677 840 677 840 677 831 c 0,30,31
 677 829 677 829 675 823 c 2,32,-1
 654 774 l 1,33,-1
 693 774 l 1,34,35
 712 770 712 770 712 753 c 0,36,37
 712 735 712 735 693 731 c 1,38,-1
 635 731 l 1,39,-1
 407 214 l 1,40,-1
 693 214 l 1,41,42
 712 210 712 210 712 193 c 0,43,44
 712 175 712 175 693 171 c 1,45,-1
 388 171 l 1,46,-1
 317 11 l 1,47,-1
 693 11 l 1,48,49
 712 7 712 7 712 -11 c 0,50,51
 712 -28 712 -28 693 -32 c 1,52,-1
 298 -32 l 1,53,-1
 228 -192 l 1,54,-1
 693 -192 l 1,55,56
 712 -196 712 -196 712 -214 c 0,57,58
 712 -231 712 -231 693 -235 c 1,59,-1
 209 -235 l 1,60,-1
 163 -339 l 2,61,62
 156 -353 156 -353 143 -353 c 0,63,64
 134 -353 134 -353 127.5 -346.5 c 128,-1,65
 121 -340 121 -340 121 -331 c 0,0,1
361 217 m 1,66,-1
 588 731 l 1,67,-1
 401 731 l 2,68,69
 290 731 290 731 209.5 656.5 c 128,-1,70
 129 582 129 582 129 473 c 0,71,72
 129 375 129 375 196 302.5 c 128,-1,73
 263 230 263 230 361 217 c 1,66,-1
EndSplineSet
Validated: 1
EndChar

StartChar: nsupseteqq
Encoding: 8841 8841 15
Width: 799
VWidth: 1000
Flags: W
HStem: -235 43<86.0049 162 228 711.995> -32 43<86.0049 251 317 711.995> 171 43<86.0049 341 407 508.236> 731 43<86.0049 506.766>
VStem: 669 43<372.807 574.97>
LayerCount: 2
Fore
SplineSet
121 -331 m 0,0,1
 121 -329 121 -329 123 -323 c 2,2,-1
 162 -235 l 1,3,-1
 106 -235 l 1,4,5
 86 -231 86 -231 86 -214 c 0,6,7
 86 -196 86 -196 106 -192 c 1,8,-1
 181 -192 l 1,9,-1
 251 -32 l 1,10,-1
 106 -32 l 1,11,12
 86 -28 86 -28 86 -11 c 0,13,14
 86 7 86 7 106 11 c 1,15,-1
 270 11 l 1,16,-1
 341 171 l 1,17,-1
 106 171 l 1,18,19
 86 175 86 175 86 193 c 0,20,21
 86 210 86 210 106 214 c 1,22,-1
 360 214 l 1,23,-1
 564 677 l 1,24,25
 492 731 492 731 397 731 c 2,26,-1
 106 731 l 1,27,28
 86 735 86 735 86 753 c 0,29,30
 86 770 86 770 106 774 c 1,31,-1
 401 774 l 2,32,33
 500 774 500 774 582 718 c 1,34,-1
 635 839 l 2,35,36
 642 853 642 853 655 853 c 0,37,38
 664 853 664 853 670.5 846.5 c 128,-1,39
 677 840 677 840 677 831 c 0,40,41
 677 829 677 829 675 823 c 2,42,-1
 616 690 l 1,43,44
 712 602 712 602 712 473 c 0,45,46
 712 347 712 347 620 259 c 128,-1,47
 528 171 528 171 401 171 c 2,48,-1
 388 171 l 1,49,-1
 317 11 l 1,50,-1
 693 11 l 1,51,52
 712 7 712 7 712 -11 c 0,53,54
 712 -28 712 -28 693 -32 c 1,55,-1
 298 -32 l 1,56,-1
 228 -192 l 1,57,-1
 693 -192 l 1,58,59
 712 -196 712 -196 712 -214 c 0,60,61
 712 -231 712 -231 693 -235 c 1,62,-1
 209 -235 l 1,63,-1
 163 -339 l 2,64,65
 156 -353 156 -353 143 -353 c 0,66,67
 134 -353 134 -353 127.5 -346.5 c 128,-1,68
 121 -340 121 -340 121 -331 c 0,0,1
407 214 m 1,69,70
 512 214 512 214 590.5 291 c 128,-1,71
 669 368 669 368 669 473 c 0,72,73
 669 574 669 574 598 648 c 1,74,-1
 407 214 l 1,69,70
EndSplineSet
Validated: 1
EndChar

StartChar: shortbar
Encoding: 8739 8739 16
Width: 228
VWidth: 1000
Flags: W
VStem: 93 43<-21.9814 430.981>
LayerCount: 2
Fore
SplineSet
93 -3 m 1,0,-1
 93 412 l 1,1,2
 97 431 97 431 114 431 c 0,3,4
 130 431 130 431 136 412 c 1,5,-1
 136 -3 l 1,6,7
 130 -22 130 -22 114 -22 c 0,8,9
 97 -22 97 -22 93 -3 c 1,0,-1
EndSplineSet
Validated: 1
EndChar

StartChar: nshortbar
Encoding: 8740 8740 17
Width: 228
VWidth: 1000
Flags: W
VStem: 93 43<-21.9814 196 305 430.981>
LayerCount: 2
Fore
SplineSet
93 -3 m 1,0,-1
 93 196 l 1,1,-1
 16 114 l 2,2,3
 10 108 10 108 0 108 c 0,4,5
 -9 108 -9 108 -15.5 114.5 c 128,-1,6
 -22 121 -22 121 -22 129 c 0,7,8
 -22 136 -22 136 -16 144 c 1,9,-1
 93 259 l 1,10,-1
 93 412 l 1,11,12
 97 431 97 431 114 431 c 0,13,14
 130 431 130 431 136 412 c 1,15,-1
 136 305 l 1,16,-1
 212 386 l 1,17,18
 216 392 216 392 227 392 c 0,19,20
 236 392 236 392 242.5 385.5 c 128,-1,21
 249 379 249 379 249 371 c 0,22,23
 249 364 249 364 243 356 c 1,24,-1
 136 242 l 1,25,-1
 136 -3 l 1,26,27
 130 -22 130 -22 114 -22 c 0,28,29
 97 -22 97 -22 93 -3 c 1,0,-1
EndSplineSet
Validated: 1
EndChar

StartChar: shortparallel
Encoding: 8741 8741 18
Width: 399
VWidth: 1000
Flags: W
VStem: 57 43<-21.9814 430.981> 299 43<-21.9814 430.981>
LayerCount: 2
Fore
SplineSet
57 -3 m 1,0,-1
 57 412 l 1,1,2
 61 431 61 431 78 431 c 0,3,4
 94 431 94 431 100 412 c 1,5,-1
 100 -3 l 1,6,7
 94 -22 94 -22 78 -22 c 0,8,9
 61 -22 61 -22 57 -3 c 1,0,-1
299 -3 m 1,10,-1
 299 412 l 1,11,12
 303 431 303 431 320 431 c 0,13,14
 336 431 336 431 342 412 c 1,15,-1
 342 -3 l 1,16,17
 336 -22 336 -22 320 -22 c 0,18,19
 303 -22 303 -22 299 -3 c 1,10,-1
EndSplineSet
Validated: 1
EndChar

StartChar: nshortparallel
Encoding: 8742 8742 19
Width: 399
VWidth: 1000
Flags: W
VStem: 57 43<-21.9814 139 215 430.995> 299 43<-21.9954 285 361 430.995>
LayerCount: 2
Fore
SplineSet
57 -3 m 1,0,-1
 57 139 l 1,1,-1
 11 111 l 2,2,3
 6 108 6 108 0 108 c 0,4,5
 -9 108 -9 108 -15.5 114.5 c 128,-1,6
 -22 121 -22 121 -22 129 c 0,7,8
 -22 140 -22 140 -13 147 c 1,9,-1
 57 189 l 1,10,-1
 57 412 l 1,11,12
 61 431 61 431 79 431 c 0,13,14
 96 431 96 431 100 412 c 1,15,-1
 100 215 l 1,16,-1
 299 335 l 1,17,-1
 299 412 l 1,18,19
 303 431 303 431 320 431 c 0,20,21
 338 431 338 431 342 412 c 1,22,-1
 342 361 l 1,23,-1
 388 389 l 2,24,25
 392 392 392 392 399 392 c 0,26,27
 408 392 408 392 414.5 385.5 c 128,-1,28
 421 379 421 379 421 371 c 0,29,30
 421 360 421 360 412 353 c 1,31,-1
 342 311 l 1,32,-1
 342 -3 l 1,33,34
 338 -22 338 -22 320 -22 c 0,35,36
 303 -22 303 -22 299 -3 c 1,37,-1
 299 285 l 1,38,-1
 100 165 l 1,39,-1
 100 -3 l 1,40,41
 96 -22 96 -22 79 -22 c 0,42,43
 63 -22 63 -22 57 -3 c 1,0,-1
EndSplineSet
Validated: 1
EndChar

StartChar: emptyset0
Encoding: 8709 8709 20
Width: 513
VWidth: 1000
Flags: W
HStem: -22 25<207.877 304.453> 691 25<207.043 306.644>
VStem: 47 71<146.378 545.163> 345 54<724.756 765.812> 395 71<142.389 540.899>
LayerCount: 2
Fore
SplineSet
174 -2 m 5,0,1
 168 -23 168 -23 167.5 -25 c 128,-1,2
 167 -27 167 -27 161 -48 c 0,3,4
 156 -65 156 -65 151 -71.5 c 128,-1,5
 146 -78 146 -78 135 -78 c 0,6,7
 127 -78 127 -78 120.5 -72 c 128,-1,8
 114 -66 114 -66 114 -56 c 1,9,-1
 137 25 l 1,10,11
 47 105 47 105 47 345 c 0,12,13
 47 516 47 516 91 604 c 1,14,15
 145 716 145 716 257 716 c 0,16,17
 302 716 302 716 339 695 c 1,18,19
 341 702 341 702 342 706.5 c 128,-1,20
 343 711 343 711 344 713 c 128,-1,21
 345 715 345 715 345 716 c 128,-1,22
 345 717 345 717 345 717.5 c 0,23,24
 345 719 345 719 345.5 720 c 128,-1,25
 346 721 346 721 346.5 723.5 c 128,-1,26
 347 726 347 726 348.5 730.5 c 128,-1,27
 350 735 350 735 352 742 c 0,28,29
 356 755 356 755 358.5 759.5 c 128,-1,30
 361 764 361 764 365.5 768 c 128,-1,31
 370 772 370 772 378 772 c 128,-1,32
 386 772 386 772 392.5 766 c 128,-1,33
 399 760 399 760 399 750 c 1,34,-1
 376 669 l 1,35,36
 466 585 466 585 466 345 c 0,37,38
 466 179 466 179 426 94 c 0,39,40
 371 -22 371 -22 256 -22 c 0,41,42
 211 -22 211 -22 174 -2 c 5,0,1
151 73 m 1,43,-1
 329 665 l 1,44,45
 294 691 294 691 257 691 c 0,46,47
 218 691 218 691 183 664 c 128,-1,48
 148 637 148 637 134 578 c 0,49,50
 118 515 118 515 118 357 c 0,51,52
 118 139 118 139 151 73 c 1,43,-1
362 624 m 1,53,-1
 184 31 l 1,54,55
 218 3 218 3 256 3 c 0,56,57
 295 3 295 3 330 32 c 128,-1,58
 365 61 365 61 381 129 c 1,59,60
 395 196 395 196 395 357 c 0,61,62
 395 425 395 425 394 461 c 128,-1,63
 393 497 393 497 385 546 c 128,-1,64
 377 595 377 595 362 624 c 1,53,-1
EndSplineSet
Validated: 1
EndChar

StartChar: accentrvec
Encoding: 8594 8594 21
Width: 500
VWidth: 635
Flags: W
HStem: 230 40<29.0015 384>
VStem: 377 40<290.262 341.781>
LayerCount: 2
Fore
SplineSet
384 230 m 1,0,-1
 64 230 l 2,1,2
 53 230 53 230 47 230.5 c 128,-1,3
 41 231 41 231 35 236 c 128,-1,4
 29 241 29 241 29 250 c 128,-1,5
 29 259 29 259 35 264 c 128,-1,6
 41 269 41 269 47 269.5 c 128,-1,7
 53 270 53 270 64 270 c 2,8,-1
 401 270 l 1,9,10
 391 284 391 284 384 303 c 128,-1,11
 377 322 377 322 377 328 c 0,12,13
 377 335 377 335 382 342 c 128,-1,14
 387 349 387 349 397 349 c 0,15,16
 412 349 412 349 417 327 c 1,17,18
 430 289 430 289 458 270 c 0,19,20
 472 260 472 260 472 250 c 0,21,22
 472 239 472 239 455 229 c 1,23,24
 410 207 410 207 376 164 c 0,25,26
 365 151 365 151 357 151 c 0,27,28
 350 151 350 151 343.5 157 c 128,-1,29
 337 163 337 163 337 171 c 0,30,31
 337 186 337 186 384 230 c 1,0,-1
EndSplineSet
Validated: 19457
EndChar

StartChar: accentlvec
Encoding: 8592 8592 22
Width: 500
VWidth: 635
Flags: W
HStem: 230 40<117 471.999>
VStem: 84 40<158.219 209.738>
LayerCount: 2
Fore
SplineSet
117 270 m 1,0,-1
 437 270 l 2,1,2
 448 270 448 270 454 269.5 c 128,-1,3
 460 269 460 269 466 264 c 128,-1,4
 472 259 472 259 472 250 c 128,-1,5
 472 241 472 241 466 236 c 128,-1,6
 460 231 460 231 454 230.5 c 128,-1,7
 448 230 448 230 437 230 c 2,8,-1
 100 230 l 1,9,10
 110 216 110 216 117 197 c 128,-1,11
 124 178 124 178 124 172 c 0,12,13
 124 165 124 165 119 158 c 128,-1,14
 114 151 114 151 104 151 c 0,15,16
 89 151 89 151 84 173 c 1,17,18
 71 211 71 211 43 230 c 0,19,20
 29 240 29 240 29 250 c 0,21,22
 29 261 29 261 46 271 c 1,23,24
 91 293 91 293 125 336 c 0,25,26
 136 349 136 349 144 349 c 0,27,28
 151 349 151 349 157.5 343 c 128,-1,29
 164 337 164 337 164 329 c 0,30,31
 164 314 164 314 117 270 c 1,0,-1
EndSplineSet
Validated: 19457
EndChar

StartChar: accentlrvec
Encoding: 8596 8596 23
Width: 500
VWidth: 635
Flags: W
HStem: 230 40<117 384>
VStem: 84 40<158.219 209.738> 377 40<290.262 341.781>
LayerCount: 2
Fore
SplineSet
100 230 m 1,0,1
 110 216 110 216 117 197 c 128,-1,2
 124 178 124 178 124 172 c 0,3,4
 124 165 124 165 119 158 c 128,-1,5
 114 151 114 151 104 151 c 0,6,7
 89 151 89 151 84 173 c 1,8,9
 71 211 71 211 43 230 c 0,10,11
 29 240 29 240 29 250 c 0,12,13
 29 261 29 261 46 271 c 1,14,15
 87 291 87 291 125 336 c 0,16,17
 136 349 136 349 144 349 c 0,18,19
 151 349 151 349 157.5 343 c 128,-1,20
 164 337 164 337 164 329 c 0,21,22
 164 314 164 314 117 270 c 1,23,-1
 401 270 l 1,24,25
 391 284 391 284 384 303 c 128,-1,26
 377 322 377 322 377 328 c 0,27,28
 377 335 377 335 382 342 c 128,-1,29
 387 349 387 349 397 349 c 0,30,31
 412 349 412 349 417 327 c 1,32,33
 430 289 430 289 458 270 c 0,34,35
 472 260 472 260 472 250 c 0,36,37
 472 239 472 239 455 229 c 1,38,39
 414 209 414 209 376 164 c 0,40,41
 365 151 365 151 357 151 c 0,42,43
 350 151 350 151 343.5 157 c 128,-1,44
 337 163 337 163 337 171 c 0,45,46
 337 186 337 186 384 230 c 1,47,-1
 100 230 l 1,0,1
EndSplineSet
Validated: 19457
EndChar

StartChar: NameMe.8943
Encoding: 8943 -1 24
Width: 500
VWidth: 707
Flags: W
HStem: 196 108<22.9865 105.438 206.562 289.014 400.986 483.438>
VStem: 7 109<213.017 286.983> 196 109<213.017 286.983> 385 109<213.017 286.983>
CounterMasks: 1 70
LayerCount: 2
Fore
SplineSet
62 196 m 0,0,1
 38 196 38 196 22.5 212.5 c 128,-1,2
 7 229 7 229 7 250 c 128,-1,3
 7 271 7 271 22.5 287.5 c 128,-1,4
 38 304 38 304 62 304 c 0,5,6
 84 304 84 304 100 288 c 128,-1,7
 116 272 116 272 116 250 c 128,-1,8
 116 228 116 228 100 212 c 128,-1,9
 84 196 84 196 62 196 c 0,0,1
250 196 m 0,10,11
 228 196 228 196 212 212 c 128,-1,12
 196 228 196 228 196 250 c 128,-1,13
 196 272 196 272 212 288 c 128,-1,14
 228 304 228 304 250 304 c 0,15,16
 274 304 274 304 289.5 287.5 c 128,-1,17
 305 271 305 271 305 250 c 128,-1,18
 305 229 305 229 289.5 212.5 c 128,-1,19
 274 196 274 196 250 196 c 0,10,11
440 196 m 0,20,21
 416 196 416 196 400.5 212.5 c 128,-1,22
 385 229 385 229 385 250 c 128,-1,23
 385 271 385 271 400 287.5 c 128,-1,24
 415 304 415 304 440 304 c 0,25,26
 462 304 462 304 478 288 c 128,-1,27
 494 272 494 272 494 250 c 128,-1,28
 494 228 494 228 478 212 c 128,-1,29
 462 196 462 196 440 196 c 0,20,21
EndSplineSet
Validated: 19457
EndChar

StartChar: accentddddot
Encoding: 9481 9481 25
Width: 500
VWidth: 707
Flags: W
HStem: 196 108<-77.4375 5.01355 117.471 199.438 300.562 383.014 494.471 577.438>
VStem: -88 109<213.017 287.468> 101 109<212.532 287.468> 290 109<213.017 287.468> 479 109<212.532 287.499>
LayerCount: 2
Fore
SplineSet
-34 196 m 0,0,1
 -56 196 -56 196 -72 212 c 128,-1,2
 -88 228 -88 228 -88 250 c 128,-1,3
 -88 272 -88 272 -72 288 c 128,-1,4
 -56 304 -56 304 -34 304 c 0,5,6
 -8 304 -8 304 6 288 c 0,7,8
 21 271 21 271 21 250 c 128,-1,9
 21 229 21 229 5.5 212.5 c 128,-1,10
 -10 196 -10 196 -34 196 c 0,0,1
156 196 m 0,11,12
 130 196 130 196 116 212 c 0,13,14
 101 229 101 229 101 250 c 128,-1,15
 101 271 101 271 117 288 c 0,16,17
 132 304 132 304 156 304 c 0,18,19
 178 304 178 304 194 288 c 128,-1,20
 210 272 210 272 210 250 c 128,-1,21
 210 228 210 228 194 212 c 128,-1,22
 178 196 178 196 156 196 c 0,11,12
344 196 m 0,23,24
 322 196 322 196 306 212 c 128,-1,25
 290 228 290 228 290 250 c 128,-1,26
 290 272 290 272 306 288 c 128,-1,27
 322 304 322 304 344 304 c 0,28,29
 370 304 370 304 384 288 c 0,30,31
 399 271 399 271 399 250 c 128,-1,32
 399 229 399 229 383.5 212.5 c 128,-1,33
 368 196 368 196 344 196 c 0,23,24
534 196 m 0,34,35
 508 196 508 196 494 212 c 0,36,37
 479 229 479 229 479 250 c 0,38,39
 479 272 479 272 494 288 c 128,-1,40
 509 304 509 304 534 304 c 0,41,42
 556 304 556 304 572 288 c 128,-1,43
 588 272 588 272 588 250 c 128,-1,44
 588 228 588 228 572 212 c 128,-1,45
 556 196 556 196 534 196 c 0,34,35
EndSplineSet
Validated: 19457
EndChar

StartChar: accenttie
Encoding: 8256 8256 26
Width: 500
VWidth: 1000
Flags: W
HStem: 538 21G<311 320.5 670.5 684> 634 31<421.91 612.513>
VStem: 305 24<538.003 568.235> 664 27<538.025 594.353>
LayerCount: 2
Fore
SplineSet
664 549 m 1,0,-1
 666 561 l 1,1,2
 666 590 666 590 626.5 612 c 128,-1,3
 587 634 587 634 520 634 c 0,4,5
 462 634 462 634 404.5 613 c 128,-1,6
 347 592 347 592 329 548 c 0,7,8
 324 538 324 538 317 538 c 0,9,10
 305 538 305 538 305 549 c 0,11,12
 305 582 305 582 366 623.5 c 128,-1,13
 427 665 427 665 523 665 c 0,14,15
 601 665 601 665 646 635 c 128,-1,16
 691 605 691 605 691 564 c 0,17,18
 691 538 691 538 677 538 c 0,19,20
 664 538 664 538 664 549 c 1,0,-1
EndSplineSet
Validated: 19457
EndChar

StartChar: int
Encoding: 8747 8747 27
Width: 469
VWidth: 2418
Flags: W
HStem: -215 13<52.2333 90.8959> -189 48<45 60.7805> 755 48<407.704 424> 816 13<386.427 416.811>
VStem: 20 48<-181.781 -148.219> 401 48<762.219 795.781>
LayerCount: 2
Fore
SplineSet
45 -189 m 1,0,1
 56 -202 56 -202 74 -202 c 0,2,3
 84 -202 84 -202 93.5 -193.5 c 128,-1,4
 103 -185 103 -185 110.5 -168 c 128,-1,5
 118 -151 118 -151 124.5 -135 c 128,-1,6
 131 -119 131 -119 137 -95 c 128,-1,7
 143 -71 143 -71 146 -57.5 c 128,-1,8
 149 -44 149 -44 153.5 -23 c 128,-1,9
 158 -2 158 -2 158 -1 c 0,10,11
 169 48 169 48 186 145 c 0,12,13
 202 243 202 243 216 308 c 0,14,15
 254 486 254 486 286 617 c 1,16,17
 317 743 317 743 343 787 c 0,18,19
 368 829 368 829 395 829 c 0,20,21
 417 829 417 829 433 814.5 c 128,-1,22
 449 800 449 800 449 779 c 0,23,24
 449 769 449 769 442 762 c 128,-1,25
 435 755 435 755 425 755 c 0,26,27
 414 755 414 755 407.5 761.5 c 128,-1,28
 401 768 401 768 401 779 c 0,29,30
 401 789 401 789 407.5 796 c 128,-1,31
 414 803 414 803 424 803 c 1,32,33
 413 816 413 816 396 816 c 0,34,35
 384 816 384 816 369.5 776 c 128,-1,36
 355 736 355 736 340.5 668.5 c 128,-1,37
 326 601 326 601 314 538 c 128,-1,38
 302 475 302 475 289 402 c 0,39,40
 276 327 276 327 271 306 c 0,41,42
 238 150 238 150 200 -3 c 0,43,44
 172 -116 172 -116 148 -159 c 0,45,46
 117 -215 117 -215 74 -215 c 0,47,48
 52 -215 52 -215 36 -200.5 c 128,-1,49
 20 -186 20 -186 20 -165 c 0,50,51
 20 -154 20 -154 27 -147.5 c 128,-1,52
 34 -141 34 -141 44 -141 c 128,-1,53
 54 -141 54 -141 61 -148 c 128,-1,54
 68 -155 68 -155 68 -165 c 128,-1,55
 68 -175 68 -175 61.5 -182 c 128,-1,56
 55 -189 55 -189 45 -189 c 1,0,1
EndSplineSet
Validated: 19457
EndChar

StartChar: oint
Encoding: 8750 8750 28
Width: 469
VWidth: 2418
Flags: W
HStem: -215 13<52.2333 90.8959> -189 48<45 60.7805> 176 21<247 291.676> 417 21<195.324 240> 755 48<407.704 424> 816 13<385.421 416.767>
VStem: 20 48<-181.781 -148.219> 113 20<261.521 352.887> 354 20<261.113 352.479> 401 48<762.219 795.781>
LayerCount: 2
Fore
SplineSet
45 -189 m 1,0,1
 56 -202 56 -202 74 -202 c 0,2,3
 84 -202 84 -202 93.5 -193.5 c 128,-1,4
 103 -185 103 -185 110.5 -168 c 128,-1,5
 118 -151 118 -151 124.5 -135 c 128,-1,6
 131 -119 131 -119 137 -95 c 128,-1,7
 143 -71 143 -71 146 -57.5 c 128,-1,8
 149 -44 149 -44 153.5 -23 c 128,-1,9
 158 -2 158 -2 158 -1 c 0,10,11
 162 16 162 16 193 186 c 1,12,13
 157 201 157 201 135 234.5 c 128,-1,14
 113 268 113 268 113 307 c 0,15,16
 113 361 113 361 151.5 399.5 c 128,-1,17
 190 438 190 438 244 438 c 1,18,19
 261 517 261 517 286 617 c 0,20,21
 317 743 317 743 343 787 c 0,22,23
 368 829 368 829 395 829 c 0,24,25
 417 829 417 829 433 814.5 c 128,-1,26
 449 800 449 800 449 779 c 0,27,28
 449 769 449 769 442 762 c 128,-1,29
 435 755 435 755 425 755 c 0,30,31
 414 755 414 755 407.5 761.5 c 128,-1,32
 401 768 401 768 401 779 c 0,33,34
 401 789 401 789 407.5 796 c 128,-1,35
 414 803 414 803 424 803 c 1,36,37
 413 816 413 816 395 816 c 0,38,39
 387 816 387 816 378.5 798.5 c 128,-1,40
 370 781 370 781 361 749 c 128,-1,41
 352 717 352 717 343.5 683 c 128,-1,42
 335 649 335 649 326.5 605 c 128,-1,43
 318 561 318 561 312.5 532 c 128,-1,44
 307 503 307 503 301 467.5 c 128,-1,45
 295 432 295 432 294 428 c 1,46,47
 330 413 330 413 352 379.5 c 128,-1,48
 374 346 374 346 374 307 c 0,49,50
 374 253 374 253 335.5 214.5 c 128,-1,51
 297 176 297 176 243 176 c 1,52,53
 226 98 226 98 200 -3 c 1,54,55
 172 -116 172 -116 148 -159 c 0,56,57
 117 -215 117 -215 74 -215 c 0,58,59
 52 -215 52 -215 36 -200.5 c 128,-1,60
 20 -186 20 -186 20 -165 c 0,61,62
 20 -154 20 -154 27 -147.5 c 128,-1,63
 34 -141 34 -141 44 -141 c 128,-1,64
 54 -141 54 -141 61 -148 c 128,-1,65
 68 -155 68 -155 68 -165 c 128,-1,66
 68 -175 68 -175 61.5 -182 c 128,-1,67
 55 -189 55 -189 45 -189 c 1,0,1
247 197 m 1,68,69
 291 197 291 197 322.5 230 c 128,-1,70
 354 263 354 263 354 307 c 0,71,72
 354 339 354 339 336.5 366.5 c 128,-1,73
 319 394 319 394 290 407 c 1,74,75
 268 290 268 290 247 197 c 1,68,69
197 207 m 1,76,77
 219 324 219 324 240 417 c 1,78,79
 196 417 196 417 164.5 384 c 128,-1,80
 133 351 133 351 133 307 c 0,81,82
 133 275 133 275 150.5 247.5 c 128,-1,83
 168 220 168 220 197 207 c 1,76,77
EndSplineSet
Validated: 19457
EndChar

StartChar: iint
Encoding: 8748 8748 29
Width: 639
VWidth: 2418
Flags: W
HStem: -215 13<52.2333 90.7341 222.233 260.734> -189 48<45 60.7805 215 230.781> 755 48<407.704 424 577.704 594> 816 13<386.427 416.811 556.427 586.811>
VStem: 20 48<-181.781 -148.219> 190 48<-181.781 -148.219> 401 48<762.219 795.781> 571 48<762.219 795.781>
LayerCount: 2
Fore
SplineSet
215 -189 m 1,0,1
 226 -202 226 -202 244 -202 c 0,2,3
 254 -202 254 -202 263.5 -193.5 c 128,-1,4
 273 -185 273 -185 280.5 -168 c 128,-1,5
 288 -151 288 -151 294.5 -135 c 128,-1,6
 301 -119 301 -119 307 -95 c 128,-1,7
 313 -71 313 -71 316 -57.5 c 128,-1,8
 319 -44 319 -44 323.5 -23 c 128,-1,9
 328 -2 328 -2 328 -1 c 0,10,11
 339 48 339 48 355.5 145 c 128,-1,12
 372 242 372 242 386 308 c 0,13,14
 420 468 420 468 456 617 c 1,15,16
 487 743 487 743 513 787 c 0,17,18
 538 829 538 829 565 829 c 0,19,20
 587 829 587 829 603 814.5 c 128,-1,21
 619 800 619 800 619 779 c 0,22,23
 619 769 619 769 612 762 c 128,-1,24
 605 755 605 755 595 755 c 0,25,26
 584 755 584 755 577.5 761.5 c 128,-1,27
 571 768 571 768 571 779 c 0,28,29
 571 789 571 789 577.5 796 c 128,-1,30
 584 803 584 803 594 803 c 1,31,32
 583 816 583 816 566 816 c 0,33,34
 554 816 554 816 539.5 776 c 128,-1,35
 525 736 525 736 510.5 668.5 c 128,-1,36
 496 601 496 601 484 538 c 128,-1,37
 472 475 472 475 459 402.5 c 128,-1,38
 446 330 446 330 441 306 c 0,39,40
 413 174 413 174 370 -3 c 0,41,42
 342 -116 342 -116 318 -159 c 0,43,44
 286 -215 286 -215 244 -215 c 0,45,46
 222 -215 222 -215 206 -200.5 c 128,-1,47
 190 -186 190 -186 190 -165 c 0,48,49
 190 -154 190 -154 197 -147.5 c 128,-1,50
 204 -141 204 -141 214 -141 c 128,-1,51
 224 -141 224 -141 231 -148 c 128,-1,52
 238 -155 238 -155 238 -165 c 128,-1,53
 238 -175 238 -175 231.5 -182 c 128,-1,54
 225 -189 225 -189 215 -189 c 1,0,1
45 -189 m 1,55,56
 56 -202 56 -202 74 -202 c 0,57,58
 84 -202 84 -202 93.5 -193.5 c 128,-1,59
 103 -185 103 -185 110.5 -168 c 128,-1,60
 118 -151 118 -151 124.5 -135 c 128,-1,61
 131 -119 131 -119 137 -95 c 128,-1,62
 143 -71 143 -71 146 -57.5 c 128,-1,63
 149 -44 149 -44 153.5 -23 c 128,-1,64
 158 -2 158 -2 158 -1 c 0,65,66
 169 48 169 48 185.5 145 c 128,-1,67
 202 242 202 242 216 308 c 0,68,69
 250 468 250 468 286 617 c 1,70,71
 317 743 317 743 343 787 c 0,72,73
 368 829 368 829 395 829 c 0,74,75
 417 829 417 829 433 814.5 c 128,-1,76
 449 800 449 800 449 779 c 0,77,78
 449 769 449 769 442 762 c 128,-1,79
 435 755 435 755 425 755 c 0,80,81
 414 755 414 755 407.5 761.5 c 128,-1,82
 401 768 401 768 401 779 c 0,83,84
 401 789 401 789 407.5 796 c 128,-1,85
 414 803 414 803 424 803 c 1,86,87
 413 816 413 816 396 816 c 0,88,89
 384 816 384 816 369.5 776 c 128,-1,90
 355 736 355 736 340.5 668.5 c 128,-1,91
 326 601 326 601 314 538 c 128,-1,92
 302 475 302 475 289 402.5 c 128,-1,93
 276 330 276 330 271 306 c 0,94,95
 243 174 243 174 200 -3 c 0,96,97
 172 -116 172 -116 148 -159 c 0,98,99
 116 -215 116 -215 74 -215 c 0,100,101
 52 -215 52 -215 36 -200.5 c 128,-1,102
 20 -186 20 -186 20 -165 c 0,103,104
 20 -154 20 -154 27 -147.5 c 128,-1,105
 34 -141 34 -141 44 -141 c 128,-1,106
 54 -141 54 -141 61 -148 c 128,-1,107
 68 -155 68 -155 68 -165 c 128,-1,108
 68 -175 68 -175 61.5 -182 c 128,-1,109
 55 -189 55 -189 45 -189 c 1,55,56
EndSplineSet
Validated: 19457
EndChar

StartChar: iiint
Encoding: 8749 8749 30
Width: 809
VWidth: 2418
Flags: W
HStem: -215 13<52.2333 90.7341 222.233 260.734 392.233 430.734> -189 48<45 60.7805 215 230.781 385 400.781> 755 48<407.704 424 577.704 594 747.704 764> 816 13<386.427 416.811 556.427 586.811 726.427 756.811>
VStem: 20 48<-181.781 -148.219> 190 48<-181.781 -148.219> 360 48<-181.781 -148.219> 401 48<762.219 795.781> 571 48<762.219 795.781> 741 48<762.219 795.781>
LayerCount: 2
Fore
SplineSet
385 -189 m 1,0,1
 396 -202 396 -202 414 -202 c 0,2,3
 424 -202 424 -202 433.5 -193.5 c 128,-1,4
 443 -185 443 -185 450.5 -168 c 128,-1,5
 458 -151 458 -151 464.5 -135 c 128,-1,6
 471 -119 471 -119 477 -95 c 128,-1,7
 483 -71 483 -71 486 -57.5 c 128,-1,8
 489 -44 489 -44 493.5 -23 c 128,-1,9
 498 -2 498 -2 498 -1 c 0,10,11
 509 48 509 48 525.5 145 c 128,-1,12
 542 242 542 242 556 308 c 0,13,14
 590 468 590 468 626 617 c 1,15,16
 657 743 657 743 683 787 c 0,17,18
 708 829 708 829 735 829 c 0,19,20
 757 829 757 829 773 814.5 c 128,-1,21
 789 800 789 800 789 779 c 0,22,23
 789 769 789 769 782 762 c 128,-1,24
 775 755 775 755 765 755 c 0,25,26
 754 755 754 755 747.5 761.5 c 128,-1,27
 741 768 741 768 741 779 c 0,28,29
 741 789 741 789 747.5 796 c 128,-1,30
 754 803 754 803 764 803 c 1,31,32
 753 816 753 816 736 816 c 0,33,34
 724 816 724 816 709.5 776 c 128,-1,35
 695 736 695 736 680.5 668.5 c 128,-1,36
 666 601 666 601 654 538 c 128,-1,37
 642 475 642 475 629 402.5 c 128,-1,38
 616 330 616 330 611 306 c 0,39,40
 583 174 583 174 540 -3 c 0,41,42
 512 -116 512 -116 488 -159 c 0,43,44
 456 -215 456 -215 414 -215 c 0,45,46
 392 -215 392 -215 376 -200.5 c 128,-1,47
 360 -186 360 -186 360 -165 c 0,48,49
 360 -154 360 -154 367 -147.5 c 128,-1,50
 374 -141 374 -141 384 -141 c 128,-1,51
 394 -141 394 -141 401 -148 c 128,-1,52
 408 -155 408 -155 408 -165 c 128,-1,53
 408 -175 408 -175 401.5 -182 c 128,-1,54
 395 -189 395 -189 385 -189 c 1,0,1
215 -189 m 1,55,56
 226 -202 226 -202 244 -202 c 0,57,58
 254 -202 254 -202 263.5 -193.5 c 128,-1,59
 273 -185 273 -185 280.5 -168 c 128,-1,60
 288 -151 288 -151 294.5 -135 c 128,-1,61
 301 -119 301 -119 307 -95 c 128,-1,62
 313 -71 313 -71 316 -57.5 c 128,-1,63
 319 -44 319 -44 323.5 -23 c 128,-1,64
 328 -2 328 -2 328 -1 c 0,65,66
 339 48 339 48 355.5 145 c 128,-1,67
 372 242 372 242 386 308 c 0,68,69
 420 468 420 468 456 617 c 1,70,71
 487 743 487 743 513 787 c 0,72,73
 538 829 538 829 565 829 c 0,74,75
 587 829 587 829 603 814.5 c 128,-1,76
 619 800 619 800 619 779 c 0,77,78
 619 769 619 769 612 762 c 128,-1,79
 605 755 605 755 595 755 c 0,80,81
 584 755 584 755 577.5 761.5 c 128,-1,82
 571 768 571 768 571 779 c 0,83,84
 571 789 571 789 577.5 796 c 128,-1,85
 584 803 584 803 594 803 c 1,86,87
 583 816 583 816 566 816 c 0,88,89
 554 816 554 816 539.5 776 c 128,-1,90
 525 736 525 736 510.5 668.5 c 128,-1,91
 496 601 496 601 484 538 c 128,-1,92
 472 475 472 475 459 402.5 c 128,-1,93
 446 330 446 330 441 306 c 0,94,95
 413 174 413 174 370 -3 c 0,96,97
 342 -116 342 -116 318 -159 c 0,98,99
 286 -215 286 -215 244 -215 c 0,100,101
 222 -215 222 -215 206 -200.5 c 128,-1,102
 190 -186 190 -186 190 -165 c 0,103,104
 190 -154 190 -154 197 -147.5 c 128,-1,105
 204 -141 204 -141 214 -141 c 128,-1,106
 224 -141 224 -141 231 -148 c 128,-1,107
 238 -155 238 -155 238 -165 c 128,-1,108
 238 -175 238 -175 231.5 -182 c 128,-1,109
 225 -189 225 -189 215 -189 c 1,55,56
45 -189 m 1,110,111
 56 -202 56 -202 74 -202 c 0,112,113
 84 -202 84 -202 93.5 -193.5 c 128,-1,114
 103 -185 103 -185 110.5 -168 c 128,-1,115
 118 -151 118 -151 124.5 -135 c 128,-1,116
 131 -119 131 -119 137 -95 c 128,-1,117
 143 -71 143 -71 146 -57.5 c 128,-1,118
 149 -44 149 -44 153.5 -23 c 128,-1,119
 158 -2 158 -2 158 -1 c 0,120,121
 169 48 169 48 185.5 145 c 128,-1,122
 202 242 202 242 216 308 c 0,123,124
 250 468 250 468 286 617 c 1,125,126
 317 743 317 743 343 787 c 0,127,128
 368 829 368 829 395 829 c 0,129,130
 417 829 417 829 433 814.5 c 128,-1,131
 449 800 449 800 449 779 c 0,132,133
 449 769 449 769 442 762 c 128,-1,134
 435 755 435 755 425 755 c 0,135,136
 414 755 414 755 407.5 761.5 c 128,-1,137
 401 768 401 768 401 779 c 0,138,139
 401 789 401 789 407.5 796 c 128,-1,140
 414 803 414 803 424 803 c 1,141,142
 413 816 413 816 396 816 c 0,143,144
 384 816 384 816 369.5 776 c 128,-1,145
 355 736 355 736 340.5 668.5 c 128,-1,146
 326 601 326 601 314 538 c 128,-1,147
 302 475 302 475 289 402.5 c 128,-1,148
 276 330 276 330 271 306 c 0,149,150
 243 174 243 174 200 -3 c 0,151,152
 172 -116 172 -116 148 -159 c 0,153,154
 116 -215 116 -215 74 -215 c 0,155,156
 52 -215 52 -215 36 -200.5 c 128,-1,157
 20 -186 20 -186 20 -165 c 0,158,159
 20 -154 20 -154 27 -147.5 c 128,-1,160
 34 -141 34 -141 44 -141 c 128,-1,161
 54 -141 54 -141 61 -148 c 128,-1,162
 68 -155 68 -155 68 -165 c 128,-1,163
 68 -175 68 -175 61.5 -182 c 128,-1,164
 55 -189 55 -189 45 -189 c 1,110,111
EndSplineSet
Validated: 19457
EndChar

StartChar: iiiint
Encoding: 10764 10764 31
Width: 979
VWidth: 2418
Flags: W
HStem: -215 13<52.2333 90.7341 222.233 260.734 392.233 430.734 562.233 600.734> -189 48<45 60.7805 215 230.781 385 400.781 555 570.781> 755 48<407.704 424 577.704 594 747.704 764 917.704 934> 816 13<386.427 416.811 556.427 586.811 726.427 756.811 896.427 926.811>
VStem: 20 48<-181.781 -148.219> 190 48<-181.781 -148.219> 360 48<-181.781 -148.219> 401 48<762.219 795.781> 530 48<-181.781 -148.219> 571 48<762.219 795.781> 741 48<762.219 795.781> 911 48<762.219 795.781>
LayerCount: 2
Fore
SplineSet
555 -189 m 1,0,1
 566 -202 566 -202 584 -202 c 0,2,3
 594 -202 594 -202 603.5 -193.5 c 128,-1,4
 613 -185 613 -185 620.5 -168 c 128,-1,5
 628 -151 628 -151 634.5 -135 c 128,-1,6
 641 -119 641 -119 647 -95 c 128,-1,7
 653 -71 653 -71 656 -57.5 c 128,-1,8
 659 -44 659 -44 663.5 -23 c 128,-1,9
 668 -2 668 -2 668 -1 c 0,10,11
 679 48 679 48 695.5 145 c 128,-1,12
 712 242 712 242 726 308 c 0,13,14
 760 468 760 468 796 617 c 1,15,16
 827 743 827 743 853 787 c 0,17,18
 878 829 878 829 905 829 c 0,19,20
 927 829 927 829 943 814.5 c 128,-1,21
 959 800 959 800 959 779 c 0,22,23
 959 769 959 769 952 762 c 128,-1,24
 945 755 945 755 935 755 c 0,25,26
 924 755 924 755 917.5 761.5 c 128,-1,27
 911 768 911 768 911 779 c 0,28,29
 911 789 911 789 917.5 796 c 128,-1,30
 924 803 924 803 934 803 c 1,31,32
 923 816 923 816 906 816 c 0,33,34
 894 816 894 816 879.5 776 c 128,-1,35
 865 736 865 736 850.5 668.5 c 128,-1,36
 836 601 836 601 824 538 c 128,-1,37
 812 475 812 475 799 402.5 c 128,-1,38
 786 330 786 330 781 306 c 0,39,40
 753 174 753 174 710 -3 c 0,41,42
 682 -116 682 -116 658 -159 c 0,43,44
 626 -215 626 -215 584 -215 c 0,45,46
 562 -215 562 -215 546 -200.5 c 128,-1,47
 530 -186 530 -186 530 -165 c 0,48,49
 530 -154 530 -154 537 -147.5 c 128,-1,50
 544 -141 544 -141 554 -141 c 128,-1,51
 564 -141 564 -141 571 -148 c 128,-1,52
 578 -155 578 -155 578 -165 c 128,-1,53
 578 -175 578 -175 571.5 -182 c 128,-1,54
 565 -189 565 -189 555 -189 c 1,0,1
385 -189 m 1,55,56
 396 -202 396 -202 414 -202 c 0,57,58
 424 -202 424 -202 433.5 -193.5 c 128,-1,59
 443 -185 443 -185 450.5 -168 c 128,-1,60
 458 -151 458 -151 464.5 -135 c 128,-1,61
 471 -119 471 -119 477 -95 c 128,-1,62
 483 -71 483 -71 486 -57.5 c 128,-1,63
 489 -44 489 -44 493.5 -23 c 128,-1,64
 498 -2 498 -2 498 -1 c 0,65,66
 509 48 509 48 525.5 145 c 128,-1,67
 542 242 542 242 556 308 c 0,68,69
 590 468 590 468 626 617 c 1,70,71
 657 743 657 743 683 787 c 0,72,73
 708 829 708 829 735 829 c 0,74,75
 757 829 757 829 773 814.5 c 128,-1,76
 789 800 789 800 789 779 c 0,77,78
 789 769 789 769 782 762 c 128,-1,79
 775 755 775 755 765 755 c 0,80,81
 754 755 754 755 747.5 761.5 c 128,-1,82
 741 768 741 768 741 779 c 0,83,84
 741 789 741 789 747.5 796 c 128,-1,85
 754 803 754 803 764 803 c 1,86,87
 753 816 753 816 736 816 c 0,88,89
 724 816 724 816 709.5 776 c 128,-1,90
 695 736 695 736 680.5 668.5 c 128,-1,91
 666 601 666 601 654 538 c 128,-1,92
 642 475 642 475 629 402.5 c 128,-1,93
 616 330 616 330 611 306 c 0,94,95
 583 174 583 174 540 -3 c 0,96,97
 512 -116 512 -116 488 -159 c 0,98,99
 456 -215 456 -215 414 -215 c 0,100,101
 392 -215 392 -215 376 -200.5 c 128,-1,102
 360 -186 360 -186 360 -165 c 0,103,104
 360 -154 360 -154 367 -147.5 c 128,-1,105
 374 -141 374 -141 384 -141 c 128,-1,106
 394 -141 394 -141 401 -148 c 128,-1,107
 408 -155 408 -155 408 -165 c 128,-1,108
 408 -175 408 -175 401.5 -182 c 128,-1,109
 395 -189 395 -189 385 -189 c 1,55,56
215 -189 m 1,110,111
 226 -202 226 -202 244 -202 c 0,112,113
 254 -202 254 -202 263.5 -193.5 c 128,-1,114
 273 -185 273 -185 280.5 -168 c 128,-1,115
 288 -151 288 -151 294.5 -135 c 128,-1,116
 301 -119 301 -119 307 -95 c 128,-1,117
 313 -71 313 -71 316 -57.5 c 128,-1,118
 319 -44 319 -44 323.5 -23 c 128,-1,119
 328 -2 328 -2 328 -1 c 0,120,121
 339 48 339 48 355.5 145 c 128,-1,122
 372 242 372 242 386 308 c 0,123,124
 420 468 420 468 456 617 c 1,125,126
 487 743 487 743 513 787 c 0,127,128
 538 829 538 829 565 829 c 0,129,130
 587 829 587 829 603 814.5 c 128,-1,131
 619 800 619 800 619 779 c 0,132,133
 619 769 619 769 612 762 c 128,-1,134
 605 755 605 755 595 755 c 0,135,136
 584 755 584 755 577.5 761.5 c 128,-1,137
 571 768 571 768 571 779 c 0,138,139
 571 789 571 789 577.5 796 c 128,-1,140
 584 803 584 803 594 803 c 1,141,142
 583 816 583 816 566 816 c 0,143,144
 554 816 554 816 539.5 776 c 128,-1,145
 525 736 525 736 510.5 668.5 c 128,-1,146
 496 601 496 601 484 538 c 128,-1,147
 472 475 472 475 459 402.5 c 128,-1,148
 446 330 446 330 441 306 c 0,149,150
 413 174 413 174 370 -3 c 0,151,152
 342 -116 342 -116 318 -159 c 0,153,154
 286 -215 286 -215 244 -215 c 0,155,156
 222 -215 222 -215 206 -200.5 c 128,-1,157
 190 -186 190 -186 190 -165 c 0,158,159
 190 -154 190 -154 197 -147.5 c 128,-1,160
 204 -141 204 -141 214 -141 c 128,-1,161
 224 -141 224 -141 231 -148 c 128,-1,162
 238 -155 238 -155 238 -165 c 128,-1,163
 238 -175 238 -175 231.5 -182 c 128,-1,164
 225 -189 225 -189 215 -189 c 1,110,111
45 -189 m 1,165,166
 56 -202 56 -202 74 -202 c 0,167,168
 84 -202 84 -202 93.5 -193.5 c 128,-1,169
 103 -185 103 -185 110.5 -168 c 128,-1,170
 118 -151 118 -151 124.5 -135 c 128,-1,171
 131 -119 131 -119 137 -95 c 128,-1,172
 143 -71 143 -71 146 -57.5 c 128,-1,173
 149 -44 149 -44 153.5 -23 c 128,-1,174
 158 -2 158 -2 158 -1 c 0,175,176
 169 48 169 48 185.5 145 c 128,-1,177
 202 242 202 242 216 308 c 0,178,179
 250 468 250 468 286 617 c 1,180,181
 317 743 317 743 343 787 c 0,182,183
 368 829 368 829 395 829 c 0,184,185
 417 829 417 829 433 814.5 c 128,-1,186
 449 800 449 800 449 779 c 0,187,188
 449 769 449 769 442 762 c 128,-1,189
 435 755 435 755 425 755 c 0,190,191
 414 755 414 755 407.5 761.5 c 128,-1,192
 401 768 401 768 401 779 c 0,193,194
 401 789 401 789 407.5 796 c 128,-1,195
 414 803 414 803 424 803 c 1,196,197
 413 816 413 816 396 816 c 0,198,199
 384 816 384 816 369.5 776 c 128,-1,200
 355 736 355 736 340.5 668.5 c 128,-1,201
 326 601 326 601 314 538 c 128,-1,202
 302 475 302 475 289 402.5 c 128,-1,203
 276 330 276 330 271 306 c 0,204,205
 243 174 243 174 200 -3 c 0,206,207
 172 -116 172 -116 148 -159 c 0,208,209
 116 -215 116 -215 74 -215 c 0,210,211
 52 -215 52 -215 36 -200.5 c 128,-1,212
 20 -186 20 -186 20 -165 c 0,213,214
 20 -154 20 -154 27 -147.5 c 128,-1,215
 34 -141 34 -141 44 -141 c 128,-1,216
 54 -141 54 -141 61 -148 c 128,-1,217
 68 -155 68 -155 68 -165 c 128,-1,218
 68 -175 68 -175 61.5 -182 c 128,-1,219
 55 -189 55 -189 45 -189 c 1,165,166
EndSplineSet
Validated: 19457
EndChar

StartChar: A
Encoding: 65 65 32
Width: 722
VWidth: 1000
Flags: W
HStem: 0 35<17.0205 77.2554 109 163 194.369 243.992 375.017 443.285 477 619 652.099 702.992> 197 35<208 404>
VStem: 149 35<44.0342 119>
LayerCount: 2
Fore
SplineSet
367 682 m 2,0,-1
 622 101 l 2,1,2
 649 41 649 41 681 35 c 1,3,4
 703 33 703 33 703 18 c 0,5,6
 703 6 703 6 694.5 3 c 128,-1,7
 686 0 686 0 669 0 c 2,8,-1
 408 0 l 2,9,10
 396 0 396 0 390.5 0.5 c 128,-1,11
 385 1 385 1 380 5.5 c 128,-1,12
 375 10 375 10 375 18 c 0,13,14
 375 33 375 33 392 35 c 0,15,16
 432 39 432 39 455 62 c 1,17,18
 453 98 453 98 418 197 c 1,19,-1
 198 197 l 1,20,21
 184 133 184 133 184 100 c 0,22,23
 184 38 184 38 223 35 c 1,24,25
 244 32 244 32 244 18 c 0,26,27
 244 6 244 6 236 3 c 128,-1,28
 228 0 228 0 211 0 c 2,29,-1
 51 0 l 2,30,31
 39 0 39 0 33.5 0.5 c 128,-1,32
 28 1 28 1 22.5 5.5 c 128,-1,33
 17 10 17 10 17 18 c 0,34,35
 17 35 17 35 38 35 c 1,36,37
 81 40 81 40 98 85 c 2,38,-1
 326 683 l 2,39,40
 335 704 335 704 347 704 c 0,41,42
 355 704 355 704 358 700 c 128,-1,43
 361 696 361 696 367 682 c 2,0,-1
208 232 m 1,44,-1
 404 232 l 1,45,46
 361 349 361 349 296 489 c 1,47,48
 234 331 234 331 208 232 c 1,44,-1
149 120 m 1,49,-1
 132 77 l 2,50,51
 121 48 121 48 109 35 c 1,52,-1
 163 35 l 1,53,54
 149 58 149 58 149 100 c 0,55,56
 149 107 149 107 150 109 c 1,57,-1
 150 119 l 1,58,-1
 149 120 l 1,49,-1
311 543 m 1,59,-1
 360 431 l 1,60,61
 490 129 490 129 490 67 c 0,62,63
 490 43 490 43 477 35 c 1,64,-1
 619 35 l 1,65,66
 602 57 602 57 590 87 c 1,67,-1
 347 640 l 1,68,-1
 311 543 l 1,59,-1
EndSplineSet
Validated: 19457
EndChar

StartChar: B
Encoding: 66 66 34
Width: 666
VWidth: 1000
Flags: W
HStem: 0 35<9.01208 94.1632 131 240 270.564 391.219> 337 35<262 357.509> 650 35<9.0083 94.6794 131 240 276.749 369.394>
VStem: 105 35<44.8041 639.681> 227 35<44.1875 337 372 637.651> 418 35<426.289 596.73> 449 35<96.8438 282.627> 548 35<458.961 585.82> 586 35<122.75 257.949>
LayerCount: 2
Fore
SplineSet
140 594 m 2,0,-1
 140 91 l 2,1,2
 140 53 140 53 131 35 c 1,3,-1
 240 35 l 1,4,5
 227 51 227 51 227 86 c 2,6,-1
 227 599 l 2,7,8
 227 634 227 634 240 650 c 1,9,-1
 131 650 l 1,10,11
 140 632 140 632 140 594 c 2,0,-1
412 384 m 1,12,13
 465 395 465 395 506.5 431.5 c 128,-1,14
 548 468 548 468 548 514 c 0,15,16
 548 581 548 581 509.5 610 c 128,-1,17
 471 639 471 639 408 646 c 1,18,19
 453 599 453 599 453 510 c 0,20,21
 453 424 453 424 412 384 c 1,12,13
262 596 m 2,22,-1
 262 372 l 1,23,24
 343 374 343 374 380.5 402.5 c 128,-1,25
 418 431 418 431 418 510 c 0,26,27
 418 582 418 582 388 616 c 128,-1,28
 358 650 358 650 319 650 c 0,29,30
 300 650 300 650 276 638 c 1,31,32
 262 627 262 627 262 596 c 2,22,-1
472 367 m 1,33,34
 534 350 534 350 577.5 304.5 c 128,-1,35
 621 259 621 259 621 187 c 0,36,37
 621 137 621 137 595 99.5 c 128,-1,38
 569 62 569 62 526 41 c 128,-1,39
 483 20 483 20 436 10 c 128,-1,40
 389 0 389 0 340 0 c 2,41,-1
 43 0 l 2,42,43
 31 0 31 0 25.5 0.5 c 128,-1,44
 20 1 20 1 14.5 5.5 c 128,-1,45
 9 10 9 10 9 18 c 0,46,47
 9 35 9 35 38 35 c 0,48,49
 84 35 84 35 94.5 44.5 c 128,-1,50
 105 54 105 54 105 93 c 2,51,-1
 105 592 l 2,52,53
 105 630 105 630 95 640 c 128,-1,54
 85 650 85 650 42 650 c 0,55,56
 9 650 9 650 9 667 c 0,57,58
 9 679 9 679 17.5 682 c 128,-1,59
 26 685 26 685 43 685 c 2,60,-1
 346 685 l 2,61,62
 583 685 583 685 583 514 c 0,63,64
 583 467 583 467 551.5 429.5 c 128,-1,65
 520 392 520 392 472 367 c 1,33,34
262 89 m 2,66,67
 262 78 262 78 263 71.5 c 128,-1,68
 264 65 264 65 269 55 c 128,-1,69
 274 45 274 45 287 40 c 128,-1,70
 300 35 300 35 321 35 c 0,71,72
 449 35 449 35 449 187 c 0,73,74
 449 282 449 282 407 314 c 0,75,76
 386 330 386 330 358 333.5 c 128,-1,77
 330 337 330 337 262 337 c 1,78,-1
 262 89 l 2,66,67
440 47 m 1,79,80
 586 81 586 81 586 187 c 0,81,82
 586 250 586 250 543.5 289.5 c 128,-1,83
 501 329 501 329 429 341 c 1,84,85
 484 296 484 296 484 187 c 0,86,87
 484 97 484 97 440 47 c 1,79,80
EndSplineSet
Validated: 19457
EndChar

StartChar: C
Encoding: 67 67 35
Width: 722
VWidth: 1000
Flags: W
HStem: -19 48<289.177 518.237> 623 35<572.103 619.435> 669 35<328.39 466.276>
VStem: 37 35<225.453 466.212> 178 35<189.926 493.749> 622 35<471.019 528.221 568 630 660.734 703.982>
LayerCount: 2
Fore
SplineSet
657 671 m 2,0,-1
 657 504 l 2,1,2
 657 471 657 471 640 471 c 0,3,4
 627 471 627 471 621 490 c 0,5,6
 597 565 597 565 525 617 c 128,-1,7
 453 669 453 669 392 669 c 0,8,9
 312 669 312 669 262.5 579 c 128,-1,10
 213 489 213 489 213 341 c 0,11,12
 213 278 213 278 222 226 c 128,-1,13
 231 174 231 174 251.5 127.5 c 128,-1,14
 272 81 272 81 311.5 55 c 128,-1,15
 351 29 351 29 407 29 c 0,16,17
 474 29 474 29 536.5 57 c 128,-1,18
 599 85 599 85 643 135 c 0,19,20
 656 149 656 149 664 149 c 0,21,22
 670 149 670 149 677.5 143.5 c 128,-1,23
 685 138 685 138 685 129 c 0,24,25
 685 118 685 118 653.5 87.5 c 128,-1,26
 622 57 622 57 588 36 c 0,27,28
 497 -19 497 -19 391 -19 c 0,29,30
 324 -19 324 -19 262.5 2.5 c 128,-1,31
 201 24 201 24 149.5 66 c 128,-1,32
 98 108 98 108 67.5 179.5 c 128,-1,33
 37 251 37 251 37 343 c 128,-1,34
 37 435 37 435 68 506.5 c 128,-1,35
 99 578 99 578 150.5 620 c 128,-1,36
 202 662 202 662 263 683 c 128,-1,37
 324 704 324 704 389 704 c 0,38,39
 448 704 448 704 499 682 c 0,40,41
 552 658 552 658 589 658 c 0,42,43
 619 658 619 658 622 686 c 0,44,45
 624 704 624 704 640 704 c 0,46,47
 657 704 657 704 657 671 c 2,0,-1
622 568 m 1,48,-1
 622 630 l 1,49,50
 611 623 611 623 590 623 c 0,51,52
 577 623 577 623 572 624 c 1,53,54
 611 583 611 583 622 568 c 1,48,-1
267 646 m 1,55,-1
 267 647 l 1,56,57
 185 619 185 619 128.5 544 c 128,-1,58
 72 469 72 469 72 342 c 0,59,60
 72 237 72 237 121 153 c 128,-1,61
 170 69 170 69 283 32 c 1,62,63
 178 116 178 116 178 341 c 0,64,65
 178 430 178 430 197 501.5 c 128,-1,66
 216 573 216 573 233 601 c 128,-1,67
 250 629 250 629 267 646 c 1,55,-1
EndSplineSet
Validated: 19457
EndChar

StartChar: D
Encoding: 68 68 36
Width: 722
VWidth: 1000
Flags: W
HStem: 0 35<16.0121 89.7119 126 240 270.564 397.378> 650 35<16.0078 89.7117 126 240 272.813 395.582>
VStem: 99 35<44.8038 640.196> 227 35<44.1875 622.263> 515 35<199.769 495.858> 656 35<234.986 462.999>
LayerCount: 2
Fore
SplineSet
50 685 m 2,0,-1
 339 685 l 2,1,2
 389 685 389 685 437.5 674 c 128,-1,3
 486 663 486 663 532.5 637.5 c 128,-1,4
 579 612 579 612 614 574.5 c 128,-1,5
 649 537 649 537 670 480.5 c 128,-1,6
 691 424 691 424 691 355 c 0,7,8
 691 283 691 283 671 223.5 c 128,-1,9
 651 164 651 164 617 123.5 c 128,-1,10
 583 83 583 83 537.5 54.5 c 128,-1,11
 492 26 492 26 442 13 c 128,-1,12
 392 0 392 0 338 0 c 2,13,-1
 50 0 l 2,14,15
 38 0 38 0 32.5 0.5 c 128,-1,16
 27 1 27 1 21.5 5.5 c 128,-1,17
 16 10 16 10 16 18 c 0,18,19
 16 35 16 35 44 35 c 0,20,21
 81 35 81 35 90 44.5 c 128,-1,22
 99 54 99 54 99 92 c 2,23,-1
 99 593 l 2,24,25
 99 631 99 631 90 640.5 c 128,-1,26
 81 650 81 650 43 650 c 0,27,28
 16 650 16 650 16 667 c 0,29,30
 16 679 16 679 24 682 c 128,-1,31
 32 685 32 685 50 685 c 2,0,-1
461 630 m 1,32,-1
 460 630 l 1,33,34
 550 535 550 535 550 353 c 0,35,36
 550 147 550 147 465 58 c 1,37,38
 548 87 548 87 602 161.5 c 128,-1,39
 656 236 656 236 656 355 c 0,40,41
 656 451 656 451 609 524 c 128,-1,42
 562 597 562 597 461 630 c 1,32,-1
126 35 m 1,43,-1
 240 35 l 1,44,45
 227 51 227 51 227 86 c 2,46,-1
 227 599 l 2,47,48
 227 635 227 635 240 650 c 1,49,-1
 126 650 l 1,50,51
 134 632 134 632 134 595 c 2,52,-1
 134 90 l 2,53,54
 134 53 134 53 126 35 c 1,43,-1
262 596 m 2,55,-1
 262 89 l 2,56,57
 262 78 262 78 263 71.5 c 128,-1,58
 264 65 264 65 269 55 c 128,-1,59
 274 45 274 45 287 40 c 128,-1,60
 300 35 300 35 321 35 c 0,61,62
 369 35 369 35 405.5 56.5 c 128,-1,63
 442 78 442 78 462 110 c 128,-1,64
 482 142 482 142 494.5 187 c 128,-1,65
 507 232 507 232 511 270.5 c 128,-1,66
 515 309 515 309 515 353 c 0,67,68
 515 506 515 506 458.5 578 c 128,-1,69
 402 650 402 650 328 650 c 0,70,71
 295 650 295 650 280 638 c 1,72,73
 268 630 268 630 265 622.5 c 128,-1,74
 262 615 262 615 262 596 c 2,55,-1
EndSplineSet
Validated: 19457
EndChar

StartChar: E
Encoding: 69 69 37
Width: 666
VWidth: 1000
Flags: W
HStem: 0 35<14.0121 92.7117 129 235 279.736 455.186 509 581.095> 336 36<259 349.869> 650 35<14.0078 92.1952 129 235 266.728 457.03 501 558>
VStem: 102 35<45.3191 640.196> 224 35<39.8193 336 372 645.521> 419 35<202.156 277.104 316 400 439.859 531.992> 558 35<489.022 564.875 602 650> 604 35<145.512 204.989>
LayerCount: 2
Fore
SplineSet
259 336 m 1,0,-1
 259 102 l 2,1,2
 259 70 259 70 265.5 55 c 128,-1,3
 272 40 272 40 279.5 37.5 c 128,-1,4
 287 35 287 35 302 35 c 2,5,-1
 357 35 l 2,6,7
 440 35 440 35 515 80 c 0,8,9
 549 100 549 100 569.5 123 c 128,-1,10
 590 146 590 146 595 159 c 128,-1,11
 600 172 600 172 604 191 c 0,12,13
 604 192 604 192 605.5 195 c 128,-1,14
 607 198 607 198 611.5 201.5 c 128,-1,15
 616 205 616 205 622 205 c 128,-1,16
 628 205 628 205 633.5 200 c 128,-1,17
 639 195 639 195 639 187 c 0,18,19
 639 183 639 183 625 99 c 128,-1,20
 611 15 611 15 610 14 c 0,21,22
 608 4 608 4 601.5 2 c 128,-1,23
 595 0 595 0 578 0 c 2,24,-1
 48 0 l 2,25,26
 36 0 36 0 30.5 0.5 c 128,-1,27
 25 1 25 1 19.5 5.5 c 128,-1,28
 14 10 14 10 14 18 c 0,29,30
 14 35 14 35 46 35 c 0,31,32
 84 35 84 35 93 45 c 128,-1,33
 102 55 102 55 102 92 c 2,34,-1
 102 593 l 2,35,36
 102 631 102 631 92.5 640.5 c 128,-1,37
 83 650 83 650 41 650 c 0,38,39
 14 650 14 650 14 667 c 0,40,41
 14 679 14 679 22 682 c 128,-1,42
 30 685 30 685 48 685 c 2,43,-1
 560 685 l 2,44,45
 583 685 583 685 588 680 c 128,-1,46
 593 675 593 675 593 652 c 2,47,-1
 593 522 l 2,48,49
 593 489 593 489 576 489 c 0,50,51
 561 489 561 489 558 512 c 0,52,53
 553 569 553 569 499 609.5 c 128,-1,54
 445 650 445 650 350 650 c 2,55,-1
 302 650 l 2,56,57
 287 650 287 650 279.5 647.5 c 128,-1,58
 272 645 272 645 265.5 630 c 128,-1,59
 259 615 259 615 259 583 c 2,60,-1
 259 372 l 1,61,62
 280 372 280 372 295.5 374 c 128,-1,63
 311 376 311 376 335.5 384 c 128,-1,64
 360 392 360 392 376 405.5 c 128,-1,65
 392 419 392 419 404.5 445.5 c 128,-1,66
 417 472 417 472 419 509 c 1,67,68
 419 532 419 532 437 532 c 0,69,70
 454 532 454 532 454 500 c 2,71,-1
 454 229 l 2,72,73
 454 217 454 217 453.5 212 c 128,-1,74
 453 207 453 207 449 202 c 128,-1,75
 445 197 445 197 437 197 c 128,-1,76
 429 197 429 197 425 201.5 c 128,-1,77
 421 206 421 206 420.5 210 c 128,-1,78
 420 214 420 214 419 224 c 0,79,80
 419 231 419 231 416.5 243.5 c 128,-1,81
 414 256 414 256 401 278.5 c 128,-1,82
 388 301 388 301 367 315 c 1,83,84
 332 336 332 336 259 336 c 1,0,-1
558 650 m 1,85,-1
 501 650 l 1,86,87
 533 630 533 630 558 602 c 1,88,-1
 558 650 l 1,85,-1
363 357 m 1,89,-1
 363 356 l 1,90,91
 364 356 364 356 372 352 c 128,-1,92
 380 348 380 348 394 338 c 128,-1,93
 408 328 408 328 419 316 c 1,94,-1
 419 400 l 1,95,96
 394 370 394 370 363 357 c 1,89,-1
137 595 m 2,97,-1
 137 90 l 2,98,99
 137 53 137 53 129 35 c 1,100,-1
 235 35 l 1,101,102
 224 60 224 60 224 100 c 2,103,-1
 224 585 l 2,104,105
 224 627 224 627 235 650 c 1,106,-1
 129 650 l 1,107,108
 137 632 137 632 137 595 c 2,97,-1
509 35 m 1,109,-1
 579 35 l 1,110,111
 584 75 584 75 588 91 c 1,112,113
 549 56 549 56 509 36 c 1,114,-1
 509 35 l 1,109,-1
EndSplineSet
Validated: 19457
EndChar

StartChar: F
Encoding: 70 70 38
Width: 611
VWidth: 1000
Flags: W
HStem: 0 35<14.0121 92.7117 129 234 271.386 369.992> 336 36<259 340.185> 650 35<14.0078 92.1952 129 235 266.728 450.76 494 548>
VStem: 102 35<45.3191 640.196> 224 35<44.8046 336 372 645.521> 408 35<202.156 279.64 317 398 434.991 531.979> 548 35<489.022 564.875 603 650>
LayerCount: 2
Fore
SplineSet
259 336 m 1,0,-1
 259 95 l 2,1,2
 259 54 259 54 271 44.5 c 128,-1,3
 283 35 283 35 340 35 c 0,4,5
 370 35 370 35 370 18 c 0,6,7
 370 6 370 6 362 3 c 128,-1,8
 354 0 354 0 337 0 c 2,9,-1
 48 0 l 2,10,11
 36 0 36 0 30.5 0.5 c 128,-1,12
 25 1 25 1 19.5 5.5 c 128,-1,13
 14 10 14 10 14 18 c 0,14,15
 14 35 14 35 46 35 c 0,16,17
 84 35 84 35 93 45 c 128,-1,18
 102 55 102 55 102 92 c 2,19,-1
 102 593 l 2,20,21
 102 631 102 631 92.5 640.5 c 128,-1,22
 83 650 83 650 41 650 c 0,23,24
 14 650 14 650 14 667 c 0,25,26
 14 679 14 679 22 682 c 128,-1,27
 30 685 30 685 48 685 c 2,28,-1
 550 685 l 2,29,30
 573 685 573 685 578 680 c 128,-1,31
 583 675 583 675 583 652 c 2,32,-1
 583 522 l 2,33,34
 583 489 583 489 566 489 c 0,35,36
 551 489 551 489 548 512 c 0,37,38
 543 569 543 569 491 609.5 c 128,-1,39
 439 650 439 650 349 650 c 2,40,-1
 302 650 l 2,41,42
 287 650 287 650 279.5 647.5 c 128,-1,43
 272 645 272 645 265.5 630 c 128,-1,44
 259 615 259 615 259 583 c 2,45,-1
 259 372 l 1,46,47
 325 375 325 375 364.5 403.5 c 128,-1,48
 404 432 404 432 408 511 c 0,49,50
 410 532 410 532 426 532 c 0,51,52
 443 532 443 532 443 500 c 2,53,-1
 443 229 l 2,54,55
 443 217 443 217 442.5 212 c 128,-1,56
 442 207 442 207 438 202 c 128,-1,57
 434 197 434 197 426 197 c 0,58,59
 410 197 410 197 408 222 c 0,60,61
 400 336 400 336 259 336 c 1,0,-1
548 650 m 1,62,-1
 494 650 l 1,63,64
 517 636 517 636 548 603 c 1,65,-1
 548 650 l 1,62,-1
408 317 m 1,66,-1
 408 398 l 1,67,68
 385 370 385 370 355 356 c 1,69,70
 388 342 388 342 408 317 c 1,66,-1
137 595 m 2,71,-1
 137 90 l 2,72,73
 137 53 137 53 129 35 c 1,74,-1
 234 35 l 1,75,76
 224 54 224 54 224 93 c 2,77,-1
 224 585 l 2,78,79
 224 627 224 627 235 650 c 1,80,-1
 129 650 l 1,81,82
 137 632 137 632 137 595 c 2,71,-1
EndSplineSet
Validated: 19457
EndChar

StartChar: G
Encoding: 71 71 39
Width: 777
VWidth: 1000
Flags: W
HStem: -19 35<322.023 495.761> 255 35<410.008 479.839 514 657 689.198 747.981> 623 35<571.507 618.459> 669 35<328.39 465.78>
VStem: 37 35<223.457 466.212> 178 35<176.082 494.755> 512 35<45.8319 224.75> 621 35<476.674 529.557 568 630 660.468 703.982> 631 35<63.7988 230.855>
LayerCount: 2
Fore
SplineSet
657 255 m 1,0,-1
 514 255 l 1,1,2
 537 234 537 234 542 208.5 c 128,-1,3
 547 183 547 183 547 120 c 0,4,5
 547 54 547 54 543 38 c 1,6,7
 589 51 589 51 631 72 c 1,8,-1
 631 174 l 2,9,10
 631 223 631 223 657 255 c 1,0,-1
395 -19 m 0,11,12
 242 -19 242 -19 139.5 75.5 c 128,-1,13
 37 170 37 170 37 343 c 0,14,15
 37 435 37 435 68 506.5 c 128,-1,16
 99 578 99 578 150.5 620 c 128,-1,17
 202 662 202 662 263 683 c 128,-1,18
 324 704 324 704 389 704 c 0,19,20
 449 704 449 704 505 679 c 0,21,22
 554 658 554 658 589 658 c 0,23,24
 618 658 618 658 621 686 c 0,25,26
 623 704 623 704 639 704 c 0,27,28
 656 704 656 704 656 671 c 2,29,-1
 656 504 l 2,30,31
 656 471 656 471 639 471 c 0,32,33
 630 471 630 471 626 476.5 c 128,-1,34
 622 482 622 482 618 498 c 1,35,36
 599 558 599 558 528.5 613.5 c 128,-1,37
 458 669 458 669 392 669 c 0,38,39
 312 669 312 669 262.5 579.5 c 128,-1,40
 213 490 213 490 213 340 c 0,41,42
 213 210 213 210 245 128 c 0,43,44
 289 16 289 16 397 16 c 0,45,46
 452 16 452 16 483 27 c 0,47,48
 503 35 503 35 507.5 45.5 c 128,-1,49
 512 56 512 56 512 82 c 2,50,-1
 512 158 l 2,51,52
 512 171 512 171 511.5 179 c 128,-1,53
 511 187 511 187 506.5 202 c 128,-1,54
 502 217 502 217 494 226 c 128,-1,55
 486 235 486 235 469.5 243.5 c 128,-1,56
 453 252 453 252 429 254 c 0,57,58
 410 255 410 255 410 272 c 0,59,60
 410 284 410 284 418.5 287 c 128,-1,61
 427 290 427 290 446 290 c 2,62,-1
 713 290 l 2,63,64
 725 290 725 290 731 289.5 c 128,-1,65
 737 289 737 289 742.5 284.5 c 128,-1,66
 748 280 748 280 748 272 c 0,67,68
 748 256 748 256 729 254 c 0,69,70
 700 252 700 252 683 231.5 c 128,-1,71
 666 211 666 211 666 172 c 2,72,-1
 666 80 l 2,73,74
 666 59 666 59 662.5 53.5 c 128,-1,75
 659 48 659 48 640 38 c 0,76,77
 528 -19 528 -19 395 -19 c 0,11,12
621 568 m 1,78,-1
 621 630 l 1,79,80
 610 623 610 623 589 623 c 0,81,82
 577 623 577 623 571 624 c 1,83,84
 596 602 596 602 621 568 c 1,78,-1
255 42 m 1,85,86
 178 135 178 135 178 340 c 0,87,88
 178 428 178 428 196 498.5 c 128,-1,89
 214 569 214 569 231.5 598.5 c 128,-1,90
 249 628 249 628 267 646 c 1,91,-1
 267 647 l 1,92,93
 185 619 185 619 128.5 544 c 128,-1,94
 72 469 72 469 72 342 c 0,95,96
 72 239 72 239 116.5 160 c 128,-1,97
 161 81 161 81 255 42 c 1,85,86
EndSplineSet
Validated: 19457
EndChar

StartChar: H
Encoding: 72 72 40
Width: 777
VWidth: 1000
Flags: W
HStem: 0 35<17.0121 95.7117 132 241 277.805 355.992 422.012 500.712 537 646 682.805 760.992> 324 46<268 510> 650 35<17.0083 95.1952 132 241 277.805 355.989 422.008 500.195 537 646 682.805 760.989>
VStem: 105 35<45.3191 640.196> 233 35<45.3191 324 370 640.196> 510 35<45.3191 324 370 640.196> 638 35<45.3191 640.196>
LayerCount: 2
Fore
SplineSet
673 593 m 2,0,-1
 673 92 l 2,1,2
 673 55 673 55 682.5 45 c 128,-1,3
 692 35 692 35 733 35 c 0,4,5
 761 35 761 35 761 18 c 0,6,7
 761 6 761 6 753 3 c 128,-1,8
 745 0 745 0 728 0 c 2,9,-1
 456 0 l 2,10,11
 444 0 444 0 438.5 0.5 c 128,-1,12
 433 1 433 1 427.5 5.5 c 128,-1,13
 422 10 422 10 422 18 c 0,14,15
 422 35 422 35 454 35 c 0,16,17
 492 35 492 35 501 45 c 128,-1,18
 510 55 510 55 510 92 c 2,19,-1
 510 324 l 1,20,-1
 268 324 l 1,21,-1
 268 92 l 2,22,23
 268 55 268 55 277.5 45 c 128,-1,24
 287 35 287 35 328 35 c 0,25,26
 356 35 356 35 356 18 c 0,27,28
 356 6 356 6 348 3 c 128,-1,29
 340 0 340 0 323 0 c 2,30,-1
 51 0 l 2,31,32
 39 0 39 0 33.5 0.5 c 128,-1,33
 28 1 28 1 22.5 5.5 c 128,-1,34
 17 10 17 10 17 18 c 0,35,36
 17 35 17 35 49 35 c 0,37,38
 87 35 87 35 96 45 c 128,-1,39
 105 55 105 55 105 92 c 2,40,-1
 105 593 l 2,41,42
 105 631 105 631 95.5 640.5 c 128,-1,43
 86 650 86 650 44 650 c 0,44,45
 17 650 17 650 17 667 c 0,46,47
 17 679 17 679 25.5 682 c 128,-1,48
 34 685 34 685 51 685 c 2,49,-1
 323 685 l 2,50,51
 335 685 335 685 340.5 684.5 c 128,-1,52
 346 684 346 684 351 679.5 c 128,-1,53
 356 675 356 675 356 667 c 0,54,55
 356 650 356 650 330 650 c 0,56,57
 287 650 287 650 277.5 640.5 c 128,-1,58
 268 631 268 631 268 593 c 2,59,-1
 268 370 l 1,60,-1
 510 370 l 1,61,-1
 510 593 l 2,62,63
 510 631 510 631 500.5 640.5 c 128,-1,64
 491 650 491 650 449 650 c 0,65,66
 422 650 422 650 422 667 c 0,67,68
 422 679 422 679 430 682 c 128,-1,69
 438 685 438 685 456 685 c 2,70,-1
 728 685 l 2,71,72
 740 685 740 685 745.5 684.5 c 128,-1,73
 751 684 751 684 756 679.5 c 128,-1,74
 761 675 761 675 761 667 c 0,75,76
 761 650 761 650 735 650 c 0,77,78
 692 650 692 650 682.5 640.5 c 128,-1,79
 673 631 673 631 673 593 c 2,0,-1
140 595 m 2,80,-1
 140 90 l 2,81,82
 140 53 140 53 132 35 c 1,83,-1
 241 35 l 1,84,85
 233 53 233 53 233 90 c 2,86,-1
 233 595 l 2,87,88
 233 632 233 632 241 650 c 1,89,-1
 132 650 l 1,90,91
 140 632 140 632 140 595 c 2,80,-1
545 595 m 2,92,-1
 545 90 l 2,93,94
 545 53 545 53 537 35 c 1,95,-1
 646 35 l 1,96,97
 638 53 638 53 638 90 c 2,98,-1
 638 595 l 2,99,100
 638 632 638 632 646 650 c 1,101,-1
 537 650 l 1,102,103
 545 632 545 632 545 595 c 2,92,-1
EndSplineSet
Validated: 19457
EndChar

StartChar: I
Encoding: 73 73 41
Width: 388
VWidth: 1000
Flags: W
HStem: 0 35<20.0121 103.195 139 250 286.321 368.992> 650 35<20.0081 103.195 139 250 285.805 368.989>
VStem: 113 35<45.3191 639.681> 241 35<44.8038 639.681>
LayerCount: 2
Fore
SplineSet
276 593 m 2,0,-1
 276 92 l 2,1,2
 276 54 276 54 286 44.5 c 128,-1,3
 296 35 296 35 341 35 c 0,4,5
 369 35 369 35 369 18 c 0,6,7
 369 6 369 6 361 3 c 128,-1,8
 353 0 353 0 336 0 c 2,9,-1
 54 0 l 2,10,11
 42 0 42 0 36.5 0.5 c 128,-1,12
 31 1 31 1 25.5 5.5 c 128,-1,13
 20 10 20 10 20 18 c 0,14,15
 20 35 20 35 51 35 c 0,16,17
 94 35 94 35 103.5 45 c 128,-1,18
 113 55 113 55 113 92 c 2,19,-1
 113 593 l 2,20,21
 113 630 113 630 103.5 640 c 128,-1,22
 94 650 94 650 53 650 c 0,23,24
 20 650 20 650 20 667 c 0,25,26
 20 679 20 679 28 682 c 128,-1,27
 36 685 36 685 54 685 c 2,28,-1
 336 685 l 2,29,30
 348 685 348 685 353.5 684.5 c 128,-1,31
 359 684 359 684 364 679.5 c 128,-1,32
 369 675 369 675 369 667 c 0,33,34
 369 650 369 650 338 650 c 0,35,36
 295 650 295 650 285.5 640 c 128,-1,37
 276 630 276 630 276 593 c 2,0,-1
148 595 m 2,38,-1
 148 90 l 2,39,40
 148 53 148 53 139 35 c 1,41,-1
 250 35 l 1,42,43
 241 53 241 53 241 90 c 2,44,-1
 241 595 l 2,45,46
 241 632 241 632 250 650 c 1,47,-1
 139 650 l 1,48,49
 148 632 148 632 148 595 c 2,38,-1
EndSplineSet
Validated: 19457
EndChar

StartChar: J
Encoding: 74 74 42
Width: 500
VWidth: 1000
Flags: W
HStem: -75 35<123.847 238.614> 71 35<49.1506 106.467> 650 35<123.008 213.646 251 361 400.899 470.843>
VStem: 6 35<-4.0799 63.7692> 115 35<2.96265 63.1271> 225 35<-21.4641 640.196> 353 35<36.8625 642.291>
LayerCount: 2
Fore
SplineSet
157 685 m 2,0,-1
 443 685 l 2,1,2
 455 685 455 685 460.5 684.5 c 128,-1,3
 466 684 466 684 471 679.5 c 128,-1,4
 476 675 476 675 476 667 c 0,5,6
 476 660 476 660 471 655 c 128,-1,7
 466 650 466 650 459 650 c 0,8,9
 413 649 413 649 400.5 642.5 c 128,-1,10
 388 636 388 636 388 604 c 2,11,-1
 388 184 l 2,12,13
 388 96 388 96 387 87 c 0,14,15
 367 -75 367 -75 167 -75 c 0,16,17
 95 -75 95 -75 50.5 -43.5 c 128,-1,18
 6 -12 6 -12 6 36 c 0,19,20
 6 66 6 66 27.5 86 c 128,-1,21
 49 106 49 106 78 106 c 128,-1,22
 107 106 107 106 128.5 86 c 128,-1,23
 150 66 150 66 150 36 c 0,24,25
 150 7 150 7 132 -12 c 0,26,27
 123 -21 123 -21 123 -29 c 0,28,29
 123 -40 123 -40 160 -40 c 0,30,31
 187 -40 187 -40 208 -22 c 1,32,33
 225 -5 225 -5 225 31 c 2,34,-1
 225 592 l 2,35,36
 225 631 225 631 214 640.5 c 128,-1,37
 203 650 203 650 152 650 c 0,38,39
 123 650 123 650 123 667 c 0,40,41
 123 679 123 679 131.5 682 c 128,-1,42
 140 685 140 685 157 685 c 2,0,-1
87 -24 m 1,43,44
 90 -4 90 -4 103 9 c 1,45,46
 115 18 115 18 115 36 c 0,47,48
 115 52 115 52 103.5 61.5 c 128,-1,49
 92 71 92 71 78 71 c 128,-1,50
 64 71 64 71 52.5 62 c 128,-1,51
 41 53 41 53 41 35 c 0,52,53
 41 -1 41 -1 87 -24 c 1,43,44
260 594 m 2,54,-1
 260 29 l 2,55,56
 260 -8 260 -8 245 -31 c 1,57,58
 337 -7 337 -7 352 86 c 0,59,60
 353 96 353 96 353 176 c 2,61,-1
 353 579 l 2,62,63
 353 632 353 632 361 650 c 1,64,-1
 251 650 l 1,65,66
 260 632 260 632 260 594 c 2,54,-1
EndSplineSet
Validated: 19457
EndChar

StartChar: K
Encoding: 75 75 43
Width: 777
VWidth: 1000
Flags: W
HStem: 0 35<24.0121 102.712 139 248 284.805 362.992 485.16 521.906 554.813 686> 650 35<24.0078 102.195 139 248 284.805 362.989 454.008 504.65 535 617 654.609 730.989>
VStem: 112 35<45.3191 640.196> 240 35<45.3191 285 343 640.196> 513 35<595.493 641.668>
LayerCount: 2
Fore
SplineSet
413 416 m 1,0,-1
 702 70 l 2,1,2
 707 64 707 64 723 48 c 1,3,4
 736 37 736 37 750 35 c 0,5,6
 769 32 769 32 769 18 c 0,7,8
 769 6 769 6 761 3 c 128,-1,9
 753 0 753 0 736 0 c 2,10,-1
 513 0 l 2,11,12
 501 0 501 0 495.5 0.5 c 128,-1,13
 490 1 490 1 485 5.5 c 128,-1,14
 480 10 480 10 480 18 c 0,15,16
 480 27 480 27 485 30 c 128,-1,17
 490 33 490 33 510 36 c 0,18,19
 511 36 511 36 515 37.5 c 128,-1,20
 519 39 519 39 522 40 c 1,21,22
 515 57 515 57 506 69 c 2,23,-1
 480 100 l 1,24,-1
 303 311 l 1,25,-1
 275 285 l 1,26,-1
 275 92 l 2,27,28
 275 55 275 55 284.5 45 c 128,-1,29
 294 35 294 35 335 35 c 0,30,31
 363 35 363 35 363 18 c 0,32,33
 363 6 363 6 355 3 c 128,-1,34
 347 0 347 0 330 0 c 2,35,-1
 58 0 l 2,36,37
 46 0 46 0 40.5 0.5 c 128,-1,38
 35 1 35 1 29.5 5.5 c 128,-1,39
 24 10 24 10 24 18 c 0,40,41
 24 35 24 35 56 35 c 0,42,43
 94 35 94 35 103 45 c 128,-1,44
 112 55 112 55 112 92 c 2,45,-1
 112 593 l 2,46,47
 112 631 112 631 102.5 640.5 c 128,-1,48
 93 650 93 650 51 650 c 0,49,50
 24 650 24 650 24 667 c 0,51,52
 24 679 24 679 32 682 c 128,-1,53
 40 685 40 685 58 685 c 2,54,-1
 330 685 l 2,55,56
 342 685 342 685 347.5 684.5 c 128,-1,57
 353 684 353 684 358 679.5 c 128,-1,58
 363 675 363 675 363 667 c 0,59,60
 363 650 363 650 337 650 c 0,61,62
 294 650 294 650 284.5 640.5 c 128,-1,63
 275 631 275 631 275 593 c 2,64,-1
 275 343 l 1,65,66
 286 352 286 352 306 371.5 c 128,-1,67
 326 391 326 391 349 413.5 c 128,-1,68
 372 436 372 436 379 443 c 2,69,-1
 488 546 l 1,70,71
 513 571 513 571 513 600 c 0,72,73
 513 644 513 644 475 650 c 0,74,75
 454 653 454 653 454 667 c 0,76,77
 454 679 454 679 462 682 c 128,-1,78
 470 685 470 685 487 685 c 2,79,-1
 698 685 l 2,80,81
 710 685 710 685 715.5 684.5 c 128,-1,82
 721 684 721 684 726 679.5 c 128,-1,83
 731 675 731 675 731 667 c 0,84,85
 731 653 731 653 709 650 c 1,86,87
 686 648 686 648 664 637.5 c 128,-1,88
 642 627 642 627 609 600 c 128,-1,89
 576 573 576 573 553.5 551.5 c 128,-1,90
 531 530 531 530 478 479 c 2,91,-1
 413 416 l 1,0,-1
617 650 m 1,92,-1
 535 650 l 1,93,94
 548 629 548 629 548 595 c 1,95,96
 574 618 574 618 617 650 c 1,92,-1
139 35 m 1,97,-1
 248 35 l 1,98,99
 240 53 240 53 240 90 c 2,100,-1
 240 595 l 2,101,102
 240 632 240 632 248 650 c 1,103,-1
 139 650 l 1,104,105
 147 632 147 632 147 595 c 2,106,-1
 147 90 l 2,107,108
 147 53 147 53 139 35 c 1,97,-1
388 393 m 1,109,-1
 329 335 l 1,110,111
 361 300 361 300 428 216 c 1,112,113
 507 123 507 123 530 94 c 0,114,115
 542 79 542 79 548 68 c 128,-1,116
 554 57 554 57 555 51.5 c 128,-1,117
 556 46 556 46 557 35 c 1,118,-1
 686 35 l 1,119,-1
 388 393 l 1,109,-1
EndSplineSet
Validated: 19457
EndChar

StartChar: L
Encoding: 76 76 44
Width: 666
VWidth: 1000
Flags: W
HStem: 0 35<14.0121 92.7117 129 237 281.736 448.092 500 578> 650 35<14.0078 92.1952 129 234 269.773 343.989>
VStem: 102 35<45.3191 640.196> 226 35<39.8193 640.196> 604 35<162.872 223.986>
LayerCount: 2
Fore
SplineSet
261 593 m 2,0,-1
 261 102 l 2,1,2
 261 70 261 70 267.5 55 c 128,-1,3
 274 40 274 40 281.5 37.5 c 128,-1,4
 289 35 289 35 304 35 c 2,5,-1
 356 35 l 2,6,7
 434 35 434 35 504 80 c 0,8,9
 533 98 533 98 553 117 c 128,-1,10
 573 136 573 136 583 154.5 c 128,-1,11
 593 173 593 173 597 184 c 128,-1,12
 601 195 601 195 604 210 c 1,13,14
 608 224 608 224 622 224 c 0,15,16
 628 224 628 224 633.5 219 c 128,-1,17
 639 214 639 214 639 206 c 0,18,19
 639 203 639 203 625 109 c 128,-1,20
 611 15 611 15 610 13 c 0,21,22
 607 4 607 4 600.5 2 c 128,-1,23
 594 0 594 0 578 0 c 2,24,-1
 48 0 l 2,25,26
 36 0 36 0 30.5 0.5 c 128,-1,27
 25 1 25 1 19.5 5.5 c 128,-1,28
 14 10 14 10 14 18 c 0,29,30
 14 35 14 35 46 35 c 0,31,32
 84 35 84 35 93 45 c 128,-1,33
 102 55 102 55 102 92 c 2,34,-1
 102 593 l 2,35,36
 102 631 102 631 92.5 640.5 c 128,-1,37
 83 650 83 650 41 650 c 0,38,39
 14 650 14 650 14 667 c 0,40,41
 14 679 14 679 22 682 c 128,-1,42
 30 685 30 685 48 685 c 2,43,-1
 311 685 l 2,44,45
 323 685 323 685 328.5 684.5 c 128,-1,46
 334 684 334 684 339 679.5 c 128,-1,47
 344 675 344 675 344 667 c 0,48,49
 344 650 344 650 316 650 c 0,50,51
 278 650 278 650 269.5 640.5 c 128,-1,52
 261 631 261 631 261 593 c 2,0,-1
137 595 m 2,53,-1
 137 90 l 2,54,55
 137 53 137 53 129 35 c 1,56,-1
 237 35 l 1,57,58
 226 60 226 60 226 100 c 2,59,-1
 226 595 l 2,60,61
 226 632 226 632 234 650 c 1,62,-1
 129 650 l 1,63,64
 137 632 137 632 137 595 c 2,53,-1
578 35 m 1,65,-1
 588 103 l 1,66,67
 547 62 547 62 500 36 c 1,68,-1
 500 35 l 1,69,-1
 578 35 l 1,65,-1
EndSplineSet
Validated: 19457
EndChar

StartChar: M
Encoding: 77 77 45
Width: 944
VWidth: 1000
Flags: W
HStem: 0 35<17.0186 85.6196 117 134 165.75 238.992 591.019 659.62 691 820 851.75 924.992> 650 35<20.0078 103.124 156 243 713 819 850.38 918.981>
VStem: 104 42<51.6328 604> 678 35<53.4519 604> 797 35<54.5195 631.548>
LayerCount: 2
Fore
SplineSet
466 210 m 1,0,-1
 656 664 l 2,1,2
 663 679 663 679 668 682 c 128,-1,3
 673 685 673 685 693 685 c 2,4,-1
 886 685 l 2,5,6
 898 685 898 685 903.5 684.5 c 128,-1,7
 909 684 909 684 914 679.5 c 128,-1,8
 919 675 919 675 919 667 c 0,9,10
 919 652 919 652 900 650 c 0,11,12
 876 648 876 648 861 640 c 128,-1,13
 846 632 846 632 840.5 619.5 c 128,-1,14
 835 607 835 607 833.5 599 c 128,-1,15
 832 591 832 591 832 579 c 2,16,-1
 832 106 l 2,17,18
 832 93 832 93 833.5 85 c 128,-1,19
 835 77 835 77 841.5 64.5 c 128,-1,20
 848 52 848 52 865 44.5 c 128,-1,21
 882 37 882 37 909 35 c 0,22,23
 925 33 925 33 925 18 c 0,24,25
 925 6 925 6 917 3 c 128,-1,26
 909 0 909 0 892 0 c 2,27,-1
 625 0 l 2,28,29
 613 0 613 0 607.5 0.5 c 128,-1,30
 602 1 602 1 596.5 5.5 c 128,-1,31
 591 10 591 10 591 18 c 0,32,33
 591 33 591 33 610 35 c 0,34,35
 634 37 634 37 649 45 c 128,-1,36
 664 53 664 53 669.5 65.5 c 128,-1,37
 675 78 675 78 676.5 86 c 128,-1,38
 678 94 678 94 678 106 c 2,39,-1
 678 604 l 1,40,-1
 677 605 l 1,41,-1
 432 20 l 2,42,43
 424 0 424 0 412 0 c 128,-1,44
 400 0 400 0 391 21 c 2,45,-1
 147 605 l 1,46,-1
 146 604 l 1,47,-1
 146 106 l 2,48,49
 146 93 146 93 147.5 85 c 128,-1,50
 149 77 149 77 155.5 64.5 c 128,-1,51
 162 52 162 52 179 44.5 c 128,-1,52
 196 37 196 37 223 35 c 0,53,54
 239 33 239 33 239 18 c 0,55,56
 239 6 239 6 231 3 c 128,-1,57
 223 0 223 0 206 0 c 2,58,-1
 51 0 l 2,59,60
 39 0 39 0 33.5 0.5 c 128,-1,61
 28 1 28 1 22.5 5.5 c 128,-1,62
 17 10 17 10 17 18 c 0,63,64
 17 33 17 33 36 35 c 0,65,66
 60 37 60 37 75 45 c 128,-1,67
 90 53 90 53 95.5 65.5 c 128,-1,68
 101 78 101 78 102.5 86 c 128,-1,69
 104 94 104 94 104 106 c 2,70,-1
 104 640 l 1,71,72
 76 650 76 650 43 650 c 0,73,74
 20 650 20 650 20 667 c 0,75,76
 20 679 20 679 28 682 c 128,-1,77
 36 685 36 685 53 685 c 2,78,-1
 239 685 l 2,79,80
 260 685 260 685 264.5 682.5 c 128,-1,81
 269 680 269 680 275 665 c 2,82,-1
 466 210 l 1,0,-1
436 192 m 2,83,-1
 243 650 l 1,84,-1
 156 650 l 1,85,86
 172 636 172 636 183 608 c 2,87,-1
 411 64 l 1,88,-1
 413 64 l 1,89,-1
 457 170 l 1,90,91
 448 173 448 173 445 176 c 128,-1,92
 442 179 442 179 436 192 c 2,83,-1
134 35 m 1,93,-1
 125 46 l 2,94,95
 124 46 124 46 124 45 c 128,-1,96
 124 44 124 44 123 43 c 0,97,98
 121 41 121 41 117 35 c 1,99,-1
 134 35 l 1,93,-1
713 650 m 1,100,-1
 713 104 l 2,101,102
 713 60 713 60 691 35 c 1,103,-1
 820 35 l 1,104,105
 797 60 797 60 797 104 c 2,106,-1
 797 581 l 2,107,108
 797 625 797 625 819 650 c 1,109,-1
 713 650 l 1,100,-1
EndSplineSet
Validated: 19457
EndChar

StartChar: N
Encoding: 78 78 46
Width: 722
VWidth: 1000
Flags: W
HStem: 0 35<25.0121 100.65 166.382 246.992> 650 35<37.0078 99.4624 133 252 489.008 569.618 634.834 701.989>
VStem: 112 42<51.9908 567> 582 42<51 195 263 633.009>
LayerCount: 2
Fore
SplineSet
112 595 m 2,0,1
 112 611 112 611 114 619 c 1,2,3
 91 646 91 646 58 650 c 1,4,5
 37 650 37 650 37 667 c 0,6,7
 37 679 37 679 45 682 c 128,-1,8
 53 685 53 685 70 685 c 2,9,-1
 244 685 l 2,10,11
 262 685 262 685 267.5 683 c 128,-1,12
 273 681 273 681 280 671 c 2,13,-1
 582 263 l 1,14,-1
 582 576 l 2,15,16
 582 618 582 618 570 633.5 c 128,-1,17
 558 649 558 649 518 650 c 0,18,19
 489 650 489 650 489 667 c 0,20,21
 489 679 489 679 497.5 682 c 128,-1,22
 506 685 506 685 523 685 c 2,23,-1
 669 685 l 2,24,25
 681 685 681 685 686.5 684.5 c 128,-1,26
 692 684 692 684 697 679.5 c 128,-1,27
 702 675 702 675 702 667 c 0,28,29
 702 650 702 650 679 650 c 0,30,31
 645 649 645 649 634.5 635.5 c 128,-1,32
 624 622 624 622 624 579 c 2,33,-1
 624 14 l 2,34,35
 624 -19 624 -19 607 -19 c 0,36,37
 597 -19 597 -19 586 -4 c 2,38,-1
 154 567 l 1,39,-1
 154 109 l 2,40,41
 154 67 154 67 166 51.5 c 128,-1,42
 178 36 178 36 217 35 c 0,43,44
 247 35 247 35 247 18 c 0,45,46
 247 6 247 6 239 3 c 128,-1,47
 231 0 231 0 214 0 c 2,48,-1
 59 0 l 2,49,50
 47 0 47 0 41.5 0.5 c 128,-1,51
 36 1 36 1 30.5 5.5 c 128,-1,52
 25 10 25 10 25 18 c 0,53,54
 25 35 25 35 53 35 c 0,55,56
 90 36 90 36 101 50.5 c 128,-1,57
 112 65 112 65 112 107 c 2,58,-1
 112 595 l 2,0,1
589 51 m 1,59,-1
 589 195 l 1,60,-1
 252 650 l 1,61,-1
 133 650 l 1,62,63
 137 646 137 646 154 626 c 1,64,-1
 589 51 l 1,59,-1
EndSplineSet
Validated: 19457
EndChar

StartChar: O
Encoding: 79 79 47
Width: 777
VWidth: 1000
Flags: W
HStem: -19 35<318.483 459.263> 669 35<318.737 459.517>
VStem: 33 35<221.735 461.908> 174 35<177.318 507.881> 569 35<176.913 507.477> 710 35<223.092 462.966>
LayerCount: 2
Fore
SplineSet
745 342 m 0,0,1
 745 253 745 253 715.5 182.5 c 128,-1,2
 686 112 686 112 635.5 69 c 128,-1,3
 585 26 585 26 522 3.5 c 128,-1,4
 459 -19 459 -19 389 -19 c 0,5,6
 334 -19 334 -19 283 -6 c 128,-1,7
 232 7 232 7 186.5 36 c 128,-1,8
 141 65 141 65 107 106.5 c 128,-1,9
 73 148 73 148 53 209 c 128,-1,10
 33 270 33 270 33 343 c 0,11,12
 33 432 33 432 62.5 502.5 c 128,-1,13
 92 573 92 573 142.5 616 c 128,-1,14
 193 659 193 659 256 681.5 c 128,-1,15
 319 704 319 704 389 704 c 0,16,17
 444 704 444 704 495 691 c 128,-1,18
 546 678 546 678 591.5 649 c 128,-1,19
 637 620 637 620 671 578.5 c 128,-1,20
 705 537 705 537 725 476 c 128,-1,21
 745 415 745 415 745 342 c 0,0,1
251 641 m 1,22,-1
 250 642 l 1,23,24
 229 634 229 634 208.5 622 c 128,-1,25
 188 610 188 610 161.5 585.5 c 128,-1,26
 135 561 135 561 115 529.5 c 128,-1,27
 95 498 95 498 81.5 449 c 128,-1,28
 68 400 68 400 68 342 c 0,29,30
 68 273 68 273 86.5 217.5 c 128,-1,31
 105 162 105 162 135 128 c 128,-1,32
 165 94 165 94 193.5 73.5 c 128,-1,33
 222 53 222 53 252 42 c 1,34,35
 174 134 174 134 174 343 c 0,36,37
 174 551 174 551 251 641 c 1,22,-1
528 642 m 1,38,-1
 527 641 l 1,39,40
 604 551 604 551 604 342 c 0,41,42
 604 134 604 134 526 42 c 1,43,44
 548 50 548 50 568.5 62 c 128,-1,45
 589 74 589 74 616 99 c 128,-1,46
 643 124 643 124 663 155.5 c 128,-1,47
 683 187 683 187 696.5 236 c 128,-1,48
 710 285 710 285 710 343 c 0,49,50
 710 398 710 398 697.5 446 c 128,-1,51
 685 494 685 494 665.5 525.5 c 128,-1,52
 646 557 646 557 620.5 582 c 128,-1,53
 595 607 595 607 573 620.5 c 128,-1,54
 551 634 551 634 528 642 c 1,38,-1
389 16 m 128,-1,56
 435 16 435 16 469 39 c 128,-1,57
 503 62 503 62 521.5 95.5 c 128,-1,58
 540 129 540 129 551.5 176.5 c 128,-1,59
 563 224 563 224 566 262 c 128,-1,60
 569 300 569 300 569 343 c 0,61,62
 569 384 569 384 566 421.5 c 128,-1,63
 563 459 563 459 552 506.5 c 128,-1,64
 541 554 541 554 522.5 588 c 128,-1,65
 504 622 504 622 469.5 645.5 c 128,-1,66
 435 669 435 669 389 669 c 128,-1,67
 343 669 343 669 309 646 c 128,-1,68
 275 623 275 623 256.5 589.5 c 128,-1,69
 238 556 238 556 226.5 508.5 c 128,-1,70
 215 461 215 461 212 423 c 128,-1,71
 209 385 209 385 209 342 c 0,72,73
 209 301 209 301 212 263.5 c 128,-1,74
 215 226 215 226 226 178.5 c 128,-1,75
 237 131 237 131 255.5 97 c 128,-1,76
 274 63 274 63 308.5 39.5 c 128,-1,55
 343 16 343 16 389 16 c 128,-1,56
EndSplineSet
Validated: 19457
EndChar

StartChar: P
Encoding: 80 80 48
Width: 611
VWidth: 1000
Flags: W
HStem: 0 35<16.0121 89.7119 126 235 271.805 350.992> 307 36<262 384.149> 650 35<16.0078 89.7117 126 240 270.574 388.938>
VStem: 99 35<44.8038 640.196> 227 35<44.8038 308 343 640.812> 427 35<390.168 608> 564 35<429.994 567.551>
LayerCount: 2
Fore
SplineSet
262 308 m 1,0,-1
 262 92 l 2,1,2
 262 54 262 54 271.5 44.5 c 128,-1,3
 281 35 281 35 323 35 c 0,4,5
 351 35 351 35 351 18 c 0,6,7
 351 6 351 6 343 3 c 128,-1,8
 335 0 335 0 318 0 c 2,9,-1
 50 0 l 2,10,11
 38 0 38 0 32.5 0.5 c 128,-1,12
 27 1 27 1 21.5 5.5 c 128,-1,13
 16 10 16 10 16 18 c 0,14,15
 16 35 16 35 44 35 c 0,16,17
 81 35 81 35 90 44.5 c 128,-1,18
 99 54 99 54 99 92 c 2,19,-1
 99 593 l 2,20,21
 99 631 99 631 90 640.5 c 128,-1,22
 81 650 81 650 43 650 c 0,23,24
 16 650 16 650 16 667 c 0,25,26
 16 679 16 679 24 682 c 128,-1,27
 32 685 32 685 50 685 c 2,28,-1
 342 685 l 2,29,30
 393 685 393 685 437 675 c 128,-1,31
 481 665 481 665 518.5 644.5 c 128,-1,32
 556 624 556 624 577.5 586 c 128,-1,33
 599 548 599 548 599 497 c 0,34,35
 599 417 599 417 531.5 362 c 128,-1,36
 464 307 464 307 323 307 c 2,37,-1
 289 307 l 1,38,39
 287 308 287 308 262 308 c 1,0,-1
427 353 m 1,40,41
 564 387 564 387 564 497 c 0,42,43
 564 610 564 610 431 641 c 1,44,45
 462 597 462 597 462 498 c 128,-1,46
 462 399 462 399 427 353 c 1,40,41
262 596 m 2,47,-1
 262 343 l 1,48,-1
 312 343 l 2,49,50
 339 343 339 343 356.5 347.5 c 128,-1,51
 374 352 374 352 392 366.5 c 128,-1,52
 410 381 410 381 418.5 414 c 128,-1,53
 427 447 427 447 427 498 c 0,54,55
 427 588 427 588 403 619 c 128,-1,56
 379 650 379 650 322 650 c 0,57,58
 301 650 301 650 287.5 645 c 128,-1,59
 274 640 274 640 269 630 c 128,-1,60
 264 620 264 620 263 613.5 c 128,-1,61
 262 607 262 607 262 596 c 2,47,-1
126 35 m 1,62,-1
 235 35 l 1,63,64
 227 53 227 53 227 90 c 2,65,-1
 227 599 l 2,66,67
 227 634 227 634 240 650 c 1,68,-1
 126 650 l 1,69,70
 134 632 134 632 134 595 c 2,71,-1
 134 90 l 2,72,73
 134 53 134 53 126 35 c 1,62,-1
EndSplineSet
Validated: 19457
EndChar

StartChar: Q
Encoding: 81 81 49
Width: 777
VWidth: 1000
Flags: W
HStem: -179 35<453.877 577.291> -149 41<650.844 731.797> -19 35<324.011 447.264> 669 35<318.737 459.517>
VStem: 33 35<221.173 461.908> 174 35<177.318 507.881> 569 35<176.913 507.477> 710 35<223.131 462.966>
LayerCount: 2
Fore
SplineSet
478 -9 m 1,0,1
 498 -53 498 -53 542.5 -85 c 128,-1,2
 587 -117 587 -117 650 -117 c 0,3,4
 677 -117 677 -117 705 -110 c 0,5,6
 712 -108 712 -108 715 -108 c 0,7,8
 732 -108 732 -108 732 -126 c 0,9,10
 732 -134 732 -134 726 -138.5 c 128,-1,11
 720 -143 720 -143 704 -149 c 0,12,13
 626 -179 626 -179 547 -179 c 0,14,15
 456 -179 456 -179 385 -131 c 128,-1,16
 314 -83 314 -83 279 -4 c 1,17,18
 232 8 232 8 190.5 33.5 c 128,-1,19
 149 59 149 59 112.5 100 c 128,-1,20
 76 141 76 141 54.5 203.5 c 128,-1,21
 33 266 33 266 33 343 c 0,22,23
 33 432 33 432 62.5 502.5 c 128,-1,24
 92 573 92 573 142.5 616 c 128,-1,25
 193 659 193 659 256 681.5 c 128,-1,26
 319 704 319 704 389 704 c 0,27,28
 444 704 444 704 495 691 c 128,-1,29
 546 678 546 678 591.5 649 c 128,-1,30
 637 620 637 620 671 578.5 c 128,-1,31
 705 537 705 537 725 476 c 128,-1,32
 745 415 745 415 745 342 c 0,33,34
 745 194 745 194 669 104.5 c 128,-1,35
 593 15 593 15 478 -9 c 1,0,1
251 641 m 1,36,-1
 250 642 l 1,37,38
 229 634 229 634 208.5 622 c 128,-1,39
 188 610 188 610 161.5 585.5 c 128,-1,40
 135 561 135 561 115 529.5 c 128,-1,41
 95 498 95 498 81.5 449 c 128,-1,42
 68 400 68 400 68 342 c 0,43,44
 68 273 68 273 86.5 217.5 c 128,-1,45
 105 162 105 162 135 128 c 128,-1,46
 165 94 165 94 193.5 73.5 c 128,-1,47
 222 53 222 53 252 42 c 1,48,49
 174 134 174 134 174 343 c 0,50,51
 174 551 174 551 251 641 c 1,36,-1
528 642 m 1,52,-1
 527 641 l 1,53,54
 604 551 604 551 604 342 c 0,55,56
 604 134 604 134 526 42 c 1,57,58
 548 50 548 50 568.5 62 c 128,-1,59
 589 74 589 74 616 99 c 128,-1,60
 643 124 643 124 663 155.5 c 128,-1,61
 683 187 683 187 696.5 236 c 128,-1,62
 710 285 710 285 710 343 c 0,63,64
 710 398 710 398 697.5 446 c 128,-1,65
 685 494 685 494 665.5 525.5 c 128,-1,66
 646 557 646 557 620.5 582 c 128,-1,67
 595 607 595 607 573 620.5 c 128,-1,68
 551 634 551 634 528 642 c 1,52,-1
389 16 m 128,-1,70
 435 16 435 16 469 39 c 128,-1,71
 503 62 503 62 521.5 95.5 c 128,-1,72
 540 129 540 129 551.5 176.5 c 128,-1,73
 563 224 563 224 566 262 c 128,-1,74
 569 300 569 300 569 343 c 0,75,76
 569 384 569 384 566 421.5 c 128,-1,77
 563 459 563 459 552 506.5 c 128,-1,78
 541 554 541 554 522.5 588 c 128,-1,79
 504 622 504 622 469.5 645.5 c 128,-1,80
 435 669 435 669 389 669 c 128,-1,81
 343 669 343 669 309 646 c 128,-1,82
 275 623 275 623 256.5 589.5 c 128,-1,83
 238 556 238 556 226.5 508.5 c 128,-1,84
 215 461 215 461 212 423 c 128,-1,85
 209 385 209 385 209 342 c 0,86,87
 209 301 209 301 212 263.5 c 128,-1,88
 215 226 215 226 226 178.5 c 128,-1,89
 237 131 237 131 255.5 97 c 128,-1,90
 274 63 274 63 308.5 39.5 c 128,-1,69
 343 16 343 16 389 16 c 128,-1,70
323 -14 m 1,91,92
 360 -79 360 -79 420 -111.5 c 128,-1,93
 480 -144 480 -144 547 -144 c 0,94,95
 578 -144 578 -144 578 -142 c 0,96,97
 578 -141 578 -141 567 -137 c 0,98,99
 480 -102 480 -102 443 -16 c 1,100,101
 415 -19 415 -19 389 -19 c 0,102,103
 351 -19 351 -19 323 -14 c 1,91,92
EndSplineSet
Validated: 19457
EndChar

StartChar: R
Encoding: 82 82 50
Width: 722
VWidth: 1000
Flags: W
HStem: 0 35<16.0121 94.6797 132 241 277.805 356.992 525 622 657.217 702.992> 314 35<268 304 345.435 406.557> 650 35<16.0078 94.6797 132 246 277.205 406.536>
VStem: 105 35<44.8038 640.196> 233 35<44.8038 314 349 640.159> 457 35<396.969 596.266> 594 35<429.146 564.71>
LayerCount: 2
Fore
SplineSet
268 314 m 1,0,-1
 268 92 l 2,1,2
 268 54 268 54 277.5 44.5 c 128,-1,3
 287 35 287 35 329 35 c 0,4,5
 357 35 357 35 357 18 c 0,6,7
 357 6 357 6 349 3 c 128,-1,8
 341 0 341 0 324 0 c 2,9,-1
 50 0 l 2,10,11
 38 0 38 0 32.5 0.5 c 128,-1,12
 27 1 27 1 21.5 5.5 c 128,-1,13
 16 10 16 10 16 18 c 0,14,15
 16 35 16 35 43 35 c 0,16,17
 85 35 85 35 95 44.5 c 128,-1,18
 105 54 105 54 105 92 c 2,19,-1
 105 593 l 2,20,21
 105 631 105 631 95 640.5 c 128,-1,22
 85 650 85 650 43 650 c 0,23,24
 16 650 16 650 16 667 c 0,25,26
 16 679 16 679 24 682 c 128,-1,27
 32 685 32 685 50 685 c 2,28,-1
 364 685 l 2,29,30
 411 685 411 685 455.5 675 c 128,-1,31
 500 665 500 665 540 644 c 128,-1,32
 580 623 580 623 604.5 585.5 c 128,-1,33
 629 548 629 548 629 498 c 0,34,35
 629 417 629 417 581 378 c 128,-1,36
 533 339 533 339 454 325 c 1,37,38
 491 265 491 265 578 141 c 1,39,40
 652 43 652 43 688 35 c 0,41,42
 703 32 703 32 703 18 c 0,43,44
 703 6 703 6 695 3 c 128,-1,45
 687 0 687 0 670 0 c 2,46,-1
 532 0 l 2,47,48
 514 0 514 0 509 1.5 c 128,-1,49
 504 3 504 3 499 12 c 0,50,51
 491 24 491 24 454 82 c 2,52,-1
 304 314 l 1,53,-1
 268 314 l 1,0,-1
461 363 m 1,54,55
 534 376 534 376 564 410.5 c 128,-1,56
 594 445 594 445 594 498 c 0,57,58
 594 533 594 533 579 560.5 c 128,-1,59
 564 588 564 588 539 603.5 c 128,-1,60
 514 619 514 619 494.5 626.5 c 128,-1,61
 475 634 475 634 454 639 c 1,62,63
 492 590 492 590 492 497 c 128,-1,64
 492 404 492 404 461 363 c 1,54,55
268 596 m 2,65,-1
 268 349 l 1,66,67
 388 349 388 349 422.5 375 c 128,-1,68
 457 401 457 401 457 497 c 0,69,70
 457 583 457 583 426.5 616.5 c 128,-1,71
 396 650 396 650 330 650 c 0,72,73
 308 650 308 650 294.5 645 c 128,-1,74
 281 640 281 640 275.5 630 c 128,-1,75
 270 620 270 620 269 613.5 c 128,-1,76
 268 607 268 607 268 596 c 2,65,-1
132 35 m 1,77,-1
 241 35 l 1,78,79
 233 53 233 53 233 90 c 2,80,-1
 233 599 l 2,81,82
 233 634 233 634 246 650 c 1,83,-1
 132 650 l 1,84,85
 140 632 140 632 140 595 c 2,86,-1
 140 90 l 2,87,88
 140 53 140 53 132 35 c 1,77,-1
345 314 m 1,89,-1
 525 35 l 1,90,-1
 622 35 l 1,91,92
 548 109 548 109 416 320 c 1,93,94
 386 316 386 316 364 316 c 0,95,96
 359 316 359 316 345 314 c 1,89,-1
EndSplineSet
Validated: 19457
EndChar

StartChar: S
Encoding: 83 83 51
Width: 555
VWidth: 1000
Flags: W
HStem: -12 35<194.263 349.24> 16 35<72.5959 119> 669 35<193.591 324.905>
VStem: 29 35<437.516 586.772> 37 35<41 105 147.762 234.843> 113 35<521.017 624.983> 394 35<65.8059 192.572> 447 35<486.008 552.819 591 651> 495 35<119.57 265.118>
LayerCount: 2
Fore
SplineSet
72 105 m 1,0,-1
 72 41 l 1,1,2
 91 51 91 51 119 51 c 1,3,4
 105 64 105 64 93.5 77.5 c 128,-1,5
 82 91 82 91 78 98 c 2,6,-1
 73 105 l 1,7,-1
 72 105 l 1,0,-1
210 306 m 0,8,9
 104 351 104 351 66.5 399 c 128,-1,10
 29 447 29 447 29 504 c 0,11,12
 29 601 29 601 90 652.5 c 128,-1,13
 151 704 151 704 256 704 c 0,14,15
 298 704 298 704 341 688 c 1,16,17
 377 676 377 676 401 676 c 0,18,19
 429 676 429 676 449 696 c 1,20,21
 460 704 460 704 465 704 c 0,22,23
 482 704 482 704 482 671 c 2,24,-1
 482 519 l 2,25,26
 482 486 482 486 465 486 c 0,27,28
 458 486 458 486 454.5 489.5 c 128,-1,29
 451 493 451 493 449.5 497 c 128,-1,30
 448 501 448 501 446 510 c 0,31,32
 432 572 432 572 372.5 620.5 c 128,-1,33
 313 669 313 669 258 669 c 0,34,35
 207 669 207 669 177.5 639.5 c 128,-1,36
 148 610 148 610 148 567 c 0,37,38
 148 547 148 547 160.5 528 c 128,-1,39
 173 509 173 509 187.5 496.5 c 128,-1,40
 202 484 202 484 232.5 468 c 128,-1,41
 263 452 263 452 280.5 444.5 c 128,-1,42
 298 437 298 437 336 422 c 0,43,44
 437 383 437 383 483.5 322 c 128,-1,45
 530 261 530 261 530 192 c 0,46,47
 530 97 530 97 453 42.5 c 128,-1,48
 376 -12 376 -12 263 -12 c 0,49,50
 218 -12 218 -12 177 3 c 1,51,52
 148 16 148 16 118 16 c 0,53,54
 90 16 90 16 70 -3 c 1,55,56
 62 -12 62 -12 55 -12 c 0,57,58
 43 -12 43 -12 40 -4 c 128,-1,59
 37 4 37 4 37 21 c 2,60,-1
 37 207 l 2,61,62
 37 218 37 218 37.5 223.5 c 128,-1,63
 38 229 38 229 42.5 234.5 c 128,-1,64
 47 240 47 240 55 240 c 0,65,66
 62 240 62 240 67 235 c 128,-1,67
 72 230 72 230 72 223 c 0,68,69
 72 149 72 149 133 87 c 0,70,71
 195 23 195 23 264 23 c 0,72,73
 335 23 335 23 364.5 51 c 128,-1,74
 394 79 394 79 394 135 c 0,75,76
 394 161 394 161 381 185 c 128,-1,77
 368 209 368 209 352.5 224.5 c 128,-1,78
 337 240 337 240 307 258 c 128,-1,79
 277 276 277 276 260.5 283.5 c 128,-1,80
 244 291 244 291 210 306 c 0,8,9
447 591 m 1,81,-1
 447 651 l 1,82,83
 438 642 438 642 403 641 c 1,84,85
 439 604 439 604 447 591 c 1,81,-1
414 59 m 1,86,87
 495 102 495 102 495 192 c 0,88,89
 495 259 495 259 440 319 c 1,90,91
 402 358 402 358 313 394 c 0,92,93
 269 412 269 412 242 424.5 c 128,-1,94
 215 437 215 437 181 459 c 128,-1,95
 147 481 147 481 130 508 c 128,-1,96
 113 535 113 535 113 567 c 0,97,98
 113 607 113 607 132 638 c 1,99,-1
 131 639 l 1,100,101
 64 601 64 601 64 504 c 0,102,103
 64 470 64 470 78 443 c 128,-1,104
 92 416 92 416 121.5 394.5 c 128,-1,105
 151 373 151 373 177 360 c 128,-1,106
 203 347 203 347 247 328 c 0,107,108
 282 313 282 313 309 298 c 128,-1,109
 336 283 336 283 366 259.5 c 128,-1,110
 396 236 396 236 412.5 204 c 128,-1,111
 429 172 429 172 429 135 c 0,112,113
 429 90 429 90 414 59 c 1,86,87
EndSplineSet
Validated: 19457
EndChar

StartChar: T
Encoding: 84 84 52
Width: 666
VWidth: 1000
Flags: W
HStem: 0 35<155.012 241.163 278 389 425.837 511.992> 650 35<68 128 173.968 252 287 380 415 496.646 539 600>
VStem: 33 35<480.008 559.948 598 650> 252 35<44.8041 649> 380 35<44.8041 649> 600 35<480.013 558.311 597 649.807>
LayerCount: 2
Fore
SplineSet
415 649 m 1,0,-1
 415 93 l 2,1,2
 415 54 415 54 425.5 44.5 c 128,-1,3
 436 35 436 35 484 35 c 0,4,5
 512 35 512 35 512 18 c 0,6,7
 512 6 512 6 504 3 c 128,-1,8
 496 0 496 0 479 0 c 2,9,-1
 189 0 l 2,10,11
 177 0 177 0 171.5 0.5 c 128,-1,12
 166 1 166 1 160.5 5.5 c 128,-1,13
 155 10 155 10 155 18 c 0,14,15
 155 35 155 35 185 35 c 0,16,17
 231 35 231 35 241.5 44.5 c 128,-1,18
 252 54 252 54 252 93 c 2,19,-1
 252 649 l 1,20,21
 173 644 173 644 122 603 c 128,-1,22
 71 562 71 562 68 500 c 0,23,24
 68 480 68 480 50 480 c 0,25,26
 33 480 33 480 33 512 c 2,27,-1
 33 653 l 2,28,29
 33 676 33 676 38 680.5 c 128,-1,30
 43 685 43 685 66 685 c 2,31,-1
 601 685 l 2,32,33
 624 685 624 685 629.5 680 c 128,-1,34
 635 675 635 675 635 649 c 2,35,-1
 635 516 l 2,36,37
 635 504 635 504 634.5 498 c 128,-1,38
 634 492 634 492 629.5 486 c 128,-1,39
 625 480 625 480 617 480 c 0,40,41
 601 480 601 480 599 510 c 0,42,43
 595 556 595 556 549 600 c 128,-1,44
 503 644 503 644 415 649 c 1,0,-1
68 650 m 1,45,-1
 68 598 l 1,46,47
 94 630 94 630 128 650 c 1,48,-1
 68 650 l 1,45,-1
600 650 m 1,49,-1
 539 650 l 1,50,51
 577 626 577 626 600 597 c 1,52,-1
 600 650 l 1,49,-1
278 35 m 1,53,-1
 389 35 l 1,54,55
 380 53 380 53 380 91 c 2,56,-1
 380 650 l 1,57,-1
 287 650 l 1,58,-1
 287 91 l 2,59,60
 287 53 287 53 278 35 c 1,53,-1
EndSplineSet
Validated: 19457
EndChar

StartChar: U
Encoding: 85 85 53
Width: 722
VWidth: 1000
Flags: W
HStem: -19 42<275.069 479.005> 650 35<16.0078 87.1342 126 232 267.805 350.989 490.008 546.524 578 620 652.4 707.989>
VStem: 99 35<126.807 629> 223 35<95.875 639.681> 578 42<129.752 609.873>
LayerCount: 2
Fore
SplineSet
524 685 m 2,0,-1
 675 685 l 2,1,2
 687 685 687 685 692.5 684.5 c 128,-1,3
 698 684 698 684 703 679.5 c 128,-1,4
 708 675 708 675 708 667 c 0,5,6
 708 652 708 652 686 650 c 0,7,8
 667 648 667 648 654 634.5 c 128,-1,9
 641 621 641 621 634.5 605.5 c 128,-1,10
 628 590 628 590 624.5 563.5 c 128,-1,11
 621 537 621 537 620.5 521.5 c 128,-1,12
 620 506 620 506 620 480 c 2,13,-1
 620 275 l 2,14,15
 620 250 620 250 619.5 234 c 128,-1,16
 619 218 619 218 614 184 c 128,-1,17
 609 150 609 150 600 126.5 c 128,-1,18
 591 103 591 103 571.5 73.5 c 128,-1,19
 552 44 552 44 525.5 25.5 c 128,-1,20
 499 7 499 7 456.5 -6 c 128,-1,21
 414 -19 414 -19 360 -19 c 0,22,23
 240 -19 240 -19 173 39 c 0,24,25
 147 61 147 61 130.5 88.5 c 128,-1,26
 114 116 114 116 108 146.5 c 128,-1,27
 102 177 102 177 100.5 195 c 128,-1,28
 99 213 99 213 99 239 c 2,29,-1
 99 608 l 2,30,31
 99 637 99 637 87.5 643 c 128,-1,32
 76 649 76 649 38 650 c 0,33,34
 16 650 16 650 16 667 c 0,35,36
 16 679 16 679 24 682 c 128,-1,37
 32 685 32 685 50 685 c 2,38,-1
 318 685 l 2,39,40
 330 685 330 685 335.5 684.5 c 128,-1,41
 341 684 341 684 346 679.5 c 128,-1,42
 351 675 351 675 351 667 c 0,43,44
 351 650 351 650 320 650 c 0,45,46
 277 650 277 650 267.5 640 c 128,-1,47
 258 630 258 630 258 593 c 2,48,-1
 258 218 l 2,49,50
 258 156 258 156 269 115 c 128,-1,51
 280 74 280 74 300.5 55 c 128,-1,52
 321 36 321 36 341.5 29.5 c 128,-1,53
 362 23 362 23 390 23 c 0,54,55
 491 23 491 23 534.5 86.5 c 128,-1,56
 578 150 578 150 578 250 c 2,57,-1
 578 515 l 2,58,59
 578 569 578 569 562 607.5 c 128,-1,60
 546 646 546 646 515 650 c 1,61,62
 490 652 490 652 490 667 c 0,63,64
 490 679 490 679 498 682 c 128,-1,65
 506 685 506 685 524 685 c 2,0,-1
620 650 m 1,66,-1
 578 650 l 1,67,68
 591 631 591 631 599 611 c 1,69,70
 607 631 607 631 620 650 c 1,66,-1
223 216 m 2,71,-1
 223 595 l 2,72,73
 223 632 223 632 232 650 c 1,74,-1
 126 650 l 1,75,76
 128 645 128 645 129.5 639 c 128,-1,77
 131 633 131 633 132 629 c 2,78,-1
 133 625 l 1,79,80
 134 612 134 612 134 552 c 2,81,-1
 134 273 l 2,82,83
 134 210 134 210 135 198 c 0,84,85
 147 55 147 55 280 25 c 1,86,87
 223 81 223 81 223 216 c 2,71,-1
EndSplineSet
Validated: 19457
EndChar

StartChar: V
Encoding: 86 86 54
Width: 722
VWidth: 1000
Flags: W
HStem: 650 35<1.00781 52.3906 85 227 260.693 328.981 493.008 530.296 573 627 659.642 719.989>
VStem: 214 36<549.137 637.124> 550 35<525.737 644.762>
LayerCount: 2
Fore
SplineSet
637 599 m 2,0,-1
 388 2 l 2,1,2
 383 -11 383 -11 379.5 -15 c 128,-1,3
 376 -19 376 -19 368 -19 c 0,4,5
 357 -19 357 -19 347 2 c 2,6,-1
 78 595 l 1,7,-1
 76 600 l 2,8,9
 74 604 74 604 70.5 609.5 c 128,-1,10
 67 615 67 615 61.5 622 c 128,-1,11
 56 629 56 629 50.5 634.5 c 128,-1,12
 45 640 45 640 37.5 644.5 c 128,-1,13
 30 649 30 649 22 650 c 0,14,15
 1 653 1 653 1 667 c 0,16,17
 1 679 1 679 9 682 c 128,-1,18
 17 685 17 685 34 685 c 2,19,-1
 296 685 l 2,20,21
 308 685 308 685 313.5 684.5 c 128,-1,22
 319 684 319 684 324 679.5 c 128,-1,23
 329 675 329 675 329 667 c 0,24,25
 329 651 329 651 310 650 c 0,26,27
 293 649 293 649 278.5 642.5 c 128,-1,28
 264 636 264 636 257 629.5 c 128,-1,29
 250 623 250 623 250 619 c 0,30,31
 250 578 250 578 316.5 420 c 128,-1,32
 383 262 383 262 421 185 c 1,33,34
 488 354 488 354 501 390 c 0,35,36
 550 528 550 528 550 592 c 0,37,38
 550 616 550 616 543.5 629.5 c 128,-1,39
 537 643 537 643 530.5 646 c 128,-1,40
 524 649 524 649 514 650 c 0,41,42
 493 654 493 654 493 667 c 0,43,44
 493 679 493 679 501 682 c 128,-1,45
 509 685 509 685 526 685 c 2,46,-1
 687 685 l 2,47,48
 699 685 699 685 704.5 684.5 c 128,-1,49
 710 684 710 684 715 679.5 c 128,-1,50
 720 675 720 675 720 667 c 0,51,52
 720 650 720 650 699 650 c 1,53,54
 657 646 657 646 637 599 c 2,0,-1
627 650 m 1,55,-1
 573 650 l 1,56,57
 585 630 585 630 585 592 c 0,58,59
 585 579 585 579 583 561 c 1,60,61
 596 589 596 589 603 609 c 1,62,63
 615 638 615 638 627 650 c 1,55,-1
114 601 m 2,64,-1
 368 42 l 1,65,-1
 405 133 l 1,66,67
 214 554 214 554 214 620 c 0,68,69
 214 640 214 640 227 650 c 1,70,-1
 85 650 l 1,71,72
 96 639 96 639 114 601 c 2,64,-1
EndSplineSet
Validated: 19457
EndChar

StartChar: W
Encoding: 87 87 55
Width: 1000
VWidth: 1000
Flags: W
HStem: 650 35<8.00781 52.3271 83 202 234.387 286.981 383.008 432.648 465 597 628.257 690.989 784.008 837.581 867 917 948.062 991.983>
VStem: 196 35<539.082 643.237> 587 35<540.402 641.003> 847 35<564 640.058>
LayerCount: 2
Fore
SplineSet
934 603 m 2,0,-1
 720 4 l 2,1,2
 716 -9 716 -9 712 -14 c 128,-1,3
 708 -19 708 -19 700 -19 c 128,-1,4
 692 -19 692 -19 688 -14 c 128,-1,5
 684 -9 684 -9 679 5 c 2,6,-1
 513 443 l 1,7,-1
 320 1 l 2,8,9
 315 -11 315 -11 311.5 -15 c 128,-1,10
 308 -19 308 -19 300 -19 c 128,-1,11
 292 -19 292 -19 288 -14 c 128,-1,12
 284 -9 284 -9 280 4 c 2,13,-1
 66 605 l 2,14,15
 51 647 51 647 27 650 c 1,16,17
 8 654 8 654 8 667 c 0,18,19
 8 679 8 679 16 682 c 128,-1,20
 24 685 24 685 41 685 c 2,21,-1
 253 685 l 2,22,23
 265 685 265 685 270.5 684.5 c 128,-1,24
 276 684 276 684 281.5 679.5 c 128,-1,25
 287 675 287 675 287 667 c 0,26,27
 287 650 287 650 268 650 c 1,28,29
 255 648 255 648 243 640 c 128,-1,30
 231 632 231 632 231 624 c 0,31,32
 231 580 231 580 293 397 c 1,33,-1
 364 193 l 1,34,-1
 494 492 l 1,35,36
 471 558 471 558 456 592 c 0,37,38
 446 617 446 617 435 630 c 128,-1,39
 424 643 424 643 417.5 645.5 c 128,-1,40
 411 648 411 648 399 650 c 0,41,42
 383 653 383 653 383 667 c 0,43,44
 383 679 383 679 391.5 682 c 128,-1,45
 400 685 400 685 417 685 c 2,46,-1
 658 685 l 2,47,48
 670 685 670 685 675.5 684.5 c 128,-1,49
 681 684 681 684 686 679.5 c 128,-1,50
 691 675 691 675 691 667 c 0,51,52
 691 650 691 650 670 650 c 1,53,54
 639 648 639 648 622 626 c 1,55,56
 624 572 624 572 678 418 c 128,-1,57
 732 264 732 264 753 217 c 1,58,59
 785 312 785 312 801 361 c 128,-1,60
 817 410 817 410 832 474 c 128,-1,61
 847 538 847 538 847 578 c 0,62,63
 847 602 847 602 843.5 617.5 c 128,-1,64
 840 633 840 633 831.5 639 c 128,-1,65
 823 645 823 645 817.5 647 c 128,-1,66
 812 649 812 649 800 650 c 0,67,68
 784 652 784 652 784 667 c 0,69,70
 784 679 784 679 792 682 c 128,-1,71
 800 685 800 685 817 685 c 2,72,-1
 959 685 l 2,73,74
 971 685 971 685 976.5 684.5 c 128,-1,75
 982 684 982 684 987 679.5 c 128,-1,76
 992 675 992 675 992 667 c 0,77,78
 992 653 992 653 975 650 c 0,79,80
 961 648 961 648 952 638 c 128,-1,81
 943 628 943 628 934 603 c 2,0,-1
917 650 m 1,82,-1
 867 650 l 1,83,84
 882 624 882 624 882 564 c 1,85,86
 911 640 911 640 917 650 c 1,82,-1
491 601 m 1,87,-1
 700 49 l 1,88,89
 707 72 707 72 738 157 c 1,90,91
 720 201 720 201 690 280.5 c 128,-1,92
 660 360 660 360 623.5 472.5 c 128,-1,93
 587 585 587 585 587 620 c 0,94,95
 587 642 587 642 597 650 c 1,96,-1
 465 650 l 1,97,98
 478 632 478 632 491 601 c 1,87,-1
103 604 m 1,99,-1
 302 47 l 1,100,-1
 344 144 l 1,101,102
 196 550 196 550 196 625 c 0,103,104
 196 640 196 640 202 650 c 1,105,-1
 83 650 l 1,106,107
 96 628 96 628 103 604 c 1,99,-1
EndSplineSet
Validated: 19457
EndChar

StartChar: X
Encoding: 88 88 56
Width: 722
VWidth: 1000
Flags: W
HStem: 0 35<19.011 74.7263 112 177 372.011 459.339 494 626> 650 35<23.0078 77.5444 109 237 273.627 345.989 426.008 473.301 503 568 610.151 691.989>
VStem: 164 34<44.0986 83.9062> 480 35<603 643.843>
LayerCount: 2
Fore
SplineSet
459 685 m 2,0,-1
 659 685 l 2,1,2
 671 685 671 685 676.5 684.5 c 128,-1,3
 682 684 682 684 687 679.5 c 128,-1,4
 692 675 692 675 692 667 c 0,5,6
 692 652 692 652 668 650 c 0,7,8
 630 647 630 647 594.5 623.5 c 128,-1,9
 559 600 559 600 538 577 c 128,-1,10
 517 554 517 554 485 511 c 2,11,-1
 435 446 l 2,12,13
 429 438 429 438 423 430 c 128,-1,14
 417 422 417 422 413.5 417 c 128,-1,15
 410 412 410 412 409 411 c 1,16,-1
 545 210 l 2,17,18
 644 62 644 62 664 44 c 1,19,20
 673 38 673 38 689 35 c 0,21,22
 705 31 705 31 705 18 c 0,23,24
 705 6 705 6 697 3 c 128,-1,25
 689 0 689 0 672 0 c 2,26,-1
 405 0 l 2,27,28
 393 0 393 0 387.5 0.5 c 128,-1,29
 382 1 382 1 377 5.5 c 128,-1,30
 372 10 372 10 372 18 c 0,31,32
 372 35 372 35 398 35 c 0,33,34
 439 35 439 35 460 49 c 1,35,36
 442 100 442 100 333 266 c 1,37,38
 255 180 255 180 220 138 c 1,39,40
 198 109 198 109 198 85 c 0,41,42
 198 83 198 83 198 80 c 128,-1,43
 198 77 198 77 200 69 c 128,-1,44
 202 61 202 61 205.5 54.5 c 128,-1,45
 209 48 209 48 217 42.5 c 128,-1,46
 225 37 225 37 235 35 c 0,47,48
 257 32 257 32 257 18 c 0,49,50
 257 6 257 6 248.5 3 c 128,-1,51
 240 0 240 0 223 0 c 2,52,-1
 52 0 l 2,53,54
 40 0 40 0 34.5 0.5 c 128,-1,55
 29 1 29 1 24 5.5 c 128,-1,56
 19 10 19 10 19 18 c 0,57,58
 19 31 19 31 40 35 c 0,59,60
 59 39 59 39 85 60 c 128,-1,61
 111 81 111 81 132 103 c 128,-1,62
 153 125 153 125 200 178 c 2,63,-1
 308 302 l 1,64,65
 167 520 167 520 89 619 c 0,66,67
 75 637 75 637 67 642 c 128,-1,68
 59 647 59 647 38 650 c 0,69,70
 23 653 23 653 23 667 c 0,71,72
 23 679 23 679 31 682 c 128,-1,73
 39 685 39 685 56 685 c 2,74,-1
 313 685 l 2,75,76
 325 685 325 685 330.5 684.5 c 128,-1,77
 336 684 336 684 341 679.5 c 128,-1,78
 346 675 346 675 346 667 c 0,79,80
 346 650 346 650 322 650 c 0,81,82
 293 650 293 650 273 639 c 1,83,84
 286 600 286 600 384 449 c 1,85,86
 408 477 408 477 440 522 c 1,87,88
 458 545 458 545 464 554 c 128,-1,89
 470 563 470 563 475 575.5 c 128,-1,90
 480 588 480 588 480 602 c 0,91,92
 480 646 480 646 445 650 c 0,93,94
 426 652 426 652 426 667 c 0,95,96
 426 679 426 679 434 682 c 128,-1,97
 442 685 442 685 459 685 c 2,0,-1
568 650 m 1,98,-1
 503 650 l 1,99,100
 515 631 515 631 515 603 c 1,101,102
 554 640 554 640 568 650 c 1,98,-1
162 84 m 1,103,-1
 112 35 l 1,104,-1
 177 35 l 1,105,106
 169 46 169 46 164 70 c 0,107,108
 164 72 164 72 163 78 c 2,109,-1
 162 84 l 1,103,-1
237 650 m 1,110,-1
 109 650 l 1,111,112
 162 584 162 584 280 407.5 c 128,-1,113
 398 231 398 231 445 156 c 1,114,115
 496 69 496 69 496 46 c 0,116,117
 496 41 496 41 494 35 c 1,118,-1
 626 35 l 1,119,120
 580 93 580 93 467 261.5 c 128,-1,121
 354 430 354 430 299 516 c 1,122,123
 270 564 270 564 255.5 591.5 c 128,-1,124
 241 619 241 619 239 628 c 128,-1,125
 237 637 237 637 237 650 c 1,110,-1
EndSplineSet
Validated: 19457
EndChar

StartChar: Y
Encoding: 89 89 57
Width: 722
VWidth: 1000
Flags: W
HStem: 0 35<187.012 268.648 304 419 454.351 535.992> 650 35<19.0083 62.3258 103 220 254 306.989 483.008 542.435 575 625 656.905 702.981>
VStem: 280 35<47.3525 263> 408 35<47.8986 304>
LayerCount: 2
Fore
SplineSet
422 335 m 1,0,-1
 551 543 l 2,1,2
 564 564 564 564 564 584 c 0,3,4
 564 594 564 594 560 606.5 c 128,-1,5
 556 619 556 619 542 633 c 128,-1,6
 528 647 528 647 505 650 c 0,7,8
 483 653 483 653 483 667 c 0,9,10
 483 679 483 679 491.5 682 c 128,-1,11
 500 685 500 685 517 685 c 2,12,-1
 670 685 l 2,13,14
 682 685 682 685 687.5 684.5 c 128,-1,15
 693 684 693 684 698 679.5 c 128,-1,16
 703 675 703 675 703 667 c 0,17,18
 703 653 703 653 684 650 c 1,19,20
 673 647 673 647 660.5 636 c 128,-1,21
 648 625 648 625 631.5 602 c 128,-1,22
 615 579 615 579 604.5 563 c 128,-1,23
 594 547 594 547 573 514 c 2,24,-1
 443 304 l 1,25,-1
 443 105 l 2,26,27
 443 60 443 60 454 47.5 c 128,-1,28
 465 35 465 35 506 35 c 0,29,30
 536 35 536 35 536 18 c 0,31,32
 536 6 536 6 528 3 c 128,-1,33
 520 0 520 0 503 0 c 2,34,-1
 221 0 l 2,35,36
 209 0 209 0 203.5 0.5 c 128,-1,37
 198 1 198 1 192.5 5.5 c 128,-1,38
 187 10 187 10 187 18 c 0,39,40
 187 35 187 35 213 35 c 0,41,42
 258 36 258 36 269 47 c 128,-1,43
 280 58 280 58 280 105 c 2,44,-1
 280 263 l 1,45,-1
 80 618 l 2,46,47
 68 639 68 639 62.5 644 c 128,-1,48
 57 649 57 649 42 650 c 1,49,50
 19 650 19 650 19 667 c 0,51,52
 19 679 19 679 27.5 682 c 128,-1,53
 36 685 36 685 53 685 c 2,54,-1
 274 685 l 2,55,56
 286 685 286 685 291.5 684.5 c 128,-1,57
 297 684 297 684 302 679.5 c 128,-1,58
 307 675 307 675 307 667 c 0,59,60
 307 650 307 650 282 650 c 0,61,62
 269 650 269 650 254 645 c 1,63,64
 259 626 259 626 267 612 c 0,65,66
 279 589 279 589 287 577 c 1,67,-1
 422 335 l 1,0,-1
625 650 m 1,68,-1
 575 650 l 1,69,70
 588 636 588 636 595 612 c 1,71,72
 598 617 598 617 625 650 c 1,68,-1
304 35 m 1,73,-1
 419 35 l 1,74,75
 408 57 408 57 408 103 c 2,76,-1
 408 290 l 1,77,78
 400 304 400 304 274 527 c 0,79,80
 270 534 270 534 255 560 c 128,-1,81
 240 586 240 586 236 594 c 0,82,83
 220 627 220 627 220 648 c 0,84,85
 220 649 220 649 220 650 c 1,86,-1
 103 650 l 1,87,-1
 315 272 l 1,88,-1
 315 103 l 2,89,90
 315 57 315 57 304 35 c 1,73,-1
EndSplineSet
Validated: 19457
EndChar

StartChar: Z
Encoding: 90 90 58
Width: 666
VWidth: 1000
Flags: W
HStem: 0 35<77 179 220 460.859 507 577.024> 650 35<113 166 217.997 413 454 556>
LayerCount: 2
Fore
SplineSet
596 649 m 2,0,-1
 220 35 l 1,1,-1
 362 35 l 2,2,3
 460 35 460 35 522 89 c 128,-1,4
 584 143 584 143 599 213 c 0,5,6
 601 225 601 225 602.5 230 c 128,-1,7
 604 235 604 235 608 239 c 128,-1,8
 612 243 612 243 619 243 c 0,9,10
 625 243 625 243 630.5 238 c 128,-1,11
 636 233 636 233 636 225 c 1,12,-1
 609 28 l 2,13,14
 606 8 606 8 601.5 4 c 128,-1,15
 597 0 597 0 575 0 c 2,16,-1
 62 0 l 2,17,18
 50 0 50 0 44.5 0.5 c 128,-1,19
 39 1 39 1 33.5 5.5 c 128,-1,20
 28 10 28 10 28 18 c 0,21,22
 28 23 28 23 37 36 c 2,23,-1
 413 650 l 1,24,-1
 332 650 l 2,25,26
 233 650 233 650 171 610 c 1,27,28
 108 571 108 571 97 504 c 1,29,30
 93 489 93 489 80 489 c 0,31,32
 74 489 74 489 68 494 c 128,-1,33
 62 499 62 499 62 508 c 1,34,-1
 64 521 l 1,35,-1
 79 656 l 2,36,37
 81 676 81 676 86 680.5 c 128,-1,38
 91 685 91 685 114 685 c 2,39,-1
 572 685 l 2,40,41
 584 685 584 685 589.5 684.5 c 128,-1,42
 595 684 595 684 600 679.5 c 128,-1,43
 605 675 605 675 605 667 c 0,44,45
 605 662 605 662 596 649 c 2,0,-1
113 650 m 1,46,-1
 108 605 l 1,47,48
 141 635 141 635 166 649 c 1,49,-1
 166 650 l 1,50,-1
 113 650 l 1,46,-1
454 650 m 1,51,-1
 77 35 l 1,52,-1
 179 35 l 1,53,-1
 556 650 l 1,54,-1
 454 650 l 1,51,-1
507 36 m 1,55,-1
 507 35 l 1,56,-1
 575 35 l 1,57,58
 583 94 583 94 584 102 c 1,59,60
 550 61 550 61 507 36 c 1,55,-1
EndSplineSet
Validated: 19457
EndChar

StartChar: k
Encoding: 107 107 59
Width: 555
VWidth: 1000
Flags: W
HStem: 0 35<20.0146 49.3273 89 179 210.444 247.992 294.011 337 372 465> 428 35<304.008 340.956 372 416 456.219 517.98> 650 35<20.0078 57.1406 89 168>
VStem: 66 35<39.613 644.853> 168 35<39.6758 196 246 649.807> 342 35<398.059 427.654>
LayerCount: 2
Fore
SplineSet
338 463 m 2,0,-1
 485 463 l 2,1,2
 497 463 497 463 502.5 462.5 c 128,-1,3
 508 462 508 462 513 457.5 c 128,-1,4
 518 453 518 453 518 445 c 0,5,6
 518 431 518 431 498 428 c 0,7,8
 459 422 459 422 380 355 c 0,9,10
 334 316 334 316 308 290 c 1,11,12
 318 276 318 276 405 166.5 c 128,-1,13
 492 57 492 57 508 42 c 0,14,15
 512 38 512 38 522 35 c 0,16,17
 538 30 538 30 538 18 c 128,-1,18
 538 6 538 6 530 3 c 128,-1,19
 522 0 522 0 504 0 c 2,20,-1
 327 0 l 2,21,22
 315 0 315 0 309.5 0.5 c 128,-1,23
 304 1 304 1 299 5.5 c 128,-1,24
 294 10 294 10 294 18 c 0,25,26
 294 34 294 34 325 36 c 0,27,28
 330 37 330 37 331.5 38.5 c 128,-1,29
 333 40 333 40 337 40 c 1,30,31
 330 60 330 60 311 82 c 1,32,33
 299 98 299 98 259.5 147.5 c 128,-1,34
 220 197 220 197 214 205 c 1,35,-1
 203 196 l 1,36,-1
 203 97 l 2,37,38
 203 40 203 40 231 35 c 0,39,40
 248 31 248 31 248 18 c 0,41,42
 248 6 248 6 240 3 c 128,-1,43
 232 0 232 0 215 0 c 2,44,-1
 53 0 l 2,45,46
 41 0 41 0 35.5 0.5 c 128,-1,47
 30 1 30 1 25 5.5 c 128,-1,48
 20 10 20 10 20 18 c 0,49,50
 20 31 20 31 35 35 c 1,51,52
 44 36 44 36 49.5 39.5 c 128,-1,53
 55 43 55 43 60.5 61.5 c 128,-1,54
 66 80 66 80 66 114 c 2,55,-1
 66 571 l 2,56,57
 66 646 66 646 38 650 c 0,58,59
 36 650 36 650 32 651 c 128,-1,60
 28 652 28 652 24 656.5 c 128,-1,61
 20 661 20 661 20 667 c 0,62,63
 20 679 20 679 28 682 c 128,-1,64
 36 685 36 685 53 685 c 2,65,-1
 169 685 l 2,66,67
 192 685 192 685 197.5 680 c 128,-1,68
 203 675 203 675 203 649 c 2,69,-1
 203 246 l 1,70,71
 208 251 208 251 248.5 286.5 c 128,-1,72
 289 322 289 322 301 334 c 1,73,74
 342 369 342 369 342 400 c 0,75,76
 342 425 342 425 323 428 c 1,77,78
 304 428 304 428 304 445 c 0,79,80
 304 457 304 457 312 460 c 128,-1,81
 320 463 320 463 338 463 c 2,0,-1
377 398 m 1,82,-1
 416 428 l 1,83,-1
 372 428 l 1,84,85
 377 417 377 417 377 398 c 1,82,-1
101 573 m 2,86,-1
 101 112 l 2,87,88
 101 61 101 61 89 35 c 1,89,-1
 179 35 l 1,90,91
 168 58 168 58 168 95 c 2,92,-1
 168 650 l 1,93,-1
 89 650 l 1,94,95
 101 624 101 624 101 573 c 2,86,-1
240 228 m 1,96,-1
 355 84 l 1,97,98
 372 59 372 59 372 35 c 1,99,-1
 465 35 l 1,100,-1
 281 266 l 1,101,-1
 240 228 l 1,96,-1
EndSplineSet
Validated: 19457
EndChar

StartChar: setminus
Encoding: 8726 8726 60
Width: 513
VWidth: 1000
Flags: W
LayerCount: 2
Fore
SplineSet
63 710 m 2,0,1
 57 724 57 724 57 728 c 0,2,3
 57 738 57 738 63 744 c 128,-1,4
 69 750 69 750 78 750 c 0,5,6
 92 750 92 750 97 740 c 1,7,-1
 450 -210 l 2,8,9
 456 -224 456 -224 456 -228 c 0,10,11
 456 -238 456 -238 449.5 -244 c 128,-1,12
 443 -250 443 -250 435 -250 c 0,13,14
 418 -250 418 -250 410 -226 c 2,15,-1
 63 710 l 2,0,1
EndSplineSet
Validated: 3073
EndChar

StartChar: lbracebig
Encoding: 123 123 61
Width: 499
VWidth: 1548
Flags: W
HStem: -250 26<366.294 403.125> 724 26<366.294 403.125>
VStem: 218 65<-171.934 181.406 318.594 671.245>
LayerCount: 2
Fore
SplineSet
218 -121 m 2,0,-1
 218 123 l 2,1,2
 218 162 218 162 189 188.5 c 128,-1,3
 160 215 160 215 128 228 c 128,-1,4
 96 241 96 241 95 244 c 1,5,-1
 95 255 l 1,6,7
 97 259 97 259 128.5 272 c 128,-1,8
 160 285 160 285 189 311.5 c 128,-1,9
 218 338 218 338 218 377 c 2,10,-1
 218 621 l 2,11,12
 218 674 218 674 270 705.5 c 128,-1,13
 322 737 322 737 387 750 c 1,14,-1
 397 750 l 2,15,16
 399 750 399 750 402.5 747 c 128,-1,17
 406 744 406 744 406 742 c 2,18,-1
 406 731 l 2,19,20
 406 724 406 724 400 724 c 1,21,22
 283 687 283 687 283 617 c 2,23,-1
 283 374 l 2,24,25
 283 293 283 293 146 250 c 1,26,27
 283 207 283 207 283 126 c 2,28,-1
 283 -117 l 2,29,30
 283 -187 283 -187 400 -224 c 1,31,32
 406 -224 406 -224 406 -231 c 2,33,-1
 406 -242 l 2,34,35
 406 -244 406 -244 402.5 -247 c 128,-1,36
 399 -250 399 -250 397 -250 c 2,37,-1
 387 -250 l 1,38,39
 348 -242 348 -242 313.5 -229 c 128,-1,40
 279 -216 279 -216 248.5 -187 c 128,-1,41
 218 -158 218 -158 218 -121 c 2,0,-1
EndSplineSet
Validated: 19457
EndChar

StartChar: rbracebig
Encoding: 125 125 62
Width: 499
VWidth: 1548
Flags: W
HStem: -250 26<97.4639 134.706> 724 26<97.4639 134.706>
VStem: 218 65<-171.934 181.68 318.32 671.934>
LayerCount: 2
Fore
SplineSet
95 -242 m 2,0,-1
 95 -231 l 2,1,2
 95 -224 95 -224 101 -224 c 1,3,4
 218 -187 218 -187 218 -117 c 2,5,-1
 218 126 l 2,6,7
 218 208 218 208 354 250 c 1,8,9
 218 292 218 292 218 374 c 2,10,-1
 218 617 l 2,11,12
 218 687 218 687 101 724 c 1,13,14
 95 724 95 724 95 731 c 2,15,-1
 95 742 l 2,16,17
 95 744 95 744 98 747 c 128,-1,18
 101 750 101 750 103 750 c 2,19,-1
 113 750 l 1,20,21
 142 744 142 744 168 735 c 128,-1,22
 194 726 194 726 222 711.5 c 128,-1,23
 250 697 250 697 266.5 673.5 c 128,-1,24
 283 650 283 650 283 621 c 2,25,-1
 283 377 l 2,26,27
 283 338 283 338 312 311.5 c 128,-1,28
 341 285 341 285 373 272 c 128,-1,29
 405 259 405 259 406 255 c 1,30,-1
 406 244 l 1,31,32
 404 241 404 241 372.5 228 c 128,-1,33
 341 215 341 215 312 188.5 c 128,-1,34
 283 162 283 162 283 123 c 2,35,-1
 283 -121 l 2,36,37
 283 -150 283 -150 266.5 -173.5 c 128,-1,38
 250 -197 250 -197 222 -211.5 c 128,-1,39
 194 -226 194 -226 168 -235 c 128,-1,40
 142 -244 142 -244 113 -250 c 1,41,-1
 103 -250 l 2,42,43
 101 -250 101 -250 98 -247 c 128,-1,44
 95 -244 95 -244 95 -242 c 2,0,-1
EndSplineSet
Validated: 19457
EndChar

StartChar: lparenbig
Encoding: 40 40 63
Width: 392
VWidth: 1548
Flags: W
VStem: 131 65<63.2441 437.089>
LayerCount: 2
Fore
SplineSet
335 -248 m 1,0,1
 231 -162 231 -162 181 -30 c 128,-1,2
 131 102 131 102 131 250 c 0,3,4
 131 399 131 399 181 530.5 c 128,-1,5
 231 662 231 662 335 748 c 1,6,7
 339 750 339 750 340 750 c 2,8,-1
 350 750 l 2,9,10
 358 750 358 750 358 741 c 0,11,12
 358 737 358 737 357 735 c 0,13,14
 196 573 196 573 196 250 c 128,-1,15
 196 -73 196 -73 357 -235 c 0,16,17
 358 -237 358 -237 358 -241 c 0,18,19
 358 -250 358 -250 350 -250 c 2,20,-1
 340 -250 l 2,21,22
 339 -250 339 -250 335 -248 c 1,0,1
EndSplineSet
Validated: 19457
EndChar

StartChar: rparenbig
Encoding: 41 41 64
Width: 392
VWidth: 1548
Flags: W
VStem: 196 65<61.0977 439.236>
LayerCount: 2
Fore
SplineSet
43 -250 m 2,0,1
 35 -250 35 -250 35 -241 c 0,2,3
 35 -237 35 -237 37 -235 c 0,4,5
 196 -73 196 -73 196 250 c 128,-1,6
 196 573 196 573 37 735 c 0,7,8
 35 737 35 737 35 741 c 0,9,10
 35 750 35 750 43 750 c 2,11,-1
 53 750 l 2,12,13
 54 750 54 750 58 748 c 1,14,15
 162 662 162 662 211.5 530.5 c 128,-1,16
 261 399 261 399 261 250 c 0,17,18
 261 102 261 102 211.5 -30 c 128,-1,19
 162 -162 162 -162 58 -248 c 1,20,21
 54 -250 54 -250 53 -250 c 2,22,-1
 43 -250 l 2,0,1
EndSplineSet
Validated: 19457
EndChar

StartChar: lbracketbig
Encoding: 91 91 65
Width: 356
VWidth: 1548
Flags: W
HStem: -250 36<209 339> 714 36<209 339>
VStem: 173 36<-214 714>
LayerCount: 2
Fore
SplineSet
173 -250 m 1,0,-1
 173 750 l 1,1,-1
 339 750 l 1,2,-1
 339 714 l 1,3,-1
 209 714 l 1,4,-1
 209 -214 l 1,5,-1
 339 -214 l 1,6,-1
 339 -250 l 1,7,-1
 173 -250 l 1,0,-1
EndSplineSet
Validated: 19457
EndChar

StartChar: backslashbig
Encoding: 92 92 66
Width: 494
VWidth: 1548
Flags: W
VStem: 48 36<740 749.842> 412 36<-249.842 -240>
LayerCount: 2
Fore
SplineSet
412 -240 m 2,0,-1
 50 723 l 1,1,-1
 49 725 l 2,2,3
 48 727 48 727 48 728 c 2,4,-1
 48 734 l 2,5,6
 48 745 48 745 64 750 c 1,7,-1
 70 750 l 1,8,9
 81 746 81 746 84 740 c 2,10,-1
 446 -223 l 1,11,-1
 447 -225 l 2,12,13
 448 -227 448 -227 448 -228 c 2,14,-1
 448 -234 l 2,15,16
 448 -245 448 -245 432 -250 c 1,17,-1
 426 -250 l 1,18,19
 415 -246 415 -246 412 -240 c 2,0,-1
EndSplineSet
Validated: 19457
EndChar

StartChar: rbracketbig
Encoding: 93 93 67
Width: 356
VWidth: 1548
Flags: W
HStem: -250 36<18 148> 714 36<18 148>
VStem: 148 36<-214 714>
LayerCount: 2
Fore
SplineSet
18 -250 m 1,0,-1
 18 -214 l 1,1,-1
 148 -214 l 1,2,-1
 148 714 l 1,3,-1
 18 714 l 1,4,-1
 18 750 l 1,5,-1
 184 750 l 1,6,-1
 184 -250 l 1,7,-1
 18 -250 l 1,0,-1
EndSplineSet
Validated: 19457
EndChar

StartChar: slashbig
Encoding: 47 47 68
Width: 494
VWidth: 1548
Flags: W
VStem: 48 36<-249.842 -240> 412 36<740 749.842>
LayerCount: 2
Fore
SplineSet
48 -234 m 2,0,-1
 48 -228 l 1,1,-1
 49 -227 l 1,2,-1
 412 740 l 2,3,4
 415 746 415 746 426 750 c 1,5,-1
 432 750 l 1,6,7
 448 745 448 745 448 734 c 2,8,-1
 448 728 l 1,9,-1
 448 727 l 1,10,-1
 84 -240 l 2,11,12
 81 -246 81 -246 70 -250 c 1,13,-1
 64 -250 l 1,14,15
 48 -245 48 -245 48 -234 c 2,0,-1
EndSplineSet
Validated: 19457
EndChar

StartChar: lceilbig
Encoding: 8968 8968 69
Width: 404
VWidth: 1548
Flags: W
HStem: 714 36<209 387>
VStem: 173 36<-250 714>
LayerCount: 2
Fore
SplineSet
173 -250 m 1,0,-1
 173 750 l 1,1,-1
 387 750 l 1,2,-1
 387 714 l 1,3,-1
 209 714 l 1,4,-1
 209 -250 l 1,5,-1
 173 -250 l 1,0,-1
EndSplineSet
Validated: 19457
EndChar

StartChar: rceilbig
Encoding: 8969 8969 70
Width: 404
VWidth: 1548
Flags: W
HStem: 714 36<18 196>
VStem: 196 36<-250 714>
LayerCount: 2
Fore
SplineSet
196 -250 m 1,0,-1
 196 714 l 1,1,-1
 18 714 l 1,2,-1
 18 750 l 1,3,-1
 232 750 l 1,4,-1
 232 -250 l 1,5,-1
 196 -250 l 1,0,-1
EndSplineSet
Validated: 19457
EndChar

StartChar: lfloorbig
Encoding: 8970 8970 71
Width: 404
VWidth: 1548
Flags: W
HStem: -250 36<209 387>
VStem: 173 36<-214 750>
LayerCount: 2
Fore
SplineSet
173 -250 m 1,0,-1
 173 750 l 1,1,-1
 209 750 l 1,2,-1
 209 -214 l 1,3,-1
 387 -214 l 1,4,-1
 387 -250 l 1,5,-1
 173 -250 l 1,0,-1
EndSplineSet
Validated: 19457
EndChar

StartChar: rfloorbig
Encoding: 8971 8971 72
Width: 404
VWidth: 1548
Flags: W
HStem: -250 36<18 196>
VStem: 196 36<-214 750>
LayerCount: 2
Fore
SplineSet
18 -250 m 1,0,-1
 18 -214 l 1,1,-1
 196 -214 l 1,2,-1
 196 750 l 1,3,-1
 232 750 l 1,4,-1
 232 -250 l 1,5,-1
 18 -250 l 1,0,-1
EndSplineSet
Validated: 19457
EndChar

StartChar: langlebig
Encoding: 12296 12296 73
Width: 404
VWidth: 1548
Flags: W
VStem: 304 34<-249.997 -239 739 749.997>
LayerCount: 2
Fore
SplineSet
304 -239 m 2,0,-1
 85 243 l 2,1,2
 84 244 84 244 84 250 c 0,3,4
 84 255 84 255 85 256 c 2,5,-1
 304 739 l 2,6,7
 309 750 309 750 321 750 c 0,8,9
 328 750 328 750 333 744.5 c 128,-1,10
 338 739 338 739 338 732 c 0,11,12
 338 728 338 728 337 726 c 2,13,-1
 121 250 l 1,14,-1
 337 -226 l 2,15,16
 338 -228 338 -228 338 -232 c 0,17,18
 338 -239 338 -239 333 -244.5 c 128,-1,19
 328 -250 328 -250 321 -250 c 0,20,21
 309 -250 309 -250 304 -239 c 2,0,-1
EndSplineSet
Validated: 19457
EndChar

StartChar: ranglebig
Encoding: 12297 12297 74
Width: 404
VWidth: 1548
Flags: W
VStem: 66 35<-249.933 -239 739 749.933>
LayerCount: 2
Fore
SplineSet
66 -232 m 0,0,1
 66 -228 66 -228 68 -226 c 2,2,-1
 283 250 l 1,3,-1
 68 726 l 2,4,5
 66 728 66 728 66 732 c 0,6,7
 66 739 66 739 72 744.5 c 128,-1,8
 78 750 78 750 85 750 c 0,9,10
 96 750 96 750 101 739 c 2,11,-1
 320 256 l 2,12,13
 321 254 321 254 321 250 c 128,-1,14
 321 246 321 246 320 243 c 2,15,-1
 101 -239 l 2,16,17
 96 -250 96 -250 85 -250 c 0,18,19
 78 -250 78 -250 72 -244.5 c 128,-1,20
 66 -239 66 -239 66 -232 c 0,0,1
EndSplineSet
Validated: 19457
EndChar

StartChar: accentdotlow
Encoding: 46 46 75
Width: 500
VWidth: 1006
Flags: W
HStem: -195 130<202.578 297.422>
VStem: 185 130<-177.422 -82.5781>
LayerCount: 2
Fore
SplineSet
250 -195 m 128,-1,1
 225 -195 225 -195 205 -175 c 128,-1,2
 185 -155 185 -155 185 -130 c 128,-1,3
 185 -105 185 -105 205 -85 c 128,-1,4
 225 -65 225 -65 250 -65 c 128,-1,5
 275 -65 275 -65 295 -85 c 128,-1,6
 315 -105 315 -105 315 -130 c 128,-1,7
 315 -155 315 -155 295 -175 c 128,-1,0
 275 -195 275 -195 250 -195 c 128,-1,1
EndSplineSet
Validated: 19457
EndChar

StartChar: Box
Encoding: 9633 9633 76
Width: 747
VWidth: 1000
Flags: W
HStem: 59 40<131 616> 584 40<131 616>
VStem: 91 40<99 584> 616 40<99 584>
LayerCount: 2
Fore
SplineSet
656 604 m 2,0,-1
 656 79 l 2,1,2
 656 71 656 71 650 65 c 128,-1,3
 644 59 644 59 636 59 c 2,4,-1
 111 59 l 2,5,6
 103 59 103 59 97 65 c 128,-1,7
 91 71 91 71 91 79 c 2,8,-1
 91 604 l 2,9,10
 91 612 91 612 97 618 c 128,-1,11
 103 624 103 624 111 624 c 2,12,-1
 636 624 l 2,13,14
 644 624 644 624 650 618 c 128,-1,15
 656 612 656 612 656 604 c 2,0,-1
131 584 m 1,16,-1
 131 99 l 1,17,-1
 616 99 l 1,18,-1
 616 584 l 1,19,-1
 131 584 l 1,16,-1
EndSplineSet
EndChar

StartChar: Diamond
Encoding: 9671 9671 77
Width: 791
VWidth: 1000
Flags: W
HStem: 1 21G<391 400>
LayerCount: 2
Fore
SplineSet
730 328 m 1,0,-1
 410 7 l 2,1,2
 404 1 404 1 396 1 c 0,3,4
 386 1 386 1 382 7 c 1,5,-1
 61 328 l 2,6,7
 56 333 56 333 56 342 c 0,8,9
 56 349 56 349 61 356 c 1,10,-1
 382 676 l 1,11,12
 386 682 386 682 396 682 c 0,13,14
 404 682 404 682 410 676 c 2,15,-1
 730 356 l 2,16,17
 736 350 736 350 736 342 c 0,18,19
 736 332 736 332 730 328 c 1,0,-1
104 342 m 1,20,-1
 396 50 l 1,21,-1
 688 342 l 1,22,-1
 396 634 l 1,23,-1
 104 342 l 1,20,-1
EndSplineSet
EndChar

StartChar: Join
Encoding: 8904 8904 78
Width: 722
VWidth: 1000
Flags: W
VStem: 63 40<115 569> 619 40<115 569>
LayerCount: 2
Fore
SplineSet
361 370 m 1,0,-1
 625 631 l 2,1,2
 631 637 631 637 639 637 c 128,-1,3
 647 637 647 637 653 631 c 128,-1,4
 659 625 659 625 659 617 c 2,5,-1
 659 67 l 2,6,7
 659 59 659 59 653 53 c 128,-1,8
 647 47 647 47 639 47 c 0,9,10
 632 47 632 47 625 52 c 1,11,-1
 361 314 l 1,12,-1
 97 52 l 2,13,14
 92 47 92 47 83 47 c 0,15,16
 75 47 75 47 69 53 c 128,-1,17
 63 59 63 59 63 67 c 2,18,-1
 63 617 l 2,19,20
 63 625 63 625 69 631 c 128,-1,21
 75 637 75 637 83 637 c 0,22,23
 92 637 92 637 97 631 c 2,24,-1
 361 370 l 1,0,-1
333 342 m 1,25,-1
 103 569 l 1,26,-1
 103 115 l 1,27,-1
 333 342 l 1,25,-1
390 342 m 1,28,-1
 619 115 l 1,29,-1
 619 569 l 1,30,-1
 390 342 l 1,28,-1
EndSplineSet
EndChar

StartChar: triangleup
Encoding: 9651 9651 79
Width: 913
VWidth: 1000
Flags: W
HStem: 0 43<119 794> 696 20G<450 463.5>
LayerCount: 2
Fore
SplineSet
479 699 m 2,0,-1
 846 38 l 2,1,2
 852 28 852 28 852 22 c 0,3,4
 852 0 852 0 817 0 c 2,5,-1
 96 0 l 2,6,7
 61 0 61 0 61 22 c 0,8,9
 61 29 61 29 68 41 c 2,10,-1
 434 699 l 2,11,12
 443 716 443 716 457 716 c 0,13,14
 470 716 470 716 479 699 c 2,0,-1
456 650 m 1,15,-1
 119 43 l 1,16,-1
 794 43 l 1,17,-1
 456 650 l 1,15,-1
EndSplineSet
EndChar

StartChar: triangledown
Encoding: 9661 9661 80
Width: 913
VWidth: 1000
Flags: W
HStem: 457 43<119 794>
LayerCount: 2
Fore
SplineSet
845 460 m 2,0,-1
 479 -199 l 2,1,2
 470 -216 470 -216 457 -216 c 128,-1,3
 444 -216 444 -216 433 -196 c 2,4,-1
 67 462 l 2,5,6
 61 474 61 474 61 478 c 0,7,8
 61 500 61 500 96 500 c 2,9,-1
 817 500 l 2,10,11
 852 500 852 500 852 478 c 0,12,13
 852 474 852 474 845 460 c 2,0,-1
119 457 m 1,14,-1
 457 -150 l 1,15,-1
 794 457 l 1,16,-1
 119 457 l 1,14,-1
EndSplineSet
EndChar

StartChar: NameMe.9675
Encoding: 9675 9675 81
Width: 1027
VWidth: 1000
Flags: W
HStem: -216 43<381.793 645.494> 673 43<381.616 645.224>
VStem: 57 43<115.167 384.833> 927 43<114.712 385.238>
LayerCount: 2
Fore
SplineSet
970 250 m 0,0,1
 970 57 970 57 835.5 -79.5 c 128,-1,2
 701 -216 701 -216 514 -216 c 0,3,4
 390 -216 390 -216 284.5 -153.5 c 128,-1,5
 179 -91 179 -91 118 16.5 c 128,-1,6
 57 124 57 124 57 250 c 128,-1,7
 57 376 57 376 118 483.5 c 128,-1,8
 179 591 179 591 284.5 653.5 c 128,-1,9
 390 716 390 716 514 716 c 0,10,11
 637 716 637 716 742 654 c 128,-1,12
 847 592 847 592 908.5 484.5 c 128,-1,13
 970 377 970 377 970 250 c 0,0,1
514 -173 m 0,14,15
 684 -173 684 -173 805.5 -49 c 128,-1,16
 927 75 927 75 927 250 c 128,-1,17
 927 425 927 425 805.5 549 c 128,-1,18
 684 673 684 673 513 673 c 0,19,20
 343 673 343 673 221.5 549 c 128,-1,21
 100 425 100 425 100 250 c 128,-1,22
 100 75 100 75 221.5 -49 c 128,-1,23
 343 -173 343 -173 514 -173 c 0,14,15
EndSplineSet
EndChar
